<?xml version="1.0" encoding="UTF-8"?>
<!DOCTYPE svg PUBLIC "-//W3C//DTD SVG 1.1//EN" "http://www.w3.org/Graphics/SVG/1.1/DTD/svg11.dtd">
<!-- Creator: CorelDRAW X7 -->
<svg xmlns="http://www.w3.org/2000/svg" xml:space="preserve" width="72.7748mm" height="20.0461mm" version="1.1" style="shape-rendering:geometricPrecision; text-rendering:geometricPrecision; image-rendering:optimizeQuality; fill-rule:evenodd; clip-rule:evenodd"
viewBox="0 0 11762 3240"
 xmlns:xlink="http://www.w3.org/1999/xlink">
 <defs>
  <style type="text/css">
   <![CDATA[
    .fil0 {fill:#2B2A29;fill-rule:nonzero}
    .fil1 {fill:#898778;fill-rule:nonzero}
   ]]>
  </style>
 </defs>
 <g id="Layer_x0020_1">
  <metadata id="CorelCorpID_0Corel-Layer"/>
  <path class="fil0" d="M1877 1917c43,-64 140,-252 117,-335 -13,-45 -46,-70 -90,-76 -179,-24 -299,278 -299,422 1,101 27,157 68,180 23,14 40,17 49,14 87,-33 176,-133 207,-219l-52 14zm128 10l-23 63c110,-140 229,-316 332,-530l94 -25c-151,315 -338,549 -482,706 -44,119 -86,230 -106,283 -84,222 -160,337 -214,378 -71,54 -122,61 -151,32 -14,-14 -20,-42 -17,-81 8,-99 76,-265 234,-423l14 -13c39,-39 89,-90 147,-152l35 -96c-33,24 -69,43 -105,57 -76,28 -141,35 -182,12 -42,-24 -69,-81 -70,-184 -1,-206 118,-353 241,-420 86,-47 171,-68 238,-59 191,25 78,360 15,452zm-279 522l62 -165 -24 25c-157,156 -224,320 -232,418 -3,32 1,57 11,72 49,-53 112,-162 183,-350z"/>
  <path class="fil0" d="M2117 1797c17,-48 43,-95 74,-142l4 -13c65,-182 169,-380 270,-519 45,-62 90,-114 130,-147 72,-58 138,-83 195,-63 5,1 9,4 14,7 48,35 35,88 -12,154 -44,61 -117,132 -197,211 -107,105 -227,223 -308,345 -26,73 -45,144 -54,207 -10,63 -10,118 1,160 12,42 35,72 72,86 7,2 15,4 23,5 43,7 104,-88 148,-194 28,-65 45,-134 48,-193 3,-58 -9,-107 -39,-130 -17,-14 -33,-20 -46,-14l-67 6c106,-48 172,-51 208,-22 31,24 43,73 40,133 -3,59 -20,129 -48,194 -62,148 -185,275 -333,252 -9,-1 -18,-3 -26,-6 -40,-14 -64,-45 -76,-89 -11,-43 -11,-99 -2,-161 4,-25 9,-50 16,-77l-35 10zm242 -346c47,-50 96,-99 143,-144 79,-79 151,-150 194,-209 46,-64 59,-115 13,-148 -4,-3 -7,-5 -12,-6 -1,-1 -2,5 -11,12 -38,32 -82,82 -126,143 -71,97 -142,223 -201,352z"/>
  <path class="fil0" d="M2939 1433c-5,7 -11,18 -17,30 13,-2 25,-2 36,-1 26,2 52,14 76,37 43,39 70,89 84,142 10,38 14,79 11,119 57,-76 113,-172 161,-291l73 -26c-67,165 -154,291 -243,381l-4 14c-17,65 -50,127 -94,174 -45,48 -106,86 -181,106 -39,10 -68,11 -91,5 -36,-9 -55,-38 -62,-80 -3,-20 -3,-42 -2,-67 -6,-4 -12,-9 -17,-15 -30,-30 -45,-79 -39,-144 8,-81 57,-189 122,-259 24,-25 52,-48 83,-64l16 -8c6,-11 11,-21 16,-28l72 -25zm-34 64c-43,89 -105,239 -133,366 -6,29 -10,57 -12,83 19,13 43,20 70,21 28,1 57,-5 84,-17 42,-20 87,-52 132,-95 14,-61 15,-125 -1,-185 -14,-52 -41,-101 -83,-140 -19,-18 -38,-28 -57,-33zm-199 365c30,-119 85,-252 125,-335l-9 9c-64,68 -111,173 -119,253 -2,27 -1,52 3,73zm54 138c0,5 1,9 1,14 7,40 24,68 58,77 16,4 35,4 56,-2 24,-6 51,-26 78,-56 35,-37 62,-83 80,-134 -32,23 -63,42 -93,57 -67,32 -126,46 -174,44l-6 0z"/>
  <path class="fil0" d="M3370 1450l0 0c-6,30 -70,229 -132,420l0 0 -67 211 -95 30 68 -211 0 0c65,-205 134,-419 133,-419l0 0 93 -31z"/>
  <path class="fil0" d="M3751 1424c-45,72 -221,197 -336,279 -56,40 -96,69 -97,73 0,2 27,135 82,227 20,33 43,60 70,74 13,7 -1,24 8,19 51,-32 112,-116 185,-286l94 -29c-74,173 -141,263 -200,298 -79,49 -137,54 -179,32 -28,-14 -52,-42 -72,-76 -56,-92 -83,-227 -83,-229 1,-7 45,-39 107,-83 112,-80 284,-202 327,-271l94 -28z"/>
  <path class="fil0" d="M3726 2029c26,43 72,42 118,14 38,-23 80,-56 119,-96 41,-41 78,-87 105,-135 10,-17 19,-35 26,-52 -28,24 -121,87 -213,126l0 0c-46,19 -91,33 -125,35 -29,2 -51,-5 -63,-25 -4,-7 -7,-16 -8,-27 -5,-53 14,-118 48,-179 25,-43 58,-84 96,-115 56,-46 120,-78 188,-85 34,-3 68,3 100,21 46,26 68,62 74,103 14,-7 29,-8 43,-2 6,2 3,18 -12,57 -114,294 -135,398 -105,410 2,1 31,-26 71,-58 29,-24 61,-49 93,-72l67 -20c-31,23 -61,47 -89,69 -94,76 -170,137 -219,117 -25,-9 -19,-73 36,-234 -12,14 -24,27 -37,40 -44,44 -93,83 -142,112l-1 0c-113,67 -214,91 -249,31 -23,-56 -32,-115 2,-182l42 -4c5,50 13,101 35,151zm386 -344c5,-56 -15,-105 -73,-138 -30,-17 -60,-23 -89,-20 -15,1 -32,11 -49,25 -35,28 -65,66 -89,108 -34,59 -52,123 -47,175 1,11 4,20 8,27 10,18 29,24 53,22 17,-1 35,-6 52,-13 59,-25 124,-70 143,-88 28,-25 57,-59 82,-87l9 -11z"/>
  <path class="fil0" d="M4477 1475c-2,8 -3,18 -5,31 -3,22 -8,52 -16,90 142,-136 223,-161 264,-120 22,22 16,84 -2,161 91,-99 159,-145 212,-156 64,-14 70,49 56,132 -33,159 -56,272 -69,348 94,-170 239,-412 431,-464l-20 26c-103,28 -246,287 -333,446 -28,51 -107,177 -180,162 -21,-4 -2,-131 72,-487 13,-76 19,-135 0,-131 -7,2 -64,71 -206,259l-2 3c-12,37 -24,75 -36,110 -10,30 -19,59 -27,83 -22,69 -36,107 -44,123l-8 17 -97 15c0,-8 3,-24 8,-45 17,-73 59,-206 106,-275 41,-130 74,-261 42,-293 -4,-3 -33,21 -107,95l0 1c-36,34 -71,85 -103,140l-1 4c-64,179 -102,275 -121,314l-18 35 -95 9c1,-11 8,-36 20,-70 23,-68 65,-170 116,-261 40,-113 52,-195 59,-241 2,-14 4,-25 6,-31l98 -30z"/>
  <path class="fil0" d="M5416 1605c-6,-73 -30,-101 -63,-99 -14,1 -53,43 -100,104 -57,74 -108,169 -131,257 -29,110 -13,208 93,235 40,11 106,-44 177,-136 90,-117 177,-284 234,-463l76 -26c-56,179 -144,348 -235,466 -107,138 -225,216 -325,190 -109,-28 -126,-128 -97,-240 23,-88 75,-185 133,-260 69,-89 157,-153 238,-159 41,-3 71,27 76,104l-76 27z"/>
  <path class="fil0" d="M5722 1472c-4,16 -10,38 -18,65 -39,139 -118,408 -171,573l-95 30c53,-166 133,-435 171,-573 8,-28 15,-51 18,-65l95 -30z"/>
  <path class="fil0" d="M6107 1424c-45,72 -221,197 -336,279 -56,40 -96,69 -96,73 -1,2 9,142 45,234 13,31 29,57 48,69 3,2 -32,29 -17,18 44,-32 100,-118 173,-287l94 -29c-73,171 -133,260 -180,295 -73,54 -125,61 -163,37 -20,-13 -36,-39 -49,-71 -37,-93 -47,-234 -46,-236 0,-7 45,-39 106,-83 112,-80 285,-202 327,-271l94 -28z"/>
  <path class="fil0" d="M5934 1998c-22,-68 -23,-144 -8,-183l42 -17c8,-30 21,-61 39,-92 27,-48 65,-94 109,-131 61,-50 131,-86 205,-95 37,-5 73,1 106,20 24,13 42,30 55,48 5,8 10,16 13,25 11,-21 19,-37 25,-48 7,-24 21,-47 31,-70l55 18 -2 4 2 -1 -4 9c-87,298 -119,477 -115,563 2,30 8,49 18,58 30,-31 69,-83 112,-152l79 -30c-58,92 -112,159 -154,186l0 0c-54,36 -94,48 -115,32 -11,-8 -18,-28 -20,-60 -2,-44 5,-110 23,-202 -46,71 -107,137 -170,180 -75,53 -138,74 -189,72 -36,-2 -65,-18 -88,-42 -22,-24 -38,-57 -49,-92zm174 89c11,4 23,7 36,8 16,0 33,-5 51,-17 65,-45 129,-118 174,-197l2 -4c-79,105 -170,193 -263,210zm323 -396c1,-40 -7,-77 -29,-108 -13,-18 -30,-34 -53,-47 -31,-18 -62,-23 -94,-19 -20,2 -43,16 -67,35 -40,34 -76,78 -102,123 -32,56 -49,114 -44,160 21,167 67,224 122,217 40,-5 130,-135 209,-264 21,-33 40,-66 58,-97zm58 429c-9,6 -18,12 -9,6 3,-2 6,-4 9,-6z"/>
  <path class="fil0" d="M6692 1929c-29,76 -13,118 27,133 45,18 116,3 182,-31 35,-18 70,-41 103,-68 15,-68 39,-159 75,-278 -14,15 -28,30 -43,43 -26,24 -120,88 -213,127l0 0c-47,20 -91,34 -126,36 -28,2 -51,-5 -62,-25 -5,-7 -8,-17 -9,-28 -5,-52 14,-118 48,-178 25,-43 58,-84 96,-116 56,-46 120,-77 189,-84 34,-4 68,2 100,21 178,101 190,224 128,332 -24,43 -61,84 -105,121 -25,118 -22,166 1,170 5,1 62,-89 134,-181l78 -29c-105,134 -208,261 -288,247 -22,-4 -29,-45 -10,-145 -20,13 -40,24 -61,35 -118,61 -234,91 -294,67 -43,-16 -60,-59 -29,-137l79 -32zm409 -74l7 -12c24,-41 36,-84 32,-128 -15,53 -28,99 -39,140zm-5 -245c-26,-32 -63,-64 -115,-93 -31,-18 -61,-24 -90,-21 -15,2 -32,11 -49,25 -34,29 -65,67 -89,108 -33,59 -52,124 -47,175 1,11 4,20 8,27 11,18 30,24 53,23 17,-1 35,-6 52,-13 59,-25 124,-70 144,-88 27,-25 57,-59 81,-87 17,-19 32,-36 46,-50l9 5c0,-2 0,-3 -1,-3l-7 -3 5 -5zm-6 6l1 -1c-2,-1 -2,0 -1,1z"/>
  <path class="fil0" d="M7997 1524c-19,49 -34,146 -51,247 -25,159 -52,329 -117,354 -57,22 -104,4 -134,-75 -3,-6 -5,-12 -6,-19 -21,-83 12,-205 58,-309 45,-104 111,-195 152,-213l0 0 3 -1c10,-5 21,-8 32,-10 127,-32 182,-27 238,-22 45,5 92,9 175,-9l1 0c19,-4 29,-4 30,1 3,13 -27,84 -64,175 -39,94 -87,210 -117,303 -29,89 -41,156 -15,165 11,3 37,-66 128,-317l17 -45 89 -24 -17 45c-119,327 -153,418 -302,369 -30,-9 -18,-78 11,-169 30,-92 78,-209 117,-303 35,-85 63,-153 64,-170 -98,18 -148,14 -197,9 -42,-4 -83,-7 -153,7 -7,6 -16,18 -26,34l84 -23zm-140 272c15,-92 29,-181 46,-233 -20,34 -44,82 -68,135 -45,104 -78,225 -58,307 2,7 4,13 6,19 24,62 -15,106 3,99 20,-8 47,-173 71,-327z"/>
  <path class="fil0" d="M9010 1930c1,5 -2,21 -5,42 -3,17 -7,38 -9,58 -1,13 151,-360 223,-471 36,-57 138,-173 151,-53 2,23 4,55 7,94 6,112 16,283 50,457l0 2c47,-94 94,-241 103,-305l103 -35c-10,70 -64,237 -115,330 -14,25 -28,45 -42,57 -55,49 -101,65 -132,37 -8,-8 -15,-24 -20,-50 -34,-175 -44,-346 -51,-458l-1 -20c-18,37 -34,76 -51,116 -23,55 -47,113 -79,174 -115,221 -191,269 -243,242 -19,-10 -6,-90 3,-141 3,-20 5,-36 5,-40l103 -36z"/>
  <path class="fil0" d="M10417 1475c-2,8 -3,18 -5,31 -3,22 -8,52 -16,90 142,-136 223,-161 265,-120 21,22 15,84 -3,161 91,-99 159,-145 212,-156 64,-14 70,49 56,132 -33,159 -56,272 -69,348 95,-170 239,-412 431,-464l-20 26c-103,28 -246,287 -333,446 -30,54 -110,177 -180,162 -21,-4 -2,-131 72,-487 13,-76 19,-135 1,-131 -8,2 -65,71 -207,259l-2 3c-12,37 -24,75 -36,110 -10,30 -19,59 -27,83 -22,69 -36,107 -44,123l-8 17 -97 15c0,-8 3,-24 8,-45 17,-73 59,-206 106,-275 41,-130 75,-261 42,-293 -4,-3 -33,21 -107,95l0 1c-36,34 -71,85 -103,140l-1 4c-64,179 -102,275 -121,314l-18 35 -95 9c1,-11 8,-36 20,-70 23,-68 65,-170 116,-261 40,-113 52,-195 59,-241 3,-14 4,-25 6,-31l98 -30z"/>
  <path class="fil0" d="M94 1481c45,530 190,720 378,704 182,-15 446,-301 696,-658 -32,-50 -70,-97 -114,-138 -50,-47 -107,-86 -171,-117 -355,24 -655,44 -732,39 -10,-1 -24,0 -23,-11 233,-103 500,-171 751,-95 31,10 61,21 90,35l406 -28c58,-94 112,-189 162,-282 99,-381 200,-727 263,-851 76,-150 190,-79 127,147 -46,168 -154,416 -297,680 -25,96 -50,196 -74,294 373,-25 707,-44 821,-36l-83 32c-105,-7 -403,9 -745,31 -52,210 -100,414 -138,582l-25 113c2,81 -9,162 -33,240 -9,28 -15,45 -19,53l-101 40c4,-29 10,-65 18,-107 9,-49 23,-117 42,-200 -2,-109 -25,-217 -69,-316 -7,-16 -14,-32 -22,-47 -258,343 -546,610 -799,632 -203,17 -358,-175 -403,-709l94 -27zm1131 -35l18 -28c39,-58 78,-118 115,-178l-343 23c48,27 92,60 131,97 29,26 55,55 79,86zm111 -51c-24,35 -48,71 -73,106 21,33 39,67 55,103 12,28 23,58 32,87 33,-141 70,-298 110,-458l-20 1c-34,54 -69,108 -104,161zm396 -866c45,-105 80,-200 101,-277 12,-44 20,-82 23,-114 -35,93 -78,231 -124,391zm-258 650l-17 27 10 0 7 -27zm-645 70c-13,-5 -26,-9 -40,-13 -160,-49 -350,-44 -560,42l5 1c64,4 301,-10 595,-30z"/>
  <path class="fil1" d="M2803 3040l-389 0 0 -35c37,-2 61,-5 72,-9 11,-5 16,-11 16,-18 0,-4 -2,-10 -6,-18 -4,-9 -9,-19 -16,-30 -10,-18 -24,-40 -42,-66 -17,-27 -36,-54 -55,-82 -63,73 -102,121 -119,145 -17,24 -26,40 -26,48 0,4 1,7 2,10 2,3 5,6 11,9 4,2 11,4 21,6 11,2 23,4 37,5l0 35 -248 0 0 -35c13,-1 23,-2 31,-4 8,-2 15,-4 23,-7 17,-9 33,-19 46,-31 14,-13 28,-27 42,-44 21,-23 45,-50 71,-80 26,-30 54,-62 83,-96 -28,-41 -55,-82 -83,-121 -27,-39 -50,-73 -70,-100 -9,-14 -21,-28 -36,-42 -14,-14 -29,-24 -44,-29 -8,-4 -17,-7 -26,-9 -10,-2 -22,-4 -35,-5l0 -34 389 0 0 34c-30,2 -52,4 -67,9 -14,4 -21,10 -21,18 0,5 1,10 4,16 3,7 8,17 17,31 7,12 18,29 33,52 15,24 33,50 52,79 57,-67 92,-111 107,-132 14,-20 21,-34 21,-42 0,-9 -4,-15 -12,-19 -9,-5 -28,-8 -59,-12l0 -34 248 0 0 34c-11,1 -21,2 -28,4 -7,1 -16,4 -25,8 -19,9 -34,19 -47,31 -13,13 -26,27 -41,43 -23,25 -44,49 -64,72 -20,23 -45,52 -74,85 36,55 67,101 93,137 26,37 50,72 73,104 9,14 21,28 35,42 14,14 29,24 44,30 7,2 16,5 25,7 9,3 21,4 37,5l0 35zm538 -9c-13,6 -29,11 -47,16 -18,5 -36,7 -56,7 -37,0 -64,-6 -81,-16 -17,-11 -29,-27 -35,-47l-3 0c-10,10 -20,19 -29,26 -10,7 -20,13 -31,18 -14,7 -28,12 -41,15 -13,3 -31,5 -54,5 -35,0 -65,-10 -90,-31 -24,-20 -37,-48 -37,-82 0,-19 3,-36 9,-49 5,-14 13,-26 23,-36 8,-10 19,-18 31,-24 12,-7 25,-12 39,-18 27,-10 59,-20 97,-31 38,-10 65,-20 83,-28l0 -43c0,-8 -1,-18 -2,-30 -1,-12 -4,-23 -8,-31 -4,-10 -10,-18 -19,-24 -9,-7 -21,-10 -36,-10 -13,0 -24,2 -33,6 -9,3 -16,7 -22,11 1,6 4,15 8,27 4,13 6,24 6,36 0,5 -1,11 -4,19 -3,8 -6,14 -12,18 -6,6 -14,11 -23,14 -8,3 -21,5 -39,5 -25,0 -44,-6 -57,-18 -13,-12 -19,-28 -19,-48 0,-16 6,-31 19,-45 14,-13 30,-24 49,-33 19,-9 41,-16 65,-21 25,-5 48,-7 69,-7 29,0 55,2 80,5 24,4 46,11 65,21 19,11 34,26 45,46 11,20 16,46 16,78 0,34 -1,74 -2,120 -1,46 -2,77 -2,92 0,13 2,24 6,31 4,8 11,14 19,18 5,2 13,4 23,4 11,1 21,1 30,1l0 33zm-222 -234c-17,6 -34,13 -50,20 -17,7 -31,15 -41,23 -11,8 -20,19 -27,32 -6,13 -9,29 -9,46 0,24 5,41 16,51 11,11 24,16 40,16 16,0 30,-3 41,-10 10,-7 20,-15 28,-25l2 -153zm588 162c7,-18 13,-39 16,-63 4,-25 6,-51 6,-79 0,-23 -2,-46 -5,-70 -3,-25 -7,-45 -14,-61 -7,-17 -16,-32 -27,-42 -12,-11 -26,-16 -43,-16 -18,0 -33,6 -45,17 -12,11 -22,26 -29,45 -7,16 -12,35 -15,58 -4,22 -5,45 -5,69 0,33 1,62 5,86 4,25 9,45 16,61 7,17 17,31 28,40 12,9 26,14 43,14 15,0 28,-5 40,-15 12,-11 21,-25 29,-44zm-274 -238l5 1c19,-39 46,-70 81,-94 36,-24 78,-36 126,-36 42,0 78,5 109,16 31,11 56,26 77,46 21,20 36,44 46,71 10,27 15,58 15,91 0,32 -5,63 -17,92 -12,29 -29,55 -51,76 -23,22 -51,40 -83,52 -33,13 -70,19 -111,19 -31,0 -62,-5 -92,-16 -30,-11 -57,-28 -80,-52 -23,-23 -41,-52 -54,-88 -14,-36 -20,-79 -20,-128 0,-47 3,-88 11,-122 8,-34 19,-69 33,-104 17,-39 43,-73 78,-103 36,-29 78,-44 127,-47 24,-1 54,-2 89,-4 35,-2 61,-3 77,-4 15,-2 27,-4 36,-9 9,-4 19,-13 30,-27l27 22c-9,12 -19,26 -27,39 -9,13 -18,25 -27,37 -6,7 -13,15 -19,23 -7,8 -14,15 -21,19 -8,6 -16,10 -25,13 -9,3 -22,6 -38,7 -13,1 -30,2 -50,3 -20,2 -40,3 -59,4 -26,1 -48,5 -67,11 -18,7 -33,14 -46,23 -12,8 -22,18 -30,28 -7,11 -13,20 -17,29 -9,17 -16,37 -22,59 -5,22 -9,40 -11,53zm1031 310c-13,6 -29,11 -47,16 -17,5 -36,7 -56,7 -37,0 -64,-6 -81,-16 -17,-11 -29,-27 -35,-47l-3 0c-10,10 -20,19 -29,26 -10,7 -20,13 -31,18 -14,7 -27,12 -41,15 -13,3 -31,5 -54,5 -35,0 -65,-10 -89,-31 -25,-20 -37,-48 -37,-82 0,-19 2,-36 8,-49 5,-14 13,-26 23,-36 9,-10 19,-18 31,-24 12,-7 25,-12 39,-18 27,-10 59,-20 97,-31 38,-10 66,-20 83,-28l0 -43c0,-8 0,-18 -2,-30 -1,-12 -3,-23 -7,-31 -4,-10 -11,-18 -20,-24 -9,-7 -21,-10 -36,-10 -13,0 -24,2 -33,6 -9,3 -16,7 -22,11 1,6 4,15 8,27 4,13 6,24 6,36 0,5 -1,11 -4,19 -2,8 -6,14 -11,18 -7,6 -15,11 -23,14 -9,3 -22,5 -40,5 -25,0 -44,-6 -57,-18 -13,-12 -19,-28 -19,-48 0,-16 6,-31 20,-45 13,-13 29,-24 48,-33 19,-9 41,-16 66,-21 24,-5 47,-7 68,-7 29,0 56,2 80,5 24,4 46,11 66,21 18,11 33,26 44,46 11,20 16,46 16,78 0,34 0,74 -2,120 -1,46 -1,77 -1,92 0,13 2,24 6,31 4,8 10,14 18,18 5,2 13,4 23,4 11,1 21,1 30,1l0 33zm-222 -234c-17,6 -34,13 -50,20 -17,7 -30,15 -41,23 -11,8 -20,19 -26,32 -7,13 -10,29 -10,46 0,24 6,41 16,51 11,11 24,16 40,16 17,0 30,-3 41,-10 11,-7 20,-15 28,-25l2 -153zm804 24c0,64 -21,118 -63,163 -42,45 -96,68 -160,68 -29,0 -52,-3 -70,-9 -18,-5 -33,-13 -45,-21l-3 0 0 126c0,10 2,19 7,27 4,8 11,13 19,17 8,3 20,6 34,9 15,2 27,4 37,5l0 34 -324 0 0 -34c8,-1 17,-2 29,-4 11,-1 19,-3 25,-5 9,-3 16,-9 19,-17 4,-7 6,-17 6,-27l0 -458c-1,-10 -4,-19 -7,-26 -4,-8 -10,-14 -18,-20 -6,-4 -14,-7 -24,-9 -10,-3 -19,-5 -29,-6l0 -33 219 -12 7 6 0 50 3 0c20,-20 42,-35 66,-46 24,-12 48,-17 71,-17 62,0 111,22 147,66 36,44 54,102 54,173zm-161 2c0,-23 -2,-44 -5,-65 -3,-20 -9,-39 -17,-55 -8,-16 -19,-29 -32,-39 -14,-9 -30,-14 -49,-14 -20,0 -35,3 -47,10 -11,7 -22,16 -30,27l0 255c2,6 5,14 10,23 5,10 10,17 15,23 8,8 16,14 26,18 9,4 20,6 31,6 30,0 54,-16 71,-48 18,-32 27,-79 27,-141zm678 -175c22,21 39,45 51,74 11,29 17,60 17,94 0,33 -6,64 -17,94 -12,29 -29,54 -51,75 -23,23 -52,40 -84,52 -33,12 -71,18 -113,18 -36,0 -70,-5 -101,-16 -30,-10 -58,-26 -81,-47 -23,-20 -41,-45 -54,-74 -13,-30 -20,-63 -20,-99 0,-36 6,-68 18,-96 11,-28 28,-53 51,-75 22,-21 50,-37 82,-49 33,-11 69,-17 109,-17 42,0 79,6 111,17 32,12 59,28 82,49zm-115 311c6,-17 11,-37 14,-61 4,-24 5,-52 5,-83 0,-21 -1,-45 -4,-72 -3,-27 -8,-48 -14,-64 -7,-19 -17,-33 -30,-44 -12,-11 -28,-16 -48,-16 -21,0 -38,6 -51,17 -13,12 -23,27 -29,45 -7,17 -11,37 -14,60 -2,23 -3,47 -3,72 0,32 1,59 3,81 2,21 7,43 15,64 7,19 17,33 30,44 13,11 29,16 49,16 18,0 33,-5 46,-15 13,-10 23,-25 31,-44zm592 -49c0,-24 -7,-44 -21,-59 -14,-16 -37,-23 -68,-23 -12,0 -21,0 -28,1 -7,0 -13,0 -18,0l0 143c0,12 4,21 11,27 7,7 19,10 36,10 17,0 32,-3 44,-9 11,-5 21,-13 27,-23 6,-9 11,-20 13,-31 3,-11 4,-23 4,-36zm160 8c0,22 -5,41 -15,57 -11,16 -25,29 -44,39 -20,11 -42,18 -65,22 -24,5 -51,7 -83,7 -76,0 -134,-1 -176,-1 -41,-1 -83,-2 -126,-2l0 -33c8,-1 15,-1 23,-2 8,-1 14,-3 20,-5 9,-3 16,-8 19,-15 4,-7 6,-16 6,-27l0 -281c0,-11 -2,-20 -6,-27 -4,-7 -10,-12 -19,-15 -8,-3 -15,-4 -22,-5 -6,-1 -13,-1 -21,-2l0 -33c63,0 117,0 163,-1 45,-1 90,-1 134,-1 25,0 49,2 72,5 23,4 43,9 60,17 17,8 31,18 41,32 10,13 15,30 15,50 0,29 -9,53 -29,70 -19,18 -46,30 -80,36l0 7c17,2 34,5 50,10 16,4 31,11 42,19 13,9 23,19 31,32 7,13 10,29 10,47zm-177 -218c0,-15 -3,-27 -7,-36 -5,-10 -10,-17 -17,-22 -8,-5 -16,-9 -26,-11 -9,-1 -18,-2 -27,-2 -6,0 -13,0 -20,0 -7,1 -14,1 -21,2l0 160 36 0c15,0 29,-2 40,-7 11,-4 20,-11 26,-20 5,-7 9,-16 12,-27 2,-11 4,-23 4,-37zm492 355c-41,0 -78,-6 -110,-18 -32,-12 -58,-29 -79,-50 -20,-21 -36,-46 -46,-75 -10,-29 -15,-61 -15,-95 0,-31 6,-61 19,-89 12,-28 29,-53 50,-74 22,-22 49,-40 82,-53 32,-13 68,-19 107,-19 55,0 99,10 131,31 32,21 48,49 48,85 0,21 -6,39 -17,52 -11,13 -31,20 -59,20 -22,0 -41,-6 -56,-17 -15,-10 -23,-24 -23,-42 0,-15 3,-29 8,-44 4,-14 7,-25 8,-32 -3,-6 -7,-10 -13,-13 -5,-3 -13,-4 -23,-4 -14,0 -26,3 -37,9 -11,7 -21,18 -31,33 -9,16 -17,36 -22,61 -6,25 -8,55 -8,91 0,53 12,96 37,128 25,33 55,50 89,50 34,0 60,-8 80,-23 19,-15 37,-36 52,-63l33 23c-9,19 -20,35 -33,50 -13,15 -28,29 -46,41 -19,12 -38,21 -58,27 -19,7 -42,10 -68,10zm792 -15l-209 0c-5,-26 -10,-47 -15,-65 -4,-18 -10,-38 -17,-60 -9,-27 -21,-47 -35,-60 -13,-13 -35,-20 -66,-21l0 120c0,11 2,19 5,26 3,7 8,12 15,16 4,3 10,5 17,7 7,2 14,3 21,4l0 33 -273 0 0 -33c8,-1 15,-1 23,-2 7,-1 14,-3 19,-5 10,-3 16,-8 20,-15 3,-7 5,-16 5,-27l0 -281c0,-11 -2,-20 -5,-27 -4,-7 -11,-12 -20,-15 -8,-3 -15,-4 -21,-5 -7,-1 -14,-1 -21,-2l0 -33 273 0 0 33c-7,1 -13,2 -19,3 -7,2 -13,4 -19,8 -8,4 -13,9 -15,16 -3,7 -5,16 -5,26l0 117 21 0c14,0 26,-2 35,-5 9,-3 16,-9 22,-17 8,-14 15,-27 19,-40 5,-14 9,-27 12,-39 4,-13 9,-26 14,-39 6,-13 14,-26 24,-39 11,-12 23,-22 37,-28 14,-6 31,-9 50,-9 16,0 29,2 40,7 11,5 20,10 26,17 7,8 12,15 14,24 3,8 5,17 5,26 0,24 -7,42 -20,55 -13,12 -28,18 -46,18 -15,0 -30,-5 -44,-14 -14,-10 -27,-21 -37,-33 -7,4 -12,11 -16,20 -4,10 -8,19 -12,30 -4,11 -9,22 -13,32 -4,11 -11,20 -19,28 31,6 57,18 78,37 22,20 38,42 49,69 5,12 10,24 16,37 5,13 10,24 14,33 6,12 12,21 20,25 8,5 14,8 19,8 4,1 10,2 17,4 8,1 13,2 17,2l0 33zm488 -392c22,21 39,45 51,74 12,29 18,60 18,94 0,33 -6,64 -18,94 -11,29 -28,54 -50,75 -24,23 -52,40 -85,52 -33,12 -70,18 -112,18 -37,0 -70,-5 -101,-16 -31,-10 -58,-26 -82,-47 -22,-20 -40,-45 -53,-74 -14,-30 -20,-63 -20,-99 0,-36 6,-68 17,-96 12,-28 29,-53 52,-75 22,-21 49,-37 82,-49 32,-11 69,-17 109,-17 42,0 79,6 110,17 32,12 60,28 82,49zm-115 311c7,-17 12,-37 15,-61 3,-24 5,-52 5,-83 0,-21 -2,-45 -5,-72 -3,-27 -7,-48 -13,-64 -7,-19 -17,-33 -30,-44 -13,-11 -29,-16 -48,-16 -22,0 -39,6 -51,17 -13,12 -23,27 -30,45 -6,17 -10,37 -13,60 -2,23 -3,47 -3,72 0,32 1,59 3,81 2,21 7,43 15,64 7,19 17,33 30,44 13,11 29,16 49,16 18,0 33,-5 46,-15 13,-10 23,-25 30,-44zm667 -201l-29 0c-3,-9 -7,-18 -11,-29 -5,-11 -12,-24 -21,-39 -8,-13 -17,-24 -26,-34 -10,-10 -20,-15 -30,-17 -9,0 -18,-1 -29,-2 -11,0 -21,-1 -29,-1l-33 0 0 322c0,10 2,19 6,27 4,7 10,12 20,15 7,2 14,4 20,5 7,1 15,1 25,2l0 33 -286 0 0 -33c8,-1 15,-1 23,-2 7,-1 14,-3 19,-5 10,-3 16,-8 20,-15 3,-7 5,-16 5,-27l0 -281c0,-11 -2,-20 -5,-27 -4,-7 -11,-12 -20,-15 -8,-3 -15,-4 -21,-5 -7,-1 -14,-1 -21,-2l0 -33 423 0 0 163zm491 -110c22,21 39,45 51,74 11,29 17,60 17,94 0,33 -6,64 -17,94 -12,29 -28,54 -50,75 -24,23 -52,40 -85,52 -33,12 -70,18 -113,18 -36,0 -70,-5 -100,-16 -31,-10 -58,-26 -82,-47 -23,-20 -41,-45 -54,-74 -13,-30 -20,-63 -20,-99 0,-36 6,-68 18,-96 11,-28 29,-53 52,-75 22,-21 49,-37 82,-49 32,-11 68,-17 108,-17 42,0 79,6 111,17 32,12 59,28 82,49zm-115 311c7,-17 12,-37 15,-61 3,-24 5,-52 5,-83 0,-21 -2,-45 -5,-72 -3,-27 -7,-48 -13,-64 -8,-19 -18,-33 -30,-44 -13,-11 -29,-16 -49,-16 -21,0 -38,6 -51,17 -12,12 -22,27 -29,45 -6,17 -11,37 -13,60 -2,23 -4,47 -4,72 0,32 1,59 3,81 2,21 8,43 16,64 7,19 17,33 29,44 13,11 30,16 49,16 18,0 34,-5 47,-15 13,-10 23,-25 30,-44z"/>
  <path class="fil1" d="M9918 3040l-244 0c-11,-31 -21,-61 -32,-92 -10,-31 -21,-60 -33,-86 -8,-19 -17,-36 -25,-50 -8,-13 -18,-25 -30,-34 -12,-10 -26,-17 -42,-22 -16,-4 -35,-7 -57,-7l0 197c0,11 2,20 7,28 4,8 12,14 22,19 6,2 16,5 29,7 14,3 25,5 34,5l0 35 -345 0 0 -35c8,0 19,-1 33,-3 15,-1 26,-3 32,-6 11,-4 18,-10 23,-17 4,-8 6,-18 6,-29l0 -451c0,-10 -2,-19 -6,-26 -3,-8 -11,-14 -23,-19 -9,-4 -20,-8 -34,-11 -14,-3 -25,-5 -31,-6l0 -34 345 0 0 34c-9,1 -20,3 -33,5 -13,2 -23,5 -30,7 -12,4 -19,10 -23,18 -4,9 -6,18 -6,28l0 212 29 0c12,0 25,-2 37,-5 13,-4 25,-11 36,-21 21,-21 37,-43 48,-65 11,-21 20,-43 28,-66 9,-25 17,-47 24,-64 7,-18 21,-37 43,-58 10,-10 23,-18 39,-25 15,-6 32,-9 50,-9 30,0 54,8 72,23 17,15 26,35 26,59 0,25 -8,46 -22,60 -15,15 -34,22 -56,22 -15,0 -29,-4 -42,-13 -14,-8 -30,-24 -49,-48 -9,10 -17,24 -24,43 -6,20 -13,36 -18,51 -12,29 -23,52 -35,67 -11,16 -23,29 -38,39l0 8c42,11 77,29 104,55 28,25 50,56 67,93 8,15 16,32 24,50 8,18 15,33 21,46 9,19 18,32 27,38 9,7 16,10 22,11 7,2 15,3 25,4 10,2 18,3 25,3l0 35zm563 -219c0,64 -21,118 -64,163 -42,45 -95,68 -160,68 -29,0 -52,-3 -70,-9 -18,-5 -33,-13 -44,-21l-4 0 0 126c0,10 2,19 7,27 5,8 11,13 20,17 8,3 19,6 34,9 15,2 27,4 37,5l0 34 -324 0 0 -34c7,-1 17,-2 28,-4 11,-1 20,-3 25,-5 10,-3 16,-9 20,-17 3,-7 5,-17 5,-27l0 -458c-1,-10 -3,-19 -7,-26 -4,-8 -10,-14 -18,-20 -6,-4 -13,-7 -23,-9 -10,-3 -20,-5 -29,-6l0 -33 218 -12 7 6 0 50 4 0c19,-20 41,-35 65,-46 25,-12 48,-17 72,-17 62,0 111,22 147,66 36,44 54,102 54,173zm-161 2c0,-23 -2,-44 -5,-65 -4,-20 -10,-39 -18,-55 -8,-16 -19,-29 -32,-39 -13,-9 -30,-14 -49,-14 -19,0 -35,3 -46,10 -12,7 -22,16 -31,27l0 255c2,6 5,14 10,23 6,10 11,17 16,23 7,8 16,14 25,18 10,4 20,6 32,6 29,0 53,-16 71,-48 18,-32 27,-79 27,-141zm732 208c-13,6 -29,11 -47,16 -18,5 -36,7 -56,7 -37,0 -64,-6 -81,-16 -17,-11 -29,-27 -35,-47l-3 0c-10,10 -20,19 -30,26 -9,7 -19,13 -30,18 -14,7 -28,12 -41,15 -13,3 -31,5 -54,5 -35,0 -65,-10 -90,-31 -24,-20 -37,-48 -37,-82 0,-19 3,-36 8,-49 6,-14 13,-26 23,-36 9,-10 20,-18 32,-24 12,-7 25,-12 39,-18 27,-10 59,-20 97,-31 38,-10 65,-20 83,-28l0 -43c0,-8 -1,-18 -2,-30 -1,-12 -4,-23 -8,-31 -4,-10 -10,-18 -20,-24 -8,-7 -20,-10 -35,-10 -13,0 -25,2 -33,6 -9,3 -16,7 -22,11 1,6 4,15 8,27 4,13 6,24 6,36 0,5 -1,11 -4,19 -3,8 -6,14 -12,18 -6,6 -14,11 -23,14 -8,3 -21,5 -39,5 -25,0 -44,-6 -57,-18 -13,-12 -20,-28 -20,-48 0,-16 7,-31 20,-45 14,-13 30,-24 49,-33 19,-9 41,-16 65,-21 25,-5 48,-7 69,-7 29,0 55,2 80,5 24,4 46,11 65,21 19,11 34,26 45,46 11,20 16,46 16,78 0,34 -1,74 -2,120 -1,46 -2,77 -2,92 0,13 2,24 6,31 4,8 10,14 19,18 5,2 12,4 23,4 11,1 21,1 30,1l0 33zm-222 -234c-17,6 -34,13 -50,20 -17,7 -31,15 -41,23 -11,8 -20,19 -27,32 -6,13 -9,29 -9,46 0,24 5,41 16,51 11,11 24,16 40,16 16,0 30,-3 41,-10 10,-7 20,-15 28,-25l2 -153zm790 243l-273 0 0 -33c5,-1 11,-2 18,-3 8,-2 15,-4 21,-8 7,-4 12,-9 14,-15 3,-6 5,-15 5,-27l0 -111c-27,0 -49,6 -65,17 -16,12 -28,30 -37,56 -9,23 -15,43 -21,60 -5,16 -11,38 -18,64l-207 0 0 -33c4,-1 10,-1 18,-2 7,-1 14,-2 20,-4 4,-1 10,-4 16,-9 6,-4 12,-13 18,-25 6,-12 11,-23 15,-32 4,-9 9,-20 17,-34 9,-17 21,-32 37,-44 16,-12 31,-21 45,-26l0 -5c-15,-3 -29,-7 -42,-12 -14,-6 -26,-13 -36,-22 -11,-9 -19,-20 -26,-34 -6,-14 -9,-29 -9,-47 0,-38 18,-67 53,-87 36,-21 86,-31 151,-31 58,0 111,0 159,1 49,1 91,1 127,1l0 33c-9,1 -16,1 -22,2 -6,1 -13,3 -20,5 -9,2 -15,7 -19,14 -4,7 -6,16 -6,28l0 281c0,11 2,20 6,27 3,8 10,13 19,15 7,2 13,4 19,5 6,1 13,1 23,2l0 33zm-215 -234l0 -176c-10,0 -18,-1 -24,-1 -7,0 -12,0 -17,0 -23,0 -42,8 -56,23 -15,16 -22,37 -22,64 0,30 7,53 22,67 15,15 39,23 72,23l25 0z"/>
  <path class="fil0" d="M8390 2029c26,43 72,42 118,14 38,-23 80,-56 119,-96 41,-41 78,-87 105,-135 10,-17 19,-35 26,-52 -28,24 -121,87 -213,126l0 0c-46,19 -91,33 -125,35 -29,2 -51,-5 -63,-25 -4,-7 -7,-16 -8,-27 -5,-53 14,-118 48,-179 25,-43 58,-84 96,-115 55,-46 120,-78 188,-85 34,-3 68,3 100,21 45,26 68,62 74,103 14,-7 28,-8 43,-2 6,2 3,18 -12,57 -114,294 -135,398 -105,410 2,1 31,-26 71,-58 29,-24 61,-49 93,-72l67 -20c-31,23 -61,47 -89,69 -94,76 -170,137 -219,117 -25,-9 -19,-73 36,-234 -12,14 -24,27 -37,40 -44,44 -93,83 -142,112l-1 0c-113,67 -214,91 -249,31 -23,-56 -32,-115 2,-182l42 -4c5,50 13,101 35,151zm386 -344c5,-56 -15,-105 -73,-138 -30,-17 -60,-23 -89,-20 -15,1 -32,11 -49,25 -35,28 -65,66 -89,108 -34,59 -52,123 -47,175 1,11 4,20 8,27 10,18 29,24 53,22 17,-1 35,-6 52,-13 59,-25 124,-70 143,-88 28,-25 57,-59 82,-87l9 -11z"/>
  <path class="fil0" d="M9638 2029c26,43 72,42 118,14 39,-23 81,-56 120,-96 41,-41 77,-87 104,-135 10,-17 19,-35 26,-52 -28,24 -121,87 -212,126l0 0c-47,19 -91,33 -126,35 -28,2 -51,-5 -62,-25 -5,-7 -8,-16 -9,-27 -5,-53 14,-118 48,-179 25,-43 58,-84 96,-115 56,-46 120,-78 189,-85 34,-3 67,3 100,21 45,26 68,62 74,103 14,-7 28,-8 43,-2 5,2 2,18 -13,57 -113,294 -135,398 -104,410 1,1 31,-26 71,-58 29,-24 60,-49 92,-72l68 -20c-31,23 -62,47 -89,69 -94,76 -170,137 -220,117 -25,-9 -19,-73 36,-234 -11,14 -24,27 -37,40 -43,44 -93,83 -142,112l0 0c-113,67 -214,91 -250,31 -22,-56 -31,-115 2,-182l42 -4c6,50 13,101 35,151zm387 -344c4,-56 -16,-105 -74,-138 -30,-17 -60,-23 -89,-20 -15,1 -32,11 -49,25 -34,28 -65,66 -89,108 -33,59 -52,123 -47,175 1,11 4,20 8,27 11,18 30,24 53,22 17,-1 35,-6 52,-13 59,-25 124,-70 144,-88 27,-25 57,-59 81,-87l10 -11z"/>
  <path class="fil0" d="M10999 1998c-21,-68 -22,-144 -7,-183l42 -17c7,-30 21,-61 38,-92 27,-48 66,-94 110,-131 60,-50 131,-86 205,-95 37,-5 73,1 106,20 23,13 41,30 54,48 6,8 10,16 14,25 11,-21 19,-37 25,-48 7,-24 20,-47 31,-70l54 18 -1 4 2 -1 -4 9c-87,298 -120,477 -115,563 1,30 7,49 17,58 31,-31 69,-83 113,-152l79 -30c-59,92 -112,159 -154,186l0 0c-55,36 -94,48 -115,32 -11,-8 -18,-28 -20,-60 -3,-44 4,-110 23,-202 -46,71 -108,137 -170,180 -76,53 -138,74 -190,72 -36,-2 -65,-18 -87,-42 -22,-24 -39,-57 -50,-92zm174 89c12,4 24,7 36,8 17,0 34,-5 52,-17 64,-45 128,-118 174,-197l2 -4c-79,105 -171,193 -264,210zm323 -396c2,-40 -7,-77 -28,-108 -13,-18 -31,-34 -53,-47 -31,-18 -63,-23 -94,-19 -20,2 -44,16 -67,35 -41,34 -77,78 -103,123 -31,56 -49,114 -43,160 21,167 66,224 121,217 41,-5 131,-135 210,-264 20,-33 40,-66 57,-97zm59 429c-10,6 -18,12 -9,6 3,-2 6,-4 9,-6z"/>
 </g>
</svg>
