<?xml version="1.0" encoding="UTF-8"?>
<!DOCTYPE svg PUBLIC "-//W3C//DTD SVG 1.1//EN" "http://www.w3.org/Graphics/SVG/1.1/DTD/svg11.dtd">
<!-- Creator: CorelDRAW X7 -->
<svg xmlns="http://www.w3.org/2000/svg" xml:space="preserve" width="88.3498mm" height="35.3292mm" version="1.1" style="shape-rendering:geometricPrecision; text-rendering:geometricPrecision; image-rendering:optimizeQuality; fill-rule:evenodd; clip-rule:evenodd"
viewBox="0 0 3490 1396"
 xmlns:xlink="http://www.w3.org/1999/xlink">
 <defs>
  <style type="text/css">
   <![CDATA[
    .fil66 {fill:#EBECEC}
    .fil13 {fill:#727271}
    .fil69 {fill:#434242}
    .fil62 {fill:#898778}
    .fil14 {fill:#FFF7B2}
    .fil43 {fill:#FECC00}
    .fil59 {fill:#85202F}
    .fil44 {fill:#E31E24}
    .fil22 {fill:#DBCD67}
    .fil23 {fill:#C7A743}
    .fil29 {fill:#A58E42}
    .fil16 {fill:#64562E}
    .fil12 {fill:#009846}
    .fil6 {fill:#2B2A29;fill-opacity:0.180392}
    .fil0 {fill:#2B2A29;fill-opacity:0.211765}
    .fil3 {fill:#2B2A29;fill-opacity:0.321569}
    .fil8 {fill:#2B2A29;fill-opacity:0.501961}
    .fil65 {fill:#2B2A29;fill-opacity:0.501961}
    .fil40 {fill:url(#id6)}
    .fil41 {fill:url(#id7)}
    .fil52 {fill:url(#id8)}
    .fil53 {fill:url(#id9)}
    .fil37 {fill:url(#id10)}
    .fil24 {fill:url(#id11)}
    .fil58 {fill:url(#id12)}
    .fil49 {fill:url(#id13)}
    .fil20 {fill:url(#id14)}
    .fil36 {fill:url(#id15)}
    .fil39 {fill:url(#id16)}
    .fil47 {fill:url(#id17)}
    .fil50 {fill:url(#id18)}
    .fil42 {fill:url(#id19)}
    .fil35 {fill:url(#id20)}
    .fil33 {fill:url(#id21)}
    .fil68 {fill:url(#id22)}
    .fil30 {fill:url(#id23)}
    .fil51 {fill:url(#id24)}
    .fil45 {fill:url(#id25)}
    .fil61 {fill:url(#id26)}
    .fil34 {fill:url(#id27)}
    .fil46 {fill:url(#id28)}
    .fil60 {fill:url(#id29)}
    .fil31 {fill:url(#id30)}
    .fil38 {fill:url(#id31)}
    .fil55 {fill:url(#id32)}
    .fil17 {fill:url(#id33)}
    .fil48 {fill:url(#id34)}
    .fil57 {fill:url(#id35)}
    .fil9 {fill:url(#id36)}
    .fil19 {fill:url(#id37)}
    .fil4 {fill:url(#id38)}
    .fil54 {fill:url(#id39)}
    .fil28 {fill:url(#id40)}
    .fil5 {fill:url(#id41)}
    .fil10 {fill:url(#id42)}
    .fil21 {fill:url(#id43)}
    .fil64 {fill:url(#id44)}
    .fil11 {fill:url(#id45)}
    .fil2 {fill:url(#id46)}
    .fil27 {fill:url(#id47)}
    .fil15 {fill:url(#id48)}
    .fil25 {fill:url(#id49)}
    .fil67 {fill:url(#id50)}
    .fil32 {fill:url(#id51)}
    .fil1 {fill:url(#id52)}
    .fil18 {fill:url(#id53)}
    .fil26 {fill:url(#id54)}
    .fil56 {fill:url(#id55)}
    .fil63 {fill:url(#id56)}
    .fil7 {fill:url(#id57)}
   ]]>
  </style>
    <mask id="id0">
  <linearGradient id="id1" gradientUnits="userSpaceOnUse" x1="1195.6" y1="558.359" x2="1583.94" y2="575.71">
   <stop offset="0" style="stop-opacity:1; stop-color:white"/>
   <stop offset="1" style="stop-opacity:0; stop-color:white"/>
  </linearGradient>
     <rect style="fill:url(#id1)" x="144" y="391" width="1420" height="219"/>
    </mask>
    <mask id="id2">
  <linearGradient id="id3" gradientUnits="userSpaceOnUse" x1="315.532" y1="463.141" x2="762.211" y2="511.693">
   <stop offset="0" style="stop-opacity:1; stop-color:white"/>
   <stop offset="1" style="stop-opacity:0; stop-color:white"/>
  </linearGradient>
     <rect style="fill:url(#id3)" x="146" y="392" width="629" height="163"/>
    </mask>
    <mask id="id4">
  <linearGradient id="id5" gradientUnits="userSpaceOnUse" x1="3073.77" y1="768.476" x2="2677.96" y2="811.691">
   <stop offset="0" style="stop-opacity:1; stop-color:white"/>
   <stop offset="1" style="stop-opacity:0; stop-color:white"/>
  </linearGradient>
     <rect style="fill:url(#id5)" x="2488" y="489" width="903" height="332"/>
    </mask>
  <linearGradient id="id6" gradientUnits="userSpaceOnUse" x1="2705.5" y1="975.028" x2="2816.65" y2="984.445">
   <stop offset="0" style="stop-opacity:1; stop-color:#DBCD67"/>
   <stop offset="1" style="stop-opacity:1; stop-color:#C7A743"/>
  </linearGradient>
  <linearGradient id="id7" gradientUnits="userSpaceOnUse" xlink:href="#id6" x1="2813.51" y1="1064.49" x2="2937.45" y2="1064.49">
  </linearGradient>
  <linearGradient id="id8" gradientUnits="userSpaceOnUse" x1="2724.58" y1="448.548" x2="3151.43" y2="448.548">
   <stop offset="0" style="stop-opacity:1; stop-color:#513626"/>
   <stop offset="1" style="stop-opacity:1; stop-color:#83632A"/>
  </linearGradient>
  <linearGradient id="id9" gradientUnits="userSpaceOnUse" xlink:href="#id6" x1="2983.04" y1="812.528" x2="2880.93" y2="812.528">
  </linearGradient>
  <linearGradient id="id10" gradientUnits="userSpaceOnUse" xlink:href="#id6" x1="2585.83" y1="719.842" x2="2564.58" y2="758.996">
  </linearGradient>
  <linearGradient id="id11" gradientUnits="userSpaceOnUse" xlink:href="#id6" x1="3316.11" y1="774.804" x2="3272.56" y2="712.274">
  </linearGradient>
  <linearGradient id="id12" gradientUnits="userSpaceOnUse" xlink:href="#id6" x1="2703.47" y1="955.878" x2="2910.87" y2="955.878">
  </linearGradient>
  <linearGradient id="id13" gradientUnits="userSpaceOnUse" xlink:href="#id6" x1="2955.4" y1="265.717" x2="2916.58" y2="264.318">
  </linearGradient>
  <linearGradient id="id14" gradientUnits="userSpaceOnUse" xlink:href="#id6" x1="3192.97" y1="428.454" x2="3224.42" y2="319.142">
  </linearGradient>
  <linearGradient id="id15" gradientUnits="userSpaceOnUse" xlink:href="#id6" x1="2586.65" y1="572.353" x2="2610.67" y2="587.742">
  </linearGradient>
  <linearGradient id="id16" gradientUnits="userSpaceOnUse" xlink:href="#id6" x1="2723.31" y1="835.142" x2="2697.58" y2="829.77">
  </linearGradient>
  <linearGradient id="id17" gradientUnits="userSpaceOnUse" xlink:href="#id6" x1="2961.62" y1="236.363" x2="2911.67" y2="234.732">
  </linearGradient>
  <linearGradient id="id18" gradientUnits="userSpaceOnUse" xlink:href="#id6" x1="2956.97" y1="282.797" x2="2915.34" y2="281.399">
  </linearGradient>
  <linearGradient id="id19" gradientUnits="userSpaceOnUse" xlink:href="#id6" x1="2970.96" y1="176.586" x2="2903.05" y2="170.787">
  </linearGradient>
  <linearGradient id="id20" gradientUnits="userSpaceOnUse" xlink:href="#id6" x1="2527.74" y1="578.598" x2="2556.51" y2="587.15">
  </linearGradient>
  <linearGradient id="id21" gradientUnits="userSpaceOnUse" xlink:href="#id6" x1="2519.58" y1="414.842" x2="2544.51" y2="445.653">
  </linearGradient>
  <linearGradient id="id22" gradientUnits="userSpaceOnUse" x1="3489.86" y1="670.545" x2="3088" y2="759.45">
   <stop offset="0" style="stop-opacity:1; stop-color:#12415F"/>
   <stop offset="1" style="stop-opacity:1; stop-color:#008DD2"/>
  </linearGradient>
  <linearGradient id="id23" gradientUnits="userSpaceOnUse" xlink:href="#id6" x1="2929.73" y1="1059.32" x2="3041.1" y2="1059.32">
  </linearGradient>
  <linearGradient id="id24" gradientUnits="userSpaceOnUse" xlink:href="#id6" x1="2979.86" y1="522.174" x2="2884.33" y2="522.174">
  </linearGradient>
  <linearGradient id="id25" gradientUnits="userSpaceOnUse" xlink:href="#id6" x1="2958.64" y1="199.86" x2="2914.02" y2="199.197">
  </linearGradient>
  <linearGradient id="id26" gradientUnits="userSpaceOnUse" xlink:href="#id6" x1="2607.52" y1="738.119" x2="2629.52" y2="738.119">
  </linearGradient>
  <linearGradient id="id27" gradientUnits="userSpaceOnUse" xlink:href="#id6" x1="2578.9" y1="441.232" x2="2602.01" y2="457.606">
  </linearGradient>
  <linearGradient id="id28" gradientUnits="userSpaceOnUse" xlink:href="#id6" x1="2965.43" y1="215.838" x2="2908.65" y2="213.938">
  </linearGradient>
  <linearGradient id="id29" gradientUnits="userSpaceOnUse" xlink:href="#id6" x1="3164.05" y1="955.878" x2="2956.65" y2="955.878">
  </linearGradient>
  <linearGradient id="id30" gradientUnits="userSpaceOnUse" xlink:href="#id6" x1="2611.61" y1="316.231" x2="2577.25" y2="305.854">
  </linearGradient>
  <linearGradient id="id31" gradientUnits="userSpaceOnUse" xlink:href="#id6" x1="2624.92" y1="840.135" x2="2650.79" y2="840.135">
  </linearGradient>
  <linearGradient id="id32" gradientUnits="userSpaceOnUse" xlink:href="#id6" x1="2999.99" y1="849.959" x2="2862.81" y2="849.959">
  </linearGradient>
  <linearGradient id="id33" gradientUnits="userSpaceOnUse" xlink:href="#id6" x1="3210.93" y1="381.072" x2="3274.14" y2="276.591">
  </linearGradient>
  <linearGradient id="id34" gradientUnits="userSpaceOnUse" xlink:href="#id6" x1="2956.81" y1="251.473" x2="2915.47" y2="250.426">
  </linearGradient>
  <linearGradient id="id35" gradientUnits="userSpaceOnUse" x1="2806.78" y1="811.414" x2="3218.97" y2="819.535">
   <stop offset="0" style="stop-opacity:1; stop-color:#A58E42"/>
   <stop offset="1" style="stop-opacity:1; stop-color:white"/>
  </linearGradient>
  <linearGradient id="id36" gradientUnits="userSpaceOnUse" x1="2226.02" y1="664.722" x2="3346.14" y2="99.0019">
   <stop offset="0" style="stop-opacity:1; stop-color:white"/>
   <stop offset="1" style="stop-opacity:1; stop-color:black"/>
  </linearGradient>
  <linearGradient id="id37" gradientUnits="userSpaceOnUse" xlink:href="#id6" x1="3219.53" y1="500.042" x2="3297.29" y2="450.76">
  </linearGradient>
  <linearGradient id="id38" gradientUnits="userSpaceOnUse" x1="3017.93" y1="758.765" x2="3657.68" y2="904.581">
   <stop offset="0" style="stop-opacity:1; stop-color:#339966"/>
   <stop offset="1" style="stop-opacity:1; stop-color:black"/>
  </linearGradient>
  <linearGradient id="id39" gradientUnits="userSpaceOnUse" xlink:href="#id35" x1="2798.49" y1="834.739" x2="3237.7" y2="855.497">
  </linearGradient>
  <linearGradient id="id40" gradientUnits="userSpaceOnUse" xlink:href="#id6" x1="3045.62" y1="959.366" x2="3154" y2="942.483">
  </linearGradient>
  <linearGradient id="id41" gradientUnits="userSpaceOnUse" x1="3382.41" y1="1097.03" x2="3376.07" y2="466.504">
   <stop offset="0" style="stop-opacity:1; stop-color:#73B784"/>
   <stop offset="0.839216" style="stop-opacity:1; stop-color:#3A5C42"/>
   <stop offset="1" style="stop-opacity:1; stop-color:black"/>
  </linearGradient>
  <linearGradient id="id42" gradientUnits="userSpaceOnUse" xlink:href="#id38" x1="2353.82" y1="504.28" x2="3072.75" y2="504.28">
  </linearGradient>
  <linearGradient id="id43" gradientUnits="userSpaceOnUse" xlink:href="#id6" x1="3251.51" y1="577.239" x2="3359.87" y2="577.239">
  </linearGradient>
  <linearGradient id="id44" gradientUnits="userSpaceOnUse" x1="3081.33" y1="766.73" x2="3250.89" y2="730.456">
   <stop offset="0" style="stop-opacity:1; stop-color:#DBE285"/>
   <stop offset="1" style="stop-opacity:1; stop-color:#33FF66"/>
  </linearGradient>
  <linearGradient id="id45" gradientUnits="userSpaceOnUse" x1="1142.14" y1="456.193" x2="1468.43" y2="433.949">
   <stop offset="0" style="stop-opacity:1; stop-color:#B0CB1F"/>
   <stop offset="1" style="stop-opacity:1; stop-color:#33FF66"/>
  </linearGradient>
  <linearGradient id="id46" gradientUnits="userSpaceOnUse" x1="3461.15" y1="497.834" x2="3199.06" y2="497.834">
   <stop offset="0" style="stop-opacity:1; stop-color:#339966"/>
   <stop offset="0.45098" style="stop-opacity:1; stop-color:#1A4D33"/>
   <stop offset="1" style="stop-opacity:1; stop-color:black"/>
  </linearGradient>
  <linearGradient id="id47" gradientUnits="userSpaceOnUse" xlink:href="#id6" x1="3138.05" y1="860.869" x2="3169.95" y2="813.022">
  </linearGradient>
  <linearGradient id="id48" gradientUnits="userSpaceOnUse" x1="2929.15" y1="336.906" x2="2929.14" y2="186.434">
   <stop offset="0" style="stop-opacity:1; stop-color:#AA203A"/>
   <stop offset="1" style="stop-opacity:1; stop-color:#F6B096"/>
  </linearGradient>
  <linearGradient id="id49" gradientUnits="userSpaceOnUse" xlink:href="#id6" x1="3269.44" y1="758.696" x2="3237.22" y2="712.424">
  </linearGradient>
  <linearGradient id="id50" gradientUnits="userSpaceOnUse" x1="3382.65" y1="592.896" x2="3249.65" y2="618.1">
   <stop offset="0" style="stop-opacity:1; stop-color:#C5C6C6"/>
   <stop offset="1" style="stop-opacity:1; stop-color:#FEFEFE"/>
  </linearGradient>
  <linearGradient id="id51" gradientUnits="userSpaceOnUse" xlink:href="#id6" x1="2671.88" y1="351.557" x2="2637.93" y2="324.767">
  </linearGradient>
  <linearGradient id="id52" gradientUnits="userSpaceOnUse" xlink:href="#id46" x1="2427.63" y1="801.418" x2="2662.52" y2="801.418">
  </linearGradient>
  <linearGradient id="id53" gradientUnits="userSpaceOnUse" xlink:href="#id6" x1="3277.63" y1="462.073" x2="3355.4" y2="412.791">
  </linearGradient>
  <linearGradient id="id54" gradientUnits="userSpaceOnUse" xlink:href="#id6" x1="3184.83" y1="826.721" x2="3243.57" y2="826.721">
  </linearGradient>
  <linearGradient id="id55" gradientUnits="userSpaceOnUse" x1="2740.67" y1="893.106" x2="3367.55" y2="905.225">
   <stop offset="0" style="stop-opacity:1; stop-color:#A58E42"/>
   <stop offset="1" style="stop-opacity:1; stop-color:#FEFEFE"/>
  </linearGradient>
  <linearGradient id="id56" gradientUnits="userSpaceOnUse" xlink:href="#id38" x1="2814.36" y1="714.03" x2="2248.2" y2="843.078">
  </linearGradient>
  <linearGradient id="id57" gradientUnits="userSpaceOnUse" x1="813.91" y1="688.083" x2="3067.09" y2="620.852">
   <stop offset="0" style="stop-opacity:1; stop-color:#008DD2"/>
   <stop offset="1" style="stop-opacity:1; stop-color:black"/>
  </linearGradient>
 </defs>
 <g id="Layer_x0020_1">
  <metadata id="CorelCorpID_0Corel-Layer"/>
  <g id="_2072586120320">
   <path class="fil0" d="M3224 249l3 3c14,-1 17,11 34,32l0 0c17,-17 26,26 28,36l0 0c9,0 10,-1 17,4l0 0c4,2 27,29 24,55 1,1 2,2 3,4l0 0c19,2 15,13 21,40l0 0c20,-6 10,32 8,40l0 0c6,4 7,4 11,11l0 0c3,4 11,40 -7,58 0,1 0,3 1,5l0 0c18,12 8,20 1,51l0 0c24,4 -5,37 -12,44l0 0c5,7 6,8 7,17l0 0c1,4 -8,44 -35,54 12,7 19,23 6,33l0 0c23,27 3,49 -14,49l0 0c-6,22 -3,41 -28,46l0 0c6,19 -5,27 -19,31 2,10 -8,17 -20,28l-2 15c0,2 1,3 1,4 2,1 3,1 5,2 5,7 -2,25 -11,27l0 1 -9 -2c2,1 3,2 5,3l0 1 1 0c1,0 3,0 4,-1 -3,14 -16,6 -22,-3 -3,0 -6,1 -9,2 1,4 0,10 -4,17l0 0c10,19 -6,27 -30,39l0 0c21,18 -25,30 -36,31l0 0c5,27 -18,31 -45,35 4,17 -13,22 -37,30l0 0c19,21 -29,26 -40,26l0 0c2,40 -54,22 -88,31 11,7 32,17 45,25 35,2 8,32 -4,38l-4 -2 0 0c-11,-13 -39,-45 -50,-56 -2,1 17,-6 15,-4l-19 8c-6,5 -25,33 -45,51 -1,2 -2,5 -5,6 -33,-26 -16,-42 -1,-37 0,0 -1,0 -1,0l0 0c-2,-2 -4,-3 -6,-3l0 0c20,-10 36,-19 48,-27 -19,-3 -51,2 -97,-19l0 0c-31,-15 -52,-40 -63,-71 -17,-4 -36,-9 -59,-23 -30,-17 -49,-44 -58,-76 -23,-20 -42,-41 -52,-65 -107,-56 -69,-158 -76,-210 -30,-41 -44,-84 -29,-130 -20,-69 -18,-134 35,-177 -11,-88 83,-92 106,-118l0 0c0,3 1,5 1,8l6 -3c-1,-10 1,-20 4,-31 10,-33 46,-48 77,-40 77,10 99,14 149,16 0,-2 2,-3 3,-3l8 0c-24,-13 -43,-35 -51,-61l1 0c0,0 -1,-1 -1,-1 0,-2 12,-5 31,-6 3,0 5,0 8,0 -30,-44 31,-38 -9,-82 19,2 16,123 32,135 -37,-164 243,-60 107,15l10 0c55,0 96,-6 152,-13 30,-8 67,7 77,40 2,6 3,11 3,17zm-303 888l-1 0 1 -1 0 1zm393 -382l0 1 4 -3 0 0 -4 2zm48 -188l0 0 1 -1 -1 1zm-6 45l0 0 2 -3 0 0 -2 3zm-10 37l-1 1 4 -1 0 0 -3 0zm15 -169l0 1 1 -1 0 0 -1 0zm-64 -142l0 1 1 -3 0 0 -1 2z"/>
   <path class="fil1" d="M2663 855c-61,10 -170,-25 -170,-51 0,-35 0,-52 0,-87 56,20 113,39 170,51 0,35 0,52 0,87z"/>
   <path class="fil2" d="M3199 449c67,-13 189,18 190,44 0,35 0,70 0,105 -64,-17 -127,-34 -190,-44 0,-35 0,-70 0,-105z"/>
   <path class="fil3" d="M3364 883c-29,-25 -108,-49 -209,-72 7,30 2,61 -15,87 33,9 58,17 73,27 5,3 -2,-27 4,-25 56,20 145,63 170,94 -7,92 -53,291 -87,389l69 -113 36 126c22,-163 104,-486 -51,-601 8,30 10,59 10,88z"/>
   <path class="fil4" d="M3407 834c-20,-75 -549,-96 -824,-144l-8 104c320,55 831,24 837,207l25 -117 -30 -50z"/>
   <path class="fil5" d="M3386 812c73,43 -10,210 -13,347 -2,49 -5,100 -8,153l52 -41 65 53 8 -230c-5,-142 -40,-236 -104,-282z"/>
   <g>
    <path class="fil6" d="M3076 588c-1003,7 -2008,-53 -3076,183l0 90c971,-160 2027,-245 3076,-243l0 -30z"/>
    <path class="fil6" d="M3076 471c-970,86 -1955,9 -2940,-37l10 187 2930 -60 0 -90z"/>
   </g>
   <path class="fil7" d="M3076 588c-776,-39 -1691,-28 -2454,27 -254,19 -372,42 -622,71l0 90c1004,-124 2039,-169 3076,-97l0 -91z"/>
   <path class="fil8" d="M3076 471c-990,92 -1973,53 -2930,-79l0 91c997,169 1969,212 2930,78l0 -90z"/>
   <path class="fil9" d="M3076 475c-776,-39 -1691,-28 -2454,27 -254,19 -372,42 -622,71l0 90c1004,-124 2039,-169 3076,-97l0 -91z"/>
   <path class="fil10" d="M3076 471c-742,69 -1481,64 -2208,2 -242,-21 -483,-48 -722,-81l0 91c997,136 1969,177 2930,78l0 -90z"/>
   <path class="fil11" style="mask:url(#id0)" d="M1553 514c-471,-16 -941,-57 -1407,-122l0 91c477,65 949,108 1416,125 -19,-27 -23,-63 -9,-94z"/>
   <path class="fil12" style="mask:url(#id2)" d="M762 464c-206,-20 -412,-44 -616,-72l0 91c210,28 420,53 628,73 -20,-27 -25,-62 -12,-92z"/>
   <path class="fil13" d="M3230 242l3 3c12,-1 15,10 32,30l0 0c16,-16 25,26 27,34l0 0c8,1 9,0 16,5l0 0c3,2 25,27 22,51 1,1 2,3 3,4l0 0c19,3 14,12 20,39l0 0c20,-6 10,30 7,38l0 0c7,4 8,3 11,10l0 0c3,4 10,38 -7,55 1,1 1,3 1,5l0 0c17,12 9,19 1,48l0 0c23,4 -5,36 -11,42l0 0c5,7 6,7 7,16l0 0c0,4 -8,42 -33,51 11,7 18,23 5,32l0 0c22,26 3,46 -13,47l0 0c-6,20 -3,39 -27,43l0 0c6,18 -4,26 -18,29 2,10 -7,17 -18,27l-3 14c1,2 1,3 1,4 2,1 3,2 5,3 5,5 -2,23 -10,25l-1 1 -8 -2c1,1 3,2 5,3l0 0 0 0c2,1 3,1 5,0 -4,13 -16,5 -22,-4 -2,1 -5,2 -8,3 1,4 0,9 -3,16l0 0c9,18 -6,25 -30,37l0 0c21,17 -23,28 -34,30l0 0c6,25 -17,29 -42,33 3,16 -12,21 -35,28l0 0c17,20 -28,25 -38,25l0 0c2,38 -51,21 -84,29 11,7 30,17 43,24 33,2 7,30 -4,36l-3 -1 0 -1c-11,-12 -38,-42 -48,-53 -2,1 -3,2 -5,4l0 0c-5,5 -23,31 -42,48 -1,2 -2,5 -4,6 -32,-25 -16,-40 -2,-35 0,0 0,0 0,-1l0 0c-2,-1 -4,-2 -6,-2l0 0c19,-10 34,-19 45,-26 -17,-2 -48,2 -91,-18l0 0c-30,-14 -50,-38 -61,-68 -15,-3 -34,-8 -56,-21 -28,-16 -46,-42 -54,-72 -23,-19 -41,-40 -50,-62 -102,-53 -65,-150 -72,-199 -28,-39 -42,-81 -28,-124 -19,-66 -17,-127 33,-168 -10,-83 79,-87 101,-112l0 0c0,2 1,5 1,7l6 -3c-1,-9 0,-19 4,-29 9,-31 44,-46 73,-38 73,10 93,13 141,15 1,-1 2,-2 3,-2l8 0c-23,-13 -41,-34 -49,-58l1 0c0,-1 -1,-1 -1,-1 0,-3 12,-5 30,-6 2,0 5,0 8,0 -30,-42 29,-36 -9,-78 18,2 15,117 30,128 -35,-156 231,-57 102,15l9 0c52,0 91,-6 145,-13 29,-8 63,7 73,38 1,6 2,11 3,16zm-288 844l-1 -1 1 0 0 1zm373 -363l0 1 4 -3 0 0 -4 2zm46 -179l0 0 0 0 0 0zm-6 43l0 0 2 -3 0 0 -2 3zm-10 36l0 0 3 -1 0 0 -3 1zm15 -161l0 0 1 -1 0 0 -1 1zm-61 -135l0 0 1 -2 0 0 -1 2z"/>
   <path class="fil14" d="M3214 237l2 3c13,-1 16,10 32,30l0 0c17,-16 26,25 27,34l0 0c8,0 9,0 17,4l0 0c3,2 25,28 22,52 1,1 2,2 3,4l0 0c18,2 14,12 20,38l0 0c19,-6 9,31 7,38l0 0c6,4 7,4 11,11l0 0c2,3 10,37 -7,54 0,2 1,4 1,6l0 0c17,11 8,19 1,48l0 0c23,3 -5,35 -11,42l0 0c5,7 6,7 7,15l0 0c0,5 -9,43 -34,52 11,7 18,22 6,32l0 0c22,25 3,46 -14,46l0 0c-5,21 -2,39 -26,44l0 0c6,17 -5,25 -18,29 2,10 -7,16 -19,27l-2 14c0,1 1,3 1,4 1,0 3,1 5,2 5,6 -2,24 -11,26l0 1 -8 -3c1,1 3,3 4,4l1 0 0 0c1,0 3,0 4,0 -3,12 -15,5 -21,-4 -3,1 -6,2 -9,2 1,4 1,10 -3,17l0 0c10,17 -6,25 -29,37l0 0c21,16 -23,28 -34,29l0 0c5,25 -17,30 -42,34 3,15 -13,20 -36,28l0 0c18,20 -27,24 -38,24l0 0c2,39 -50,21 -84,30 11,6 31,16 44,23 33,2 7,31 -5,37l-3 -2 0 -1c-11,-12 -37,-42 -48,-52 -1,1 -3,2 -4,3l0 0c-5,5 -23,31 -42,48 -1,3 -2,5 -5,7 -32,-25 -15,-40 -1,-35 0,-1 0,-1 -1,-1l0 0c-1,-1 -3,-2 -5,-2l0 0c19,-10 34,-19 45,-26 -18,-3 -48,2 -92,-19l0 0c-30,-14 -49,-38 -60,-67 -16,-3 -34,-8 -56,-21 -29,-17 -47,-42 -55,-73 -22,-18 -40,-39 -50,-62 -101,-53 -65,-149 -72,-199 -28,-39 -41,-80 -27,-124 -19,-65 -17,-127 33,-167 -10,-84 79,-87 100,-112l0 0c1,2 2,4 2,7l5 -3c0,-9 1,-19 4,-29 10,-32 44,-46 73,-38 74,9 94,13 141,15 1,-2 3,-3 4,-3l8 0c-24,-13 -41,-33 -49,-58l1 0c-1,0 -1,-1 -1,-1 0,-2 11,-4 30,-6 2,0 5,1 7,1 -29,-43 29,-37 -8,-78 18,2 23,4 39,15 -9,-37 15,-62 52,-68 -25,33 9,30 17,56 17,-8 29,-11 47,-12 -44,40 16,41 -5,86l2 0c18,2 29,4 29,6 0,1 0,1 -1,2 -8,24 -25,45 -49,57l10 0c1,0 2,1 3,3 48,-2 68,-6 141,-15 29,-8 64,6 73,38 2,5 3,10 4,16zm-289 844l0 -1 0 0 0 1zm374 -363l0 0 4 -2 0 0 -4 2zm46 -179l0 0 0 -1 0 1zm-7 42l0 1 3 -4 0 0 -3 3zm-9 36l0 1 3 -1 0 0 -3 0zm14 -160l0 0 1 -1 0 0 -1 1zm-61 -135l1 0 1 -3 0 0 -2 3z"/>
   <path class="fil15" d="M2709 181c19,12 38,25 47,47l6 36 -4 30 -10 26 -26 22 -29 15 -19 5 -17 3 -26 5 -22 2 -12 0c-4,15 23,33 21,48 -7,43 7,84 2,127 -3,25 14,41 15,65 1,27 -36,64 -27,90l14 40 2 -18 11 -28 23 -16 27 -4 22 6 21 17 11 21 3 27 -8 40 -21 43 -11 30 0 26 47 45 69 51 72 49c24,14 35,14 44,44 9,-30 20,-30 43,-44l73 -49 68 -51 48 -45 -1 -26 -11 -30 -20 -43 -9 -40 3 -27 12 -21 21 -17 22 -6 26 4 23 16 11 28 3 18 13 -40c38,-106 37,-221 12,-330l-12 0 -22 -2 -27 -5 -16 -3 -20 -5 -29 -15 -25 -22 -11 -26 -4 -30 6 -36c10,-22 29,-35 48,-47 -117,14 -112,17 -225,19 -113,-2 -109,-5 -225,-19z"/>
   <polygon class="fil16" points="3195,209 3267,291 3313,358 3346,415 3353,518 3341,597 3305,697 3303,751 3248,834 3240,893 3204,883 3183,939 3128,985 3076,1028 2992,1077 2931,1084 2977,1042 3091,933 3156,842 3128,752 3157,663 3265,534 3249,398 3167,351 3102,243 3150,185 "/>
   <path class="fil17" d="M3197 262c-4,19 6,27 24,32l0 0c-21,16 7,27 20,31l0 0c-6,19 4,27 26,40l0 0c2,19 12,23 23,28l0 0c59,-25 12,-82 7,-85l0 0c-7,-4 -8,-4 -16,-4l0 0c-2,-9 -11,-50 -27,-34l0 0c-19,-24 -20,-35 -40,-28l0 0c-5,-3 -9,-4 -13,-4l0 0c-14,0 -18,17 -4,24zm11 -3c18,14 15,12 33,28l0 0 -7 -26c21,51 -5,9 33,56l0 0c0,-17 1,-10 -3,-28l0 0c14,48 -4,15 19,52l0 0c0,-15 -2,-9 6,-22l0 0c-8,23 -4,26 7,46l0 0c-18,-25 -18,-28 -45,-30l0 0c21,0 12,-2 29,7l0 0c-17,-29 -18,-31 -46,-28l0 0c22,-5 12,-6 30,2l0 0c-25,-28 -22,-30 -51,-30l0 0c19,-2 11,-3 25,2l0 0 -30 -29z"/>
   <path class="fil18" d="M3300 373c-11,14 -6,24 6,35l0 0c-23,4 -6,24 3,33l0 0c-12,12 -8,23 4,43l0 0c-6,15 0,23 7,31l0 0c58,5 44,-60 41,-64l0 0c-4,-7 -5,-7 -11,-11l0 0c2,-7 12,-44 -8,-38l0 0c-6,-26 -1,-36 -20,-38l0 0c-4,-7 -10,-10 -14,-10 -9,0 -14,10 -8,19zm10 2c9,18 8,16 15,36l0 0 5 -23c-4,48 -7,4 3,58l0 0c8,-14 5,-8 9,-24l0 0c-8,44 -9,10 -6,49l0 0c6,-12 2,-8 14,-15l0 0c-16,15 -14,19 -13,39l0 0c-5,-27 -3,-29 -24,-42l0 0c17,9 11,3 20,17l0 0c-1,-29 -1,-32 -25,-41l0 0c19,5 12,1 23,14l0 0c-8,-32 -5,-33 -28,-44l0 0c16,6 10,1 19,11l0 0 -12 -35z"/>
   <path class="fil19" d="M3242 411c-11,14 -6,24 6,35l0 0c-24,4 -6,24 3,33l0 0c-12,12 -8,23 4,43l0 0c-6,15 0,23 7,31l0 0c57,5 43,-60 41,-64l0 0c-4,-7 -5,-7 -12,-11l0 0c3,-7 13,-44 -7,-38l0 0c-6,-26 -1,-36 -20,-38l0 0c-5,-7 -10,-10 -14,-10 -9,0 -14,9 -8,19zm10 2c9,18 7,16 15,36l0 0 5 -23c-4,48 -8,4 3,58l0 0c7,-14 5,-8 9,-24l0 0c-8,44 -10,10 -6,49l0 0c6,-12 2,-8 14,-15l0 0c-16,15 -14,19 -13,39l0 0c-5,-27 -3,-29 -24,-42l0 0c17,9 11,3 20,17l0 0c-2,-29 -1,-32 -25,-41l0 0c19,5 12,1 23,14l0 0c-8,-32 -5,-33 -28,-44l0 0c16,6 10,1 19,11l0 0 -12 -35z"/>
   <path class="fil20" d="M3162 310c-24,-5 -27,19 -9,22l0 0c2,18 12,22 29,21l0 0c-14,20 13,21 26,21l0 0c-1,18 10,22 32,27l0 0c7,16 16,17 27,18 44,-37 -11,-73 -16,-74l0 0c-8,-2 -8,-1 -15,0l0 0c-4,-7 -23,-40 -33,-21l0 0c-15,-11 -22,-19 -30,-19l0 0c-3,0 -6,2 -11,5zm22 12c32,37 -2,8 44,39l0 0c-5,-15 -3,-9 -11,-24l0 0c25,38 1,14 30,40l0 0c-4,-13 -3,-7 0,-21l0 0c-1,21 3,23 18,37l0 0c-22,-16 -23,-18 -46,-13l0 0c18,-6 9,-5 26,-2l0 0c-22,-20 -23,-22 -47,-11l0 0c18,-10 9,-9 26,-7l0 0c-28,-17 -26,-20 -50,-11l0 0c15,-8 8,-7 21,-6l0 0 -34 -16c20,6 17,6 36,15l0 0 -13 -20z"/>
   <path class="fil21" d="M3328 509c-18,9 -18,21 -12,38l0 0c-25,-7 -17,22 -12,35l0 0c-19,6 -20,19 -17,45l0 0c-14,12 -11,23 -8,35l0 0c56,32 72,-39 72,-46l0 0c-1,-8 -2,-8 -6,-15l0 0c6,-7 33,-39 11,-42l0 0c7,-29 16,-37 -2,-48l0 0c-1,-13 -8,-19 -15,-19l0 0c-7,0 -13,7 -11,17zm8 7c1,23 0,20 -2,43l0 0 16 -21c-27,47 -9,1 -24,60l0 0c14,-10 8,-5 20,-20l0 0c-30,41 -14,6 -30,47l0 0c12,-9 6,-6 21,-8l0 0c-22,7 -23,12 -32,33l0 0c9,-30 11,-31 -4,-54l0 0c14,17 10,8 13,27l0 0c12,-31 14,-33 -6,-53l0 0c17,14 12,6 16,25l0 0c8,-36 12,-36 -6,-58l0 0c13,13 10,6 14,20l0 0 4 -41z"/>
   <path class="fil22" d="M3295 637c-17,-2 -30,26 0,29 10,-3 8,-26 0,-29z"/>
   <path class="fil23" d="M3276 657c-23,8 29,32 24,9 -1,1 -3,1 -4,2l0 0 -1 0c-11,-1 -17,-5 -19,-11z"/>
   <path class="fil24" d="M3285 692c-34,-3 -27,17 -29,47l0 0c-37,13 -25,33 -13,61l0 0 13 21c17,-3 35,-10 27,-31l0 0c25,-5 21,-23 27,-44l0 0c16,0 35,-21 13,-46l0 0c17,-13 0,-36 -17,-36 -9,0 -18,8 -21,28zm19 3l-21 32c14,-5 12,-4 25,-11l0 0c-38,24 -25,5 -38,36l0 0c15,-1 7,2 27,-10l0 0c-20,16 -13,11 -27,13l0 0 -8 17c15,-2 8,0 24,-8l0 0c-16,12 -9,8 -25,11l0 0 -6 14c4,-20 6,-10 -5,-31l0 0 10 13c9,-23 7,-11 3,-37l0 0 5 16c13,-28 9,-15 16,-46l0 0 -3 22 23 -31z"/>
   <path class="fil25" d="M3247 697c-26,-2 -21,13 -22,35l0 0c-27,10 -18,25 -9,45l0 0 9 16c13,-2 26,-7 20,-23l0 0c18,-4 16,-17 20,-32l0 0c12,-1 26,-16 10,-35l0 0c12,-9 -1,-26 -13,-26l0 0c-7,0 -13,5 -15,20zm13 3l-15 23c10,-3 9,-3 19,-8l0 0c-29,18 -19,4 -29,27l0 0c11,-1 6,1 20,-8l0 0c-15,12 -9,9 -20,10l0 0 -5 13c10,-2 5,0 17,-6l0 0c-12,9 -7,5 -18,8l0 0 -4 10c2,-15 3,-7 -4,-23l0 0 7 10c6,-17 5,-9 2,-27l0 0 4 12c10,-21 6,-12 11,-35l0 0 -2 17 17 -23z"/>
   <path class="fil26" d="M3229 784c-29,0 -32,24 -23,36l0 0c-10,15 -24,23 -13,41l0 0c-18,8 -13,23 -5,36l0 0 21 -4c25,-7 45,-11 33,-42l0 0c18,-19 35,-26 14,-46l0 0c20,-23 4,-36 -10,-36 -9,0 -17,5 -17,15zm14 11l-7 32 13 -15c-17,23 -11,12 -22,37l0 0 14 -6c-20,12 -12,4 -23,23l0 0 14 -1c-19,5 -12,0 -23,14l0 0 6 -11c-7,-13 -6,-5 -7,-23l0 0c4,15 1,9 8,20l0 0 7 -15c-7,-10 -6,-2 -7,-25l0 0c4,20 1,13 9,24l0 0c13,-27 8,-7 2,-46l0 0c3,13 2,11 7,23l0 0 9 -31z"/>
   <path class="fil27" d="M3132 805c-16,19 -2,34 11,34l0 0c4,16 2,29 20,32l0 0c-5,17 8,22 21,23l9 -16c9,-21 18,-36 -10,-45l0 0c-2,-23 2,-37 -23,-35l0 0c-3,-15 -9,-20 -16,-20l0 0c-12,0 -25,18 -12,27zm14 -4l18 23 -3 -17c6,23 2,14 13,35l0 0 4 -13c-3,20 -4,11 2,28l0 0 7 -10c-7,16 -6,8 -3,24l0 0 -4 -11c-12,-2 -7,1 -19,-8l0 0c12,6 7,4 18,6l0 0 -6 -13c-3,0 -4,0 -5,0l0 0c-5,0 -4,0 -16,-9l0 0c12,7 11,7 16,7l0 0c1,0 2,0 4,0l0 0c-10,-23 0,-9 -29,-26l0 0c10,4 9,4 19,7l0 0 -16 -23z"/>
   <path class="fil28" d="M3192 883l0 0c-12,0 -26,4 -26,4l0 0 -82 65c-16,21 1,30 -49,73l19 0c26,-25 100,-6 91,-50l0 0c10,-1 54,-13 33,-29l0 0c24,-12 39,-20 30,-37l0 0c9,-21 -2,-26 -16,-26zm-30 27c-5,15 -5,13 -8,27l0 0 30 -26 -28 29 23 -7c-32,13 -19,6 -46,25l0 0 18 2c-28,0 -16,-3 -38,10l0 0 15 8c-24,-7 -13,-8 -34,0l0 0 14 -8c1,-17 -2,-9 7,-28l0 0c-5,17 -4,10 -4,26l0 0 17 -11c-1,-16 -5,-7 9,-31l0 0c-10,23 -8,14 -6,30l0 0c30,-20 12,-2 31,-46l0 0z"/>
   <path class="fil29" d="M2883 1120c3,9 9,27 -1,34 -34,-27 -13,-42 1,-34z"/>
   <path class="fil30" d="M3078 976l0 0c-8,0 -15,1 -15,1l0 0 -91 52c-23,22 4,34 -98,87l0 0c2,0 4,1 6,2l0 0c0,0 1,1 1,1l0 0c2,9 5,23 1,32l0 0c20,-17 41,-46 47,-52l0 0c27,-26 102,8 100,-38l0 0c11,0 56,-4 38,-24l0 0c24,-8 41,-14 34,-32l0 0c16,-25 -6,-29 -23,-29zm-23 23c-6,14 -6,12 -11,26l0 0 33 -22 -32 25 24 -3c-33,8 -19,2 -49,17l0 0 17 5c-27,-4 -14,-5 -39,4l0 0 14 10c-23,-10 -12,-9 -33,-5l0 0 14 -6c4,-17 -1,-9 12,-26l0 0c-8,16 -6,9 -9,25l0 0 19 -8c1,-16 -4,-8 13,-30l0 0c-12,21 -9,13 -10,29l0 0c33,-15 12,0 37,-41l0 0z"/>
   <path class="fil31" d="M2544 375c68,-24 117,-62 97,-129l0 0c-23,26 -123,28 -97,129zm86 -99l-20 32 21 -11c-28,18 -17,9 -40,32l0 0 20 -2c-28,6 -17,1 -36,17l0 0 18 4c-27,-1 -16,-4 -34,7l0 0 11 -10c-4,-15 -5,-7 -1,-26l0 0c0,17 -1,10 3,24l0 0 15 -14c-6,-13 -7,-4 -1,-29l0 0c-2,22 -3,14 3,28l0 0c25,-24 12,-4 18,-48l0 0c0,14 -1,12 1,26l0 0 22 -30z"/>
   <path class="fil32" d="M2661 313l-1 0c-34,0 -69,10 -84,68 72,11 132,1 147,-68 -9,4 -23,2 -38,1l0 0c-8,0 -16,-1 -24,-1zm16 14c-7,13 -7,11 -12,24l0 0 34 -17 -33 20 24 0c-33,2 -19,-1 -50,9l0 0 18 8c-28,-9 -15,-8 -40,-3l0 0 14 12c-22,-13 -12,-11 -33,-9l0 0 14 -4c4,-15 0,-9 13,-24l0 0c-9,15 -7,9 -9,23l0 0 19 -5c1,-15 -4,-8 13,-26l0 0c-13,18 -9,11 -10,26l0 0c33,-9 12,2 38,-34l0 0z"/>
   <path class="fil33" d="M2511 538c119,-65 49,-155 58,-199l0 0c-82,42 -84,117 -58,199zm36 -163l-14 46c15,-10 12,-9 26,-22l0 0c-39,43 -28,14 -34,57l0 0c18,-6 9,0 30,-21l0 0c-20,27 -12,18 -30,25l0 0 -3 24c17,-8 10,-3 26,-18l0 0c-16,20 -8,12 -26,22l0 0 -2 19c-3,-26 2,-14 -17,-37l0 0 16 13c2,-31 5,-16 -9,-46l0 0 12 18c7,-40 5,-22 3,-63l0 0 4 29 18 -46z"/>
   <path class="fil34" d="M2595 546c86,-84 5,-145 3,-184 -60,55 -44,120 -3,184zm-7 -148l-2 42c11,-12 9,-10 18,-25l0 0c-23,46 -21,19 -16,57l0 0c14,-9 8,-2 20,-25l0 0c-10,28 -5,19 -19,29l0 0 3 21c13,-11 8,-5 18,-22l0 0c-9,21 -4,13 -17,26l0 0 2 16c-8,-22 -1,-12 -23,-27l0 0 17 7c-5,-28 1,-15 -19,-38l0 0 15 13c-4,-35 0,-20 -12,-54l0 0 10 24 5 -44z"/>
   <path class="fil35" d="M2566 686c77,-111 -25,-160 -36,-203l0 0c-55,73 -23,142 36,203zm-40 -161l8 47c9,-16 7,-14 14,-31l0 0c-16,56 -20,25 -6,66l0 0c14,-13 9,-4 17,-32l0 0c-5,33 -2,21 -14,35l0 0 8 23c11,-14 7,-7 15,-27l0 0c-5,25 -2,15 -14,31l0 0 7 18c-14,-22 -4,-14 -32,-25l0 0 21 4c-13,-29 -3,-17 -30,-37l0 0 20 11c-12,-39 -6,-22 -26,-58l0 0 17 24 -5 -49z"/>
   <path class="fil36" d="M2606 676c84,-86 1,-144 -3,-184l0 0c-58,57 -40,121 3,184zm-12 -148l0 43c10,-13 8,-11 17,-26l0 0c-22,47 -21,20 -15,58l0 0c14,-10 9,-2 20,-26l0 0c-10,28 -5,18 -18,29l0 0 4 21c12,-11 7,-5 17,-22l0 0c-8,21 -4,13 -17,26l0 0 3 17c-8,-22 -1,-13 -24,-27l0 0 18 6c-7,-27 0,-15 -20,-37l0 0 15 13c-5,-36 -1,-20 -14,-55l0 0 11 24 3 -44z"/>
   <path class="fil37" d="M2608 849c11,-91 -1,-173 -75,-208l0 0c14,46 -34,152 75,208zm-52 -172l21 48 0 -32c3,45 0,26 10,68l0 0 9 -21c-9,34 -8,17 -3,51l0 0 13 -16c-14,27 -11,13 -10,42l0 0 -4 -20c-16,-9 -9,-1 -25,-21l0 0c16,14 9,10 24,16l0 0 -6 -26c-15,-5 -7,4 -28,-24l0 0c20,22 12,16 28,20l0 0c-10,-45 2,-15 -36,-57l0 0c13,12 11,11 25,20l0 0 -18 -48z"/>
   <path class="fil38" d="M2671 921c48,-102 -43,-128 -58,-162 -35,68 1,120 58,162zm-55 -127l13 38c5,-14 3,-12 7,-28l0 0c-6,48 -13,24 4,55l0 0c9,-13 7,-4 10,-29l0 0c0,28 1,18 -8,32l0 0 10 17c8,-13 5,-6 9,-24l0 0c-1,21 0,12 -7,27l0 0 8 14c-15,-16 -5,-11 -30,-16l0 0 18 0c-14,-22 -5,-13 -29,-26l0 0 17 6c-15,-30 -7,-17 -29,-44l0 0 17 18 -10 -40z"/>
   <path class="fil39" d="M2673 898c55,-29 91,-70 70,-132l0 0c-17,27 -99,39 -70,132zm63 -103l-14 33 17 -13c-22,21 -14,11 -30,35l0 0 15 -4c-22,8 -13,2 -28,19l0 0 15 2c-21,2 -13,-2 -27,11l0 0 8 -11c-4,-14 -4,-6 -2,-25l0 0c1,16 -1,10 4,23l0 0 11 -15c-6,-12 -6,-3 -3,-27l0 0c0,21 -1,14 5,26l0 0c18,-25 9,-5 11,-47l0 0c1,13 0,11 2,24l0 0 16 -31z"/>
   <path class="fil22" d="M2863 1079l-2 -2c0,-15 -1,-23 7,-35 31,4 6,31 -5,37z"/>
   <path class="fil40" d="M2711 983c51,29 86,20 100,29l0 0c3,3 37,49 48,62 0,-13 0,-21 7,-33l0 0 1 -1 1 0c1,0 1,0 2,0 -14,-8 -37,-23 -46,-30l0 0c-45,-35 -16,-64 -110,-109l0 0c-26,-12 -33,-13 -62,-16l0 0c4,41 23,77 59,98zm-39 -79c-1,-1 -1,-1 0,-2l0 0c0,0 1,0 1,0l0 0c11,12 19,21 27,29l0 0 -3 -17c0,-1 0,-1 1,-1l0 0c1,0 1,0 1,1l0 0 4 19c0,0 0,0 0,0l0 0c11,11 20,18 28,23l0 0c-1,-4 -2,-7 -3,-10l0 0c-2,-4 -2,-8 -3,-12l0 0c0,0 1,-1 1,-1l0 0c1,0 1,0 1,1l0 0c1,3 2,8 3,11l0 0c1,4 3,8 4,12l0 0c0,0 0,0 0,0l0 0c7,4 13,7 19,10l0 0 -5 -19c0,-1 1,-1 1,-2l0 0c1,0 1,1 1,1l0 0 6 21c10,5 21,10 35,18l0 0c0,0 0,1 0,2l0 0c0,0 -1,0 -1,0l0 0c-12,-7 -21,-11 -29,-15l0 0c0,0 0,0 -1,0l0 0c-3,1 -7,1 -10,2l0 0c-3,1 -7,2 -10,4l0 0c0,0 -1,0 -1,-1l0 0c0,-1 0,-1 0,-1l0 0c3,-2 7,-4 10,-4l0 0c3,-1 6,-1 9,-1l0 0c-8,-4 -15,-7 -22,-11l0 0c0,0 -1,0 -1,0l0 0c-4,0 -9,1 -13,0l0 0c-4,0 -10,-1 -14,-2l0 0c0,0 -1,-1 -1,-2l0 0c0,0 1,-1 2,0l0 0c3,0 6,1 9,2l0 0c1,0 3,0 4,0l0 0c3,1 7,0 10,0l0 0c-8,-5 -17,-11 -28,-21l0 0c0,0 -1,0 -1,0l0 0c-12,-2 -16,-2 -26,-8l0 0c-1,-1 -1,-1 -1,-2l0 0c1,0 1,-1 2,0l0 0c10,6 13,6 24,7l0 0c-9,-8 -19,-18 -30,-31l0 0z"/>
   <path class="fil29" d="M2984 1151l-3 -2c-1,-15 -3,-22 5,-35 37,1 10,31 -2,37z"/>
   <path class="fil41" d="M2762 979l-1 0c7,41 29,74 67,92l0 0c53,25 87,13 101,21l0 0c4,3 42,45 53,58l0 0c-1,-13 -2,-21 5,-34l0 0 1 -1 1 0c0,0 1,0 1,0l0 0c-14,-7 -38,-19 -48,-26l0 0c-48,-31 -21,-63 -119,-100l0 0c-26,-9 -34,-10 -61,-10zm19 17c0,0 0,-1 0,-2l0 0c1,0 1,0 2,0l0 0c11,11 21,20 29,27l0 0 -4 -17c0,-1 0,-1 0,-2l0 0c1,0 2,1 2,1l0 0 5 20c0,0 0,0 0,0l0 0c12,9 21,15 30,20l0 0c-1,-4 -3,-7 -4,-10l0 0c-2,-4 -3,-8 -4,-11l0 0c0,-1 1,-2 1,-2l0 0c1,0 1,1 1,1l0 0c1,4 2,8 4,11l0 0c1,4 3,8 5,12l0 0c0,0 0,0 0,0l0 0c7,3 13,6 20,8l0 0 -6 -19c-1,0 0,-1 0,-1l0 0c1,0 1,0 2,1l0 0 7 20c10,4 21,8 36,15l0 0c1,0 1,1 1,1l0 0c-1,1 -1,1 -2,1l0 0c-12,-6 -21,-10 -30,-13l0 0c0,1 0,1 0,1l0 0c-3,1 -8,1 -11,2l0 0c-3,1 -6,3 -9,5l0 0c0,0 -1,0 -1,-1l0 0c-1,0 0,-1 0,-1l0 0c3,-2 7,-4 9,-5l0 0c3,-1 6,-1 9,-2l0 0c-8,-3 -15,-5 -23,-8l0 0c0,0 0,0 0,0l0 0c-4,0 -10,1 -14,1l0 0c-4,0 -9,-1 -14,-2l0 0c0,0 -1,0 -1,-1l0 0c1,0 1,-1 2,-1l0 0c3,1 6,1 9,2l0 0c1,0 3,0 4,0l0 0c3,0 7,-1 10,-1l0 0c-8,-4 -18,-10 -30,-19l0 0c0,0 0,0 0,0l0 0c-12,-1 -16,0 -27,-6l0 0c-1,0 -1,-1 -1,-1l0 0c1,-1 1,-1 2,-1l0 0c10,5 14,5 24,6l0 0c-9,-7 -20,-17 -33,-29l0 0z"/>
   <path class="fil42" d="M3037 137c-12,42 -54,73 -104,73 -50,0 -92,-31 -104,-73l208 0z"/>
   <path class="fil43" d="M2857 53c18,2 24,4 39,15 -8,-37 15,-62 53,-68 -25,33 9,30 16,56 17,-8 29,-11 47,-12 -44,40 17,41 -5,88 -82,10 -54,9 -139,2 -35,-46 28,-38 -11,-81z"/>
   <path class="fil44" d="M2882 78c12,20 18,33 44,36 -34,-22 -11,-34 -12,-68 -1,-14 3,-17 13,-26 -11,33 30,19 17,61 -7,23 12,31 30,36 -17,-21 -13,-40 11,-52 -19,39 32,34 9,69 -69,9 -52,11 -115,-2 -13,-24 -10,-33 3,-54z"/>
   <path class="fil22" d="M3009 130c19,2 30,4 30,6 0,5 -47,9 -105,9 -58,0 -105,-4 -105,-9 0,-2 11,-4 29,-6 19,2 46,3 76,3 29,0 56,-1 75,-3z"/>
   <path class="fil45" d="M2865 204l137 0 0 -2c0,-4 -2,-7 -4,-7l-129 0c-2,0 -4,3 -4,7l0 2z"/>
   <path class="fil46" d="M2846 227l175 0 0 -4c0,-11 -7,-20 -16,-20l-142 0c-9,0 -17,9 -17,20l0 4z"/>
   <path class="fil47" d="M2857 225l154 0 0 4c0,9 -7,17 -15,17l-125 0c-8,0 -14,-8 -14,-17l0 -4z"/>
   <path class="fil48" d="M2870 244l127 0 0 4c0,5 -2,9 -4,9l-119 0c-2,0 -4,-4 -4,-9l0 -4z"/>
   <path class="fil49" d="M2879 256l109 0c3,0 5,3 5,8l0 2c0,4 -2,8 -5,8l-109 0c-3,0 -5,-4 -5,-8l0 -2c0,-5 2,-8 5,-8z"/>
   <path class="fil50" d="M2874 273l119 0c3,0 5,4 5,8l0 2c0,4 -2,8 -5,8l-119 0c-2,0 -4,-4 -4,-8l0 -2c0,-4 2,-8 4,-8z"/>
   <polygon class="fil51" points="2993,290 2874,290 2854,790 3014,790 "/>
   <path class="fil29" d="M2890 790l-17 0 14 -465c0,-2 2,-4 5,-4l1 0c1,0 2,0 3,1 1,1 1,2 1,3l-7 465z"/>
   <path class="fil29" d="M2977 790l18 0 -15 -465c0,-2 -2,-4 -4,-4l-1 0c-1,0 -2,0 -3,1 -1,1 -2,2 -2,3l7 465z"/>
   <path class="fil29" d="M2921 790l25 0 -5 -463c0,-3 -3,-6 -7,-6l-1 0c-3,0 -6,3 -6,6l-6 463z"/>
   <polygon class="fil22" points="2715,366 3161,366 3161,531 2715,531 "/>
   <polygon class="fil29" points="2725,374 3151,374 3151,523 2725,523 "/>
   <polygon class="fil52" points="3151,374 2725,374 2725,523 2734,523 2734,384 3151,384 "/>
   <path class="fil53" d="M2848 821l171 0 0 -2c0,-8 -4,-14 -10,-14l-151 0c-5,0 -10,6 -10,14l0 2z"/>
   <path class="fil54" d="M2838 837l191 0 0 -4c0,-7 -3,-12 -6,-12l-178 0c-4,0 -7,5 -7,12l0 4z"/>
   <path class="fil55" d="M2819 866l229 0 0 -8c0,-12 -9,-22 -21,-22l-186 0c-12,0 -22,10 -22,22l0 8z"/>
   <path class="fil56" d="M2798 887l272 0 0 -2c0,-11 -8,-19 -17,-19l-239 0c-9,0 -16,8 -16,19l0 2z"/>
   <path class="fil57" d="M2854 789l159 0c6,0 10,6 10,13l0 4 -179 0 0 -4c0,-7 5,-13 10,-13z"/>
   <path class="fil58" d="M2754 876c6,21 -24,48 -47,23l0 0c48,61 91,105 165,133l0 0c23,9 47,10 42,-22l0 0 -5 -19c-45,-4 -121,-66 -148,-103l0 0 -8 -14c0,1 0,2 1,2zm-51 18l1 1 -1 -1 0 0z"/>
   <path class="fil23" d="M2690 744c-49,-7 -1,-58 21,-17 27,49 -62,82 -88,17 -32,-80 114,-116 127,-9 7,62 -73,132 -35,159 8,5 19,5 25,-9 -23,31 -39,-33 -1,-24 10,2 13,9 15,15 6,21 -26,50 -49,20 -34,-43 65,-122 19,-188 -42,-61 -120,6 -72,46 14,12 38,14 38,-10z"/>
   <path class="fil59" d="M3152 272c23,-10 11,-33 -2,-35 -32,-7 -44,49 -2,65 36,14 75,-27 58,-81 -13,-44 -75,-55 -103,-17 -12,16 -21,41 -13,76 19,80 99,93 171,92 -60,-5 -140,-14 -157,-92 -5,-23 1,-40 7,-53 23,-46 96,-30 78,30 -5,16 -18,30 -37,15z"/>
   <path class="fil22" d="M2751 236c9,17 5,55 -6,70l-52 -1c1,-1 12,-1 14,-2 14,-6 27,-17 29,-33 2,-12 -14,-26 -24,-33 -4,-3 37,-1 39,-1z"/>
   <path class="fil22" d="M2707 271c-6,-3 -11,-7 -10,-15 0,-9 3,-16 12,-18 2,0 5,1 7,1l37 -3c-1,-2 -5,-9 -6,-11 -21,-44 -98,-29 -80,29 5,15 12,37 40,17z"/>
   <path class="fil22" d="M2668 727l-9 -37c11,-7 25,-9 39,-3l12 37c-6,-7 -15,-14 -25,-12 -7,2 -14,8 -17,15z"/>
   <path class="fil29" d="M2691 745c-9,-2 -24,-6 -23,-18l-9 -38c-19,13 -37,45 -7,66 11,10 37,15 39,-10z"/>
   <path class="fil60" d="M3106 888c-27,37 -102,99 -148,103l0 0 -5 19c-5,32 20,31 42,22l0 0c75,-28 118,-72 165,-133l0 0c-22,25 -52,-2 -46,-23l0 0c0,0 0,-1 1,-2l-9 14zm58 6l0 1 0 -1 0 0z"/>
   <path class="fil23" d="M3162 272c22,-10 10,-33 -3,-35 -31,-7 -43,49 -2,65 37,14 76,-27 59,-81 -14,-44 -76,-55 -104,-17 -11,16 -21,41 -12,76 19,80 98,93 170,92 -59,-5 -139,-14 -156,-92 -5,-23 0,-40 7,-53 22,-46 96,-30 77,30 -5,16 -18,30 -36,15z"/>
   <path class="fil23" d="M3177 744c50,-7 1,-58 -21,-17 -26,49 62,82 89,17 32,-80 -115,-116 -127,-9 -7,62 72,132 34,159 -8,5 -18,5 -24,-9 23,31 39,-33 0,-24 -9,2 -12,9 -14,15 -6,21 26,50 49,20 33,-43 -65,-122 -19,-188 42,-61 120,6 72,46 -14,12 -39,14 -39,-10z"/>
   <path class="fil22" d="M3150 236l-34 0c-10,24 -7,48 7,70l46 -1c-1,-1 -3,-1 -4,-1 -18,-6 -31,-18 -33,-34 -2,-12 3,-26 15,-33 1,0 2,0 3,-1z"/>
   <path class="fil29" d="M3161 272c6,-4 13,-9 13,-17 -2,-14 -11,-19 -23,-18l-35 0c15,-39 44,-45 64,-34 40,22 19,97 -19,69z"/>
   <path class="fil22" d="M3199 729l10 -39c-11,-7 -26,-9 -40,-3l-11 37c6,-7 15,-14 26,-12 7,2 13,9 15,17z"/>
   <path class="fil29" d="M3177 744c9,-1 20,-6 22,-15l10 -39c22,12 33,45 6,65 -13,12 -39,12 -38,-11z"/>
   <path class="fil61" d="M2646 807c41,-86 -36,-109 -49,-138 -29,58 1,102 49,138zm-46 -108l11 32c4,-12 3,-10 6,-23l0 0c-5,40 -11,20 4,47l0 0c7,-11 5,-4 8,-25l0 0c0,24 1,15 -7,26l0 0 9 16c6,-12 4,-6 7,-22l0 0c-1,19 0,11 -6,24l0 0 7 12c-12,-14 -5,-9 -25,-14l0 0 15 0c-12,-19 -4,-11 -25,-22l0 0 15 5c-13,-25 -6,-15 -25,-37l0 0 15 15 -9 -34z"/>
   <path class="fil22" d="M2656 291c5,0 9,4 9,9 0,6 -4,10 -9,10 -6,0 -10,-4 -10,-10 0,-5 4,-9 10,-9z"/>
   <path class="fil22" d="M2565 505c5,0 10,4 10,9 0,6 -5,10 -10,10 -6,0 -10,-4 -10,-10 0,-5 4,-9 10,-9z"/>
   <path class="fil22" d="M2583 654c6,0 10,5 10,10 0,6 -4,10 -10,10 -5,0 -10,-4 -10,-10 0,-5 5,-10 10,-10z"/>
   <path class="fil22" d="M2673 791c5,0 10,5 10,10 0,5 -5,10 -10,10 -6,0 -10,-5 -10,-10 0,-5 4,-10 10,-10z"/>
   <path class="fil22" d="M3280 324c-15,7 -12,38 15,25 7,-7 -6,-26 -15,-25z"/>
   <path class="fil23" d="M3274 352c-15,18 41,12 25,-5 -1,1 -1,2 -2,4l-1 0 0 0c-10,5 -17,4 -22,1z"/>
   <path class="fil22" d="M3317 472c-17,-2 -30,26 0,29 10,-3 8,-26 0,-29z"/>
   <path class="fil23" d="M3298 492c-23,8 29,32 24,8 -1,1 -3,2 -4,3l-1 0 0 0c-11,-1 -17,-5 -19,-11z"/>
   <path class="fil22" d="M3178 786c-16,5 -15,36 13,25 7,-6 -4,-26 -13,-25z"/>
   <path class="fil23" d="M3170 812c-17,17 40,16 25,-3 -1,2 -1,3 -3,4l0 0 0 0c-10,4 -18,3 -22,-1z"/>
   <path class="fil22" d="M3250 866c-14,-9 -39,10 -13,26 9,2 19,-19 13,-26z"/>
   <path class="fil23" d="M3224 876c-24,-4 10,41 17,18 -2,0 -3,0 -5,0l0 0 0 0c-10,-6 -13,-13 -12,-18z"/>
   <path class="fil59" d="M2718 272c-23,-10 -11,-33 2,-35 32,-7 44,49 2,65 -36,14 -75,-27 -58,-81 13,-44 75,-55 103,-17 12,16 21,41 13,76 -19,80 -99,93 -171,92 60,-5 140,-14 157,-92 5,-23 -1,-40 -7,-53 -23,-46 -96,-30 -78,30 5,16 18,30 37,15z"/>
   <path class="fil23" d="M2706 272c-23,-10 -10,-33 2,-35 32,-7 44,49 3,65 -37,14 -76,-27 -59,-81 13,-44 75,-55 103,-17 12,16 21,41 13,76 -19,80 -99,93 -171,92 60,-5 140,-14 157,-92 5,-23 -1,-40 -7,-53 -23,-46 -96,-30 -78,30 5,16 19,30 37,15z"/>
   <path class="fil3" d="M2548 714c183,-47 481,-92 664,-139 74,-15 185,-36 179,-85l0 97c-15,136 -720,149 -840,226l-3 -99z"/>
   <path class="fil62" d="M2492 671c15,-72 355,-87 609,-116 100,-10 264,-29 288,-70l1 47 -70 98c-73,29 -149,39 -227,44 -246,20 -535,13 -594,140 -3,-3 -6,-5 -10,-8l3 -135z"/>
   <path class="fil63" d="M2492 676c18,-85 493,-89 739,-134 66,-8 165,-17 160,-74l0 111c-5,59 -92,77 -153,83 -262,47 -669,5 -739,158 -3,-2 -6,-5 -10,-8l3 -136z"/>
   <path class="fil64" style="mask:url(#id4)" d="M2492 676c15,-72 355,-86 609,-116 100,-10 264,-29 288,-69l1 46 -70 98c-73,29 -149,39 -227,44 -246,21 -535,14 -594,141 -3,-3 -6,-6 -10,-9l3 -135z"/>
   <g>
    <path class="fil65" d="M3103 657c72,-29 266,-96 294,-151l4 1c0,123 -14,162 -190,226 -32,14 -66,28 -100,41 0,-18 66,-66 66,-87 0,-21 -37,-24 -74,-30z"/>
    <path class="fil66" d="M3103 612c72,-18 266,-56 294,-107l4 2c0,123 -14,160 -190,197 -32,10 -66,23 -101,31 7,-18 67,-61 67,-82 0,-21 -66,-24 -74,-41z"/>
    <path class="fil67" d="M3103 618c72,-18 266,-56 294,-107l4 2c0,122 -14,159 -190,197 -32,9 -66,18 -100,26 18,-20 59,-59 66,-77 -12,-11 -51,-30 -74,-41z"/>
   </g>
   <g>
    <path class="fil65" d="M3205 735c45,-29 168,-96 186,-151l3 1c0,123 -9,161 -121,226 -20,14 -42,27 -64,41 0,-18 43,-67 43,-87 0,-21 -43,-15 -47,-30z"/>
    <path class="fil66" d="M3205 690c45,-18 168,-56 186,-107l3 2c0,123 -9,159 -121,197 -20,9 -42,23 -64,31 4,-19 43,-61 43,-82 0,-21 -43,-24 -47,-41z"/>
    <path class="fil68" d="M3205 695c45,-18 168,-56 186,-107l3 2c0,123 -9,160 -121,197 -20,10 -42,18 -64,26 12,-20 38,-58 43,-77 -8,-10 -33,-29 -47,-41z"/>
   </g>
   <g>
    <path class="fil69" d="M2876 493l-28 0 0 -9 4 1 -1 -6c-7,8 -16,17 -26,13 -11,-4 -13,-20 -12,-30 2,-15 10,-29 22,-37l-2 -9c-1,-2 -2,-3 -4,-3l-3 0 0 -8 29 0 0 8 -3 0 20 70c0,1 0,1 1,1l4 0 0 -71 -3 0 0 -8 25 0 0 8 -3 0 0 18c4,-9 9,-18 15,-22 5,-3 10,-4 15,-3l3 0 -1 21 -3 -1c-13,-3 -21,11 -25,21 21,4 25,22 31,42l1 4 -29 0 0 -3c-1,0 -1,-1 -1,-2 0,-5 2,-8 2,-13 0,-5 -4,-10 -8,-14l0 23 3 0 0 9 -3 0 0 0 -19 0 0 0 -1 0zm177 -80l-3 0 0 71 3 0 0 9 -3 0 0 0 -19 0 0 0 -4 0 0 -9 4 0 0 -30 -17 0 0 30 3 0 0 9 -3 0 0 0 -19 0 0 0 -3 0 0 -9 3 0 0 -71 -3 0 0 -8 25 0 0 8 -3 0 0 31 17 0 0 -31 -4 0 0 -8 26 0 0 0 38 0 0 30c11,-1 21,1 29,9 7,7 11,18 9,28 -4,19 -25,22 -41,21 -11,-2 -19,-10 -19,-21l0 -44 -16 0 0 -15zm-250 32c7,6 10,10 10,21 0,15 -14,27 -29,27 -19,0 -27,-17 -29,-34l0 -3 21 1 -1 3c0,6 -1,23 9,23 2,0 4,-2 5,-4 3,-7 4,-15 0,-21 -1,-2 -4,-7 -7,-7l-4 1 0 -9 2 -1c7,-3 11,-9 10,-17 0,-3 -3,-10 -7,-10 -1,0 -3,0 -4,1 -3,3 -3,13 -3,17l0 3 -20 1 0 -4c3,-15 10,-28 27,-28 3,0 6,0 8,1 8,2 14,8 17,15 4,9 1,17 -5,24zm156 -40c38,29 50,66 1,90l-2 0 -1 0c-17,-11 -36,-29 -33,-51 1,-19 17,-32 32,-40l2 0 1 1zm133 44c0,5 0,10 0,16 0,3 1,15 4,17 2,0 3,0 4,-1 3,-2 6,-11 6,-15 1,-10 -6,-15 -14,-17zm-130 -24c-22,14 -29,33 -7,52 19,-17 28,-32 7,-52zm-116 40l-7 -27c-4,5 -6,10 -8,17 -1,5 -1,19 6,20 4,1 7,-5 9,-8l0 -2z"/>
    <path class="fil14" d="M2777 441l0 3c3,-1 21,10 10,32 -1,3 -4,6 -8,6 -6,0 -14,-6 -11,-26l-14 -1c2,24 14,31 26,31 13,0 25,-9 25,-24 0,-12 -3,-14 -11,-20 19,-19 2,-38 -15,-38 -11,0 -21,6 -24,26l14 -1c0,-15 1,-21 10,-21 10,0 18,24 -2,33zm274 -37l6 0 5 0 5 0 7 0 10 0 0 31c43,-11 59,57 0,51 0,0 -17,-2 -17,-17l0 -61 -5 0 0 13 -11 0 0 -17zm34 37c0,6 -4,47 12,39 3,-1 23,-32 -12,-39zm-59 45l3 0 0 0 13 0 0 0 3 0 0 -2 0 0c-2,0 -3,-2 -3,-3l0 -72c0,-1 1,-3 3,-3l0 0 0 -2 -3 0 -13 0 -3 0 0 2 0 0c2,0 3,2 3,3l0 34 -23 0 0 -34c0,-1 2,-3 3,-3l0 0 0 -2 -3 0 -13 0 -3 0 0 2 1 0c1,0 2,2 2,3l0 72c0,1 -1,3 -2,3l-1 0 0 2 3 0 0 0 13 0 0 0 3 0 0 -2 0 0c-1,0 -3,-2 -3,-3l0 -34 23 0 0 34c0,1 -1,3 -3,3l0 0 0 2zm-73 -83c-40,21 -42,57 1,85 44,-21 39,-54 -1,-85zm5 14c-25,16 -35,39 -8,60 22,-18 34,-36 8,-60zm-82 -13l13 0 3 0 0 2 -1 0c-1,0 -2,2 -2,3l0 33c11,-24 13,-39 33,-37l-1 14c-16,-3 -24,13 -30,27 22,2 26,16 32,40l-22 0c-2,-8 10,-16 -10,-33l-2 -3 0 31c0,1 1,3 2,3l1 0 0 2 -3 0 0 0 -13 0 0 0 -3 0 0 -2 0 0c2,0 3,-2 3,-3l0 -72c0,-1 -1,-3 -3,-3l0 0 0 -2 3 0zm-52 0l5 0 14 0 5 0 0 2 -1 0c-1,0 -2,1 -2,2 -1,0 -1,1 -1,2l20 71c1,1 3,3 4,3l1 0 0 2 -3 0 -14 0 -5 0 0 -2 1 0c1,0 2,-1 2,-2 1,0 1,-1 1,-2l-4 -12c-33,52 -54,-20 -13,-46l-3 -10c-1,-4 -3,-6 -6,-6l-1 0 0 -2zm21 57l-9 -32c-6,5 -10,11 -12,22 -5,22 11,32 20,14l1 -4z"/>
   </g>
  </g>
 </g>
</svg>
