<?xml version="1.0" encoding="UTF-8"?>
<!DOCTYPE svg PUBLIC "-//W3C//DTD SVG 1.1//EN" "http://www.w3.org/Graphics/SVG/1.1/DTD/svg11.dtd">
<!-- Creator: CorelDRAW X7 -->
<svg xmlns="http://www.w3.org/2000/svg" xml:space="preserve" width="86.2537mm" height="30.7398mm" version="1.1" style="shape-rendering:geometricPrecision; text-rendering:geometricPrecision; image-rendering:optimizeQuality; fill-rule:evenodd; clip-rule:evenodd"
viewBox="0 0 3716 1324"
 xmlns:xlink="http://www.w3.org/1999/xlink">
 <defs>
  <style type="text/css">
   <![CDATA[
    .fil63 {fill:#EBECEC}
    .fil10 {fill:#727271}
    .fil66 {fill:#434242}
    .fil59 {fill:#898778}
    .fil11 {fill:#FFF7B2}
    .fil39 {fill:#FECC00}
    .fil55 {fill:#85202F}
    .fil40 {fill:#E31E24}
    .fil19 {fill:#DBCD67}
    .fil20 {fill:#C7A743}
    .fil13 {fill:#A58E42}
    .fil9 {fill:#009846}
    .fil3 {fill:#2B2A29;fill-opacity:0.180392}
    .fil0 {fill:#2B2A29;fill-opacity:0.211765}
    .fil58 {fill:#2B2A29;fill-opacity:0.321569}
    .fil5 {fill:#2B2A29;fill-opacity:0.501961}
    .fil62 {fill:#2B2A29;fill-opacity:0.501961}
    .fil36 {fill:url(#id6)}
    .fil37 {fill:url(#id7)}
    .fil48 {fill:url(#id8)}
    .fil49 {fill:url(#id9)}
    .fil33 {fill:url(#id10)}
    .fil21 {fill:url(#id11)}
    .fil53 {fill:url(#id12)}
    .fil54 {fill:url(#id13)}
    .fil45 {fill:url(#id14)}
    .fil35 {fill:url(#id15)}
    .fil46 {fill:url(#id16)}
    .fil43 {fill:url(#id17)}
    .fil28 {fill:url(#id18)}
    .fil47 {fill:url(#id19)}
    .fil41 {fill:url(#id20)}
    .fil57 {fill:url(#id21)}
    .fil30 {fill:url(#id22)}
    .fil42 {fill:url(#id23)}
    .fil56 {fill:url(#id24)}
    .fil27 {fill:url(#id25)}
    .fil23 {fill:url(#id26)}
    .fil51 {fill:url(#id27)}
    .fil67 {fill:url(#id28)}
    .fil44 {fill:url(#id29)}
    .fil6 {fill:url(#id30)}
    .fil25 {fill:url(#id31)}
    .fil15 {fill:url(#id32)}
    .fil65 {fill:url(#id33)}
    .fil50 {fill:url(#id34)}
    .fil7 {fill:url(#id35)}
    .fil2 {fill:url(#id36)}
    .fil14 {fill:url(#id37)}
    .fil8 {fill:url(#id38)}
    .fil61 {fill:url(#id39)}
    .fil24 {fill:url(#id40)}
    .fil12 {fill:url(#id41)}
    .fil17 {fill:url(#id42)}
    .fil32 {fill:url(#id43)}
    .fil38 {fill:url(#id44)}
    .fil31 {fill:url(#id45)}
    .fil29 {fill:url(#id46)}
    .fil34 {fill:url(#id47)}
    .fil18 {fill:url(#id48)}
    .fil1 {fill:url(#id49)}
    .fil22 {fill:url(#id50)}
    .fil26 {fill:url(#id51)}
    .fil52 {fill:url(#id52)}
    .fil16 {fill:url(#id53)}
    .fil60 {fill:url(#id54)}
    .fil4 {fill:url(#id55)}
    .fil64 {fill:url(#id56)}
   ]]>
  </style>
   <mask id="id0">
  <linearGradient id="id1" gradientUnits="userSpaceOnUse" x1="1303.9" y1="608.937" x2="1727.41" y2="627.86">
   <stop offset="0" style="stop-opacity:1; stop-color:white"/>
   <stop offset="1" style="stop-opacity:0; stop-color:white"/>
  </linearGradient>
    <rect style="fill:url(#id1)" x="157" y="426" width="1548" height="238"/>
   </mask>
   <mask id="id2">
  <linearGradient id="id3" gradientUnits="userSpaceOnUse" x1="344.114" y1="505.094" x2="831.254" y2="558.044">
   <stop offset="0" style="stop-opacity:1; stop-color:white"/>
   <stop offset="1" style="stop-opacity:0; stop-color:white"/>
  </linearGradient>
    <rect style="fill:url(#id3)" x="159" y="428" width="686" height="178"/>
   </mask>
   <mask id="id4">
  <linearGradient id="id5" gradientUnits="userSpaceOnUse" x1="3352.2" y1="838.087" x2="2920.54" y2="885.216">
   <stop offset="0" style="stop-opacity:1; stop-color:white"/>
   <stop offset="1" style="stop-opacity:0; stop-color:white"/>
  </linearGradient>
    <rect style="fill:url(#id5)" x="2713" y="534" width="985" height="362"/>
   </mask>
  <linearGradient id="id6" gradientUnits="userSpaceOnUse" x1="2950.57" y1="1063.35" x2="3071.79" y2="1073.62">
   <stop offset="0" style="stop-opacity:1; stop-color:#DBCD67"/>
   <stop offset="1" style="stop-opacity:1; stop-color:#C7A743"/>
  </linearGradient>
  <linearGradient id="id7" gradientUnits="userSpaceOnUse" xlink:href="#id6" x1="3068.36" y1="1160.91" x2="3203.53" y2="1160.91">
  </linearGradient>
  <linearGradient id="id8" gradientUnits="userSpaceOnUse" x1="2971.38" y1="489.179" x2="3436.89" y2="489.179">
   <stop offset="0" style="stop-opacity:1; stop-color:#513626"/>
   <stop offset="1" style="stop-opacity:1; stop-color:#83632A"/>
  </linearGradient>
  <linearGradient id="id9" gradientUnits="userSpaceOnUse" xlink:href="#id6" x1="3253.26" y1="886.129" x2="3141.9" y2="886.129">
  </linearGradient>
  <linearGradient id="id10" gradientUnits="userSpaceOnUse" xlink:href="#id6" x1="2820.06" y1="785.048" x2="2796.89" y2="827.748">
  </linearGradient>
  <linearGradient id="id11" gradientUnits="userSpaceOnUse" xlink:href="#id6" x1="3616.5" y1="844.988" x2="3569" y2="776.794">
  </linearGradient>
  <linearGradient id="id12" gradientUnits="userSpaceOnUse" x1="3061.03" y1="884.914" x2="3510.56" y2="893.771">
   <stop offset="0" style="stop-opacity:1; stop-color:#A58E42"/>
   <stop offset="1" style="stop-opacity:1; stop-color:white"/>
  </linearGradient>
  <linearGradient id="id13" gradientUnits="userSpaceOnUse" xlink:href="#id6" x1="2948.36" y1="1042.46" x2="3174.55" y2="1042.46">
  </linearGradient>
  <linearGradient id="id14" gradientUnits="userSpaceOnUse" xlink:href="#id6" x1="3223.11" y1="289.786" x2="3180.78" y2="288.261">
  </linearGradient>
  <linearGradient id="id15" gradientUnits="userSpaceOnUse" xlink:href="#id6" x1="2969.99" y1="910.792" x2="2941.94" y2="904.933">
  </linearGradient>
  <linearGradient id="id16" gradientUnits="userSpaceOnUse" xlink:href="#id6" x1="3224.82" y1="308.414" x2="3179.42" y2="306.889">
  </linearGradient>
  <linearGradient id="id17" gradientUnits="userSpaceOnUse" xlink:href="#id6" x1="3229.89" y1="257.774" x2="3175.42" y2="255.995">
  </linearGradient>
  <linearGradient id="id18" gradientUnits="userSpaceOnUse" xlink:href="#id6" x1="2913.91" y1="383.402" x2="2876.89" y2="354.185">
  </linearGradient>
  <linearGradient id="id19" gradientUnits="userSpaceOnUse" xlink:href="#id6" x1="3249.79" y1="569.474" x2="3145.6" y2="569.474">
  </linearGradient>
  <linearGradient id="id20" gradientUnits="userSpaceOnUse" xlink:href="#id6" x1="3226.64" y1="217.964" x2="3177.98" y2="217.24">
  </linearGradient>
  <linearGradient id="id21" gradientUnits="userSpaceOnUse" xlink:href="#id6" x1="2843.72" y1="804.98" x2="2867.71" y2="804.98">
  </linearGradient>
  <linearGradient id="id22" gradientUnits="userSpaceOnUse" xlink:href="#id6" x1="2812.5" y1="481.2" x2="2837.7" y2="499.057">
  </linearGradient>
  <linearGradient id="id23" gradientUnits="userSpaceOnUse" xlink:href="#id6" x1="3234.05" y1="235.39" x2="3172.13" y2="233.318">
  </linearGradient>
  <linearGradient id="id24" gradientUnits="userSpaceOnUse" xlink:href="#id6" x1="3450.66" y1="1042.46" x2="3224.48" y2="1042.46">
  </linearGradient>
  <linearGradient id="id25" gradientUnits="userSpaceOnUse" xlink:href="#id6" x1="2848.18" y1="344.876" x2="2810.7" y2="333.559">
  </linearGradient>
  <linearGradient id="id26" gradientUnits="userSpaceOnUse" xlink:href="#id6" x1="3473.32" y1="901.607" x2="3537.39" y2="901.607">
  </linearGradient>
  <linearGradient id="id27" gradientUnits="userSpaceOnUse" xlink:href="#id6" x1="3271.73" y1="926.951" x2="3122.13" y2="926.951">
  </linearGradient>
  <linearGradient id="id28" gradientUnits="userSpaceOnUse" x1="3547.05" y1="861.585" x2="3754.98" y2="769.047">
   <stop offset="0" style="stop-opacity:1; stop-color:#73B784"/>
   <stop offset="0.839216" style="stop-opacity:1; stop-color:#3A5C42"/>
   <stop offset="1" style="stop-opacity:1; stop-color:black"/>
  </linearGradient>
  <linearGradient id="id29" gradientUnits="userSpaceOnUse" xlink:href="#id6" x1="3224.65" y1="274.252" x2="3179.56" y2="273.11">
  </linearGradient>
  <linearGradient id="id30" gradientUnits="userSpaceOnUse" x1="2427.66" y1="724.935" x2="3649.24" y2="107.97">
   <stop offset="0" style="stop-opacity:1; stop-color:white"/>
   <stop offset="1" style="stop-opacity:1; stop-color:black"/>
  </linearGradient>
  <linearGradient id="id31" gradientUnits="userSpaceOnUse" xlink:href="#id6" x1="3321.5" y1="1046.27" x2="3439.7" y2="1027.86">
  </linearGradient>
  <linearGradient id="id32" gradientUnits="userSpaceOnUse" xlink:href="#id6" x1="3574.53" y1="503.929" x2="3659.34" y2="450.183">
  </linearGradient>
  <linearGradient id="id33" gradientUnits="userSpaceOnUse" x1="3834.52" y1="681.137" x2="3225.45" y2="878.391">
   <stop offset="0" style="stop-opacity:1; stop-color:#12415F"/>
   <stop offset="1" style="stop-opacity:1; stop-color:#008DD2"/>
  </linearGradient>
  <linearGradient id="id34" gradientUnits="userSpaceOnUse" xlink:href="#id12" x1="3051.99" y1="910.352" x2="3530.98" y2="932.991">
  </linearGradient>
  <linearGradient id="id35" gradientUnits="userSpaceOnUse" x1="2567.04" y1="549.959" x2="3351.09" y2="549.959">
   <stop offset="0" style="stop-opacity:1; stop-color:#339966"/>
   <stop offset="1" style="stop-opacity:1; stop-color:black"/>
  </linearGradient>
  <linearGradient id="id36" gradientUnits="userSpaceOnUse" x1="3774.67" y1="542.929" x2="3488.84" y2="542.929">
   <stop offset="0" style="stop-opacity:1; stop-color:#339966"/>
   <stop offset="0.45098" style="stop-opacity:1; stop-color:#1A4D33"/>
   <stop offset="1" style="stop-opacity:1; stop-color:black"/>
  </linearGradient>
  <linearGradient id="id37" gradientUnits="userSpaceOnUse" xlink:href="#id6" x1="3501.78" y1="415.591" x2="3570.72" y2="301.646">
  </linearGradient>
  <linearGradient id="id38" gradientUnits="userSpaceOnUse" x1="1245.6" y1="497.517" x2="1601.44" y2="473.257">
   <stop offset="0" style="stop-opacity:1; stop-color:#B0CB1F"/>
   <stop offset="1" style="stop-opacity:1; stop-color:#33FF66"/>
  </linearGradient>
  <linearGradient id="id39" gradientUnits="userSpaceOnUse" x1="3360.45" y1="836.183" x2="3545.36" y2="796.623">
   <stop offset="0" style="stop-opacity:1; stop-color:#DBE285"/>
   <stop offset="1" style="stop-opacity:1; stop-color:#33FF66"/>
  </linearGradient>
  <linearGradient id="id40" gradientUnits="userSpaceOnUse" xlink:href="#id6" x1="3422.3" y1="938.849" x2="3457.09" y2="886.667">
  </linearGradient>
  <linearGradient id="id41" gradientUnits="userSpaceOnUse" x1="3194.48" y1="367.424" x2="3194.47" y2="203.322">
   <stop offset="0" style="stop-opacity:1; stop-color:#AA203A"/>
   <stop offset="1" style="stop-opacity:1; stop-color:#F6B096"/>
  </linearGradient>
  <linearGradient id="id42" gradientUnits="userSpaceOnUse" xlink:href="#id6" x1="3482.2" y1="467.264" x2="3516.49" y2="348.051">
  </linearGradient>
  <linearGradient id="id43" gradientUnits="userSpaceOnUse" xlink:href="#id6" x1="2820.96" y1="624.198" x2="2847.15" y2="640.982">
  </linearGradient>
  <linearGradient id="id44" gradientUnits="userSpaceOnUse" xlink:href="#id6" x1="3240.07" y1="192.582" x2="3166.02" y2="186.258">
  </linearGradient>
  <linearGradient id="id45" gradientUnits="userSpaceOnUse" xlink:href="#id6" x1="2756.71" y1="631.009" x2="2788.09" y2="640.336">
  </linearGradient>
  <linearGradient id="id46" gradientUnits="userSpaceOnUse" xlink:href="#id6" x1="2747.82" y1="452.419" x2="2775" y2="486.021">
  </linearGradient>
  <linearGradient id="id47" gradientUnits="userSpaceOnUse" xlink:href="#id6" x1="2862.69" y1="916.237" x2="2890.91" y2="916.237">
  </linearGradient>
  <linearGradient id="id48" gradientUnits="userSpaceOnUse" xlink:href="#id6" x1="3546.04" y1="629.527" x2="3664.22" y2="629.527">
  </linearGradient>
  <linearGradient id="id49" gradientUnits="userSpaceOnUse" xlink:href="#id36" x1="2647.54" y1="874.012" x2="2903.7" y2="874.012">
  </linearGradient>
  <linearGradient id="id50" gradientUnits="userSpaceOnUse" xlink:href="#id6" x1="3565.59" y1="827.42" x2="3530.46" y2="776.957">
  </linearGradient>
  <linearGradient id="id51" gradientUnits="userSpaceOnUse" xlink:href="#id6" x1="3195.11" y1="1155.28" x2="3316.57" y2="1155.28">
  </linearGradient>
  <linearGradient id="id52" gradientUnits="userSpaceOnUse" x1="2988.93" y1="974.006" x2="3672.6" y2="987.223">
   <stop offset="0" style="stop-opacity:1; stop-color:#A58E42"/>
   <stop offset="1" style="stop-opacity:1; stop-color:#FEFEFE"/>
  </linearGradient>
  <linearGradient id="id53" gradientUnits="userSpaceOnUse" xlink:href="#id6" x1="3511.17" y1="545.337" x2="3595.97" y2="491.591">
  </linearGradient>
  <linearGradient id="id54" gradientUnits="userSpaceOnUse" xlink:href="#id35" x1="3069.29" y1="778.709" x2="2451.85" y2="919.446">
  </linearGradient>
  <linearGradient id="id55" gradientUnits="userSpaceOnUse" x1="887.637" y1="750.412" x2="3344.92" y2="677.091">
   <stop offset="0" style="stop-opacity:1; stop-color:#008DD2"/>
   <stop offset="1" style="stop-opacity:1; stop-color:black"/>
  </linearGradient>
  <linearGradient id="id56" gradientUnits="userSpaceOnUse" x1="3675.55" y1="632.017" x2="3471.33" y2="688.675">
   <stop offset="0" style="stop-opacity:1; stop-color:#C5C6C6"/>
   <stop offset="1" style="stop-opacity:1; stop-color:#FEFEFE"/>
  </linearGradient>
 </defs>
 <g id="Layer_x0020_1">
  <metadata id="CorelCorpID_0Corel-Layer"/>
  <path class="fil0" d="M3544 271l3 4c15,-2 18,12 38,34l0 0c19,-18 30,29 32,39l0 0c9,1 10,0 19,5l0 0c4,3 30,32 26,60 2,1 3,3 4,4l0 0c22,3 17,14 23,45l0 0c24,-7 12,35 9,43l0 0c8,5 9,4 13,12l0 0c3,4 12,43 -8,63 0,2 1,4 1,6l0 0c20,13 10,22 1,55l0 0c27,4 -6,41 -13,49l0 0c6,7 7,8 8,17l0 0c0,6 -10,49 -40,59 14,8 22,26 7,37l0 0c26,30 4,53 -16,54l0 0c-7,23 -3,44 -31,49l0 0c7,20 -6,30 -22,34 3,11 -32,-5 -45,7l-3 17c1,1 1,3 1,4 2,1 4,2 6,3 6,6 -2,27 -12,29l0 1 -10 -2c1,1 3,2 5,3l0 0 1 1c2,0 3,0 5,-1 -4,15 -18,6 -25,-4 -4,1 -7,2 -11,3 2,4 1,10 -3,19l0 0c11,20 -7,28 -35,42l0 0c24,19 -27,32 -40,34l0 0c6,29 -21,34 -50,38 4,18 -15,24 -42,33l0 0c21,22 -33,28 -45,28l0 0c2,44 -37,47 -77,57 14,8 36,19 52,27 39,2 8,35 -5,42l-4 -2 0 -1c-13,-14 -45,-48 -57,-60 -2,1 19,-7 17,-5l-22 9c-6,6 -28,35 -50,55 -1,3 -3,5 -5,7 -38,-28 -18,-46 -2,-40 0,0 0,-1 -1,-1l0 0c-2,-1 -4,-2 -7,-3l0 0c23,-11 41,-21 54,-29 -21,-3 -57,2 -108,-21l0 0c-36,-17 -60,-44 -72,-78 -18,-3 -41,-9 -66,-24 -34,-19 -56,-48 -65,-83 -27,-22 -48,-45 -59,-72 -121,-60 -78,-171 -86,-228 -33,-44 -49,-92 -33,-142 -22,-76 -19,-146 40,-193 -12,-96 93,-100 119,-128l0 0c1,2 1,5 2,8l6 -4c0,-10 1,-21 5,-33 11,-36 52,-52 86,-43 87,10 112,14 168,17 1,-2 2,-3 4,-3l9 0c-28,-15 -49,-39 -57,-67l1 0c-1,0 -1,-1 -1,-1 0,-3 13,-5 35,-7 2,0 5,1 9,1 -35,-49 34,-42 -11,-90 22,2 18,134 36,147 -41,-179 274,-65 121,17l10 0c63,0 109,-7 172,-14 34,-9 75,7 87,43 2,6 3,12 4,18zm-342 969l-1 0 1 -1 0 1zm443 -416l0 0 4 -2 0 0 -4 2zm54 -206l0 0 0 0 0 0zm-8 49l0 1 3 -4 0 0 -3 3zm-11 41l0 1 4 -1 0 0 -4 0zm17 -184l0 0 2 -1 0 0 -2 1zm-72 -155l0 0 2 -3 0 0 -2 3z"/>
  <path class="fil1" d="M2904 932c-66,12 -185,-26 -186,-55 0,-38 0,-56 0,-95 62,22 124,42 186,56 0,38 0,56 0,94z"/>
  <path class="fil2" d="M3489 489c73,-13 206,20 207,49 0,38 0,77 0,115 -69,-19 -138,-38 -207,-49 0,-38 0,-76 0,-115z"/>
  <g id="_2072911910832">
   <path class="fil3" d="M3355 642c-1094,7 -2190,-59 -3355,199l0 98c1059,-174 2211,-268 3355,-265l0 -32z"/>
   <path class="fil3" d="M3355 514c-1058,93 -2133,9 -3206,-41l10 204 3196 -65 0 -98z"/>
  </g>
  <path class="fil4" d="M3355 642c-847,-43 -1844,-31 -2677,29 -277,20 -405,46 -678,77l0 98c1095,-134 2224,-184 3355,-106l0 -98z"/>
  <path class="fil5" d="M3355 514c-1080,100 -2152,58 -3196,-86l0 98c1088,186 2148,232 3196,86l0 -98z"/>
  <path class="fil6" d="M3355 518c-847,-42 -1844,-31 -2677,30 -277,20 -405,46 -678,76l0 99c1095,-135 2224,-184 3355,-106l0 -99z"/>
  <path class="fil7" d="M3355 514c-810,75 -1615,70 -2408,2 -264,-23 -527,-52 -788,-88l0 98c1088,149 2148,194 3196,86l0 -98z"/>
  <path class="fil8" style="mask:url(#id0)" d="M1693 561c-513,-18 -1025,-63 -1534,-133l0 98c521,71 1035,119 1545,137 -22,-30 -26,-69 -11,-102z"/>
  <path class="fil9" style="mask:url(#id2)" d="M831 506c-225,-21 -449,-47 -672,-78l0 98c230,32 458,58 685,80 -21,-29 -27,-67 -13,-100z"/>
  <path class="fil10" d="M3523 264l3 3c13,-1 17,12 34,33l0 0c18,-17 28,28 30,37l0 0c9,1 10,0 17,5l0 0c4,2 28,30 25,56 1,2 2,3 3,5l0 0c20,3 16,13 22,42l0 0c21,-7 10,33 8,41l0 0c7,4 8,4 12,11l0 0c2,4 11,41 -8,60 0,2 1,4 1,6l0 0c19,12 9,21 1,52l0 0c25,4 -5,39 -12,46l0 0c5,8 6,8 7,17l0 0c1,5 -9,46 -36,56 12,8 20,25 6,35l0 0c24,28 3,50 -15,51l0 0c-6,22 -2,42 -28,47l0 0c6,19 -5,28 -20,32 2,10 -8,18 -20,29l-3 16c1,1 1,3 1,4 2,1 4,1 5,3 6,6 -2,25 -11,27l0 1 -9 -2c1,1 3,2 5,3l0 1 0 0c2,0 4,0 5,0 -4,13 -16,5 -23,-5 -3,1 -6,2 -9,3 1,4 0,10 -4,18l0 0c11,19 -6,27 -32,40l0 0c23,19 -25,31 -37,33l0 0c6,27 -19,32 -46,36 4,17 -14,22 -39,31l0 0c20,21 -29,26 -41,26l0 0c2,42 -55,23 -92,32 12,8 34,19 48,26 36,2 8,34 -5,40l-3 -2 0 -1c-12,-13 -42,-46 -53,-57 -1,1 -3,2 -4,4l0 0c-6,5 -26,34 -46,52 -1,3 -3,5 -5,7 -35,-27 -17,-44 -2,-38 0,0 0,-1 0,-1l0 0c-2,-1 -5,-2 -7,-2l0 0c21,-11 37,-21 50,-29 -19,-2 -53,3 -100,-20l0 0c-33,-15 -55,-41 -66,-73 -17,-3 -38,-9 -61,-23 -31,-18 -51,-46 -60,-79 -24,-21 -44,-43 -54,-68 -111,-58 -71,-163 -79,-217 -30,-42 -45,-88 -30,-135 -20,-72 -18,-139 36,-183 -11,-91 86,-95 110,-122l0 0c1,2 1,5 2,7l5 -3c0,-10 1,-20 5,-32 10,-34 48,-49 79,-41 80,10 103,14 154,17 1,-2 3,-3 4,-3l9 0c-26,-14 -45,-37 -53,-63l1 0c-1,-1 -1,-1 -1,-2 0,-2 12,-4 32,-6 2,0 5,0 8,1 -32,-47 32,-40 -9,-86 20,2 16,128 33,140 -38,-170 252,-62 110,16l10 0c58,0 100,-6 158,-14 32,-8 69,7 80,41 2,7 3,12 4,18zm-315 920l0 0 0 -1 0 1zm407 -395l0 0 5 -2 0 0 -5 2zm50 -196l0 1 1 -1 -1 0zm-6 47l-1 1 3 -4 0 0 -2 3zm-11 39l0 1 4 -1 0 0 -4 0zm16 -175l0 0 1 -1 0 0 -1 1zm-67 -147l1 0 1 -3 0 0 -2 3z"/>
  <path class="fil11" d="M3505 258l3 3c14,-1 17,12 34,33l0 0c18,-17 28,28 30,37l0 0c9,1 10,0 18,5l0 0c4,2 27,30 24,57 1,1 2,2 3,4l0 0c20,3 16,13 22,42l0 0c21,-7 10,33 8,41l0 0c7,4 8,4 12,11l0 0c2,4 11,42 -8,60 1,2 1,4 1,6l0 0c19,12 9,21 2,53l0 0c24,3 -6,38 -12,45l0 0c5,8 6,8 7,17l0 0c0,5 -9,46 -37,56 13,8 20,25 6,35l0 0c24,28 4,50 -14,51l0 0c-7,22 -3,42 -29,47l0 0c6,19 -5,28 -20,32 2,11 -8,18 -20,29l-2 16c0,1 0,3 0,4 2,1 4,1 6,3 5,6 -3,25 -12,27l0 2 -9 -3c1,1 3,2 5,4l0 0 1 0c1,0 3,0 4,0 -3,13 -16,5 -23,-4 -3,0 -6,1 -9,2 1,5 0,10 -4,18l0 0c11,19 -6,27 -32,40l0 0c23,19 -25,31 -37,33l0 0c6,27 -18,32 -46,36 4,17 -13,23 -38,31l0 0c19,21 -30,27 -42,26l0 0c3,42 -55,23 -91,33 12,7 33,18 47,25 36,3 8,34 -5,40l-3 -2 0 -1c-12,-13 -41,-46 -52,-57 -2,1 -4,2 -5,4l0 0c-6,5 -26,34 -46,52 -1,3 -3,5 -5,7 -35,-27 -17,-43 -2,-38 0,0 0,-1 0,-1l0 0c-2,-1 -4,-2 -7,-2l0 0c22,-11 38,-21 50,-29 -19,-2 -53,3 -100,-20l0 0c-33,-15 -54,-41 -66,-73 -17,-3 -37,-9 -61,-23 -31,-18 -51,-46 -59,-79 -25,-21 -45,-43 -55,-68 -111,-58 -71,-163 -78,-217 -31,-42 -46,-88 -31,-135 -20,-72 -18,-138 37,-183 -12,-91 85,-95 109,-122l0 0c1,3 2,5 2,8l6 -4c-1,-9 1,-20 4,-31 11,-34 48,-50 80,-41 79,10 102,14 154,16 0,-2 2,-3 3,-3l9 0c-26,-14 -45,-37 -53,-63l1 0c-1,-1 -1,-1 -1,-2 0,-2 12,-4 32,-6 3,0 5,0 8,1 -31,-47 32,-40 -9,-86 20,3 26,5 43,17 -9,-40 16,-68 57,-74 -27,36 10,33 18,61 18,-9 31,-12 51,-13 -47,43 17,44 -5,94l2 0c20,2 32,4 32,6 0,1 0,1 -1,2 -9,27 -28,49 -53,63l10 0c1,0 3,1 3,3 52,-2 75,-6 155,-16 31,-9 69,7 79,41 2,6 3,11 4,17zm-315 920l0 0 0 -1 0 1zm408 -395l0 0 4 -2 0 0 -4 2zm50 -196l0 1 0 -1 0 0zm-7 47l0 1 3 -4 0 0 -3 3zm-11 39l0 1 4 -1 0 0 -4 0zm16 -175l0 0 1 -1 0 0 -1 1zm-66 -147l0 0 1 -3 0 0 -1 3z"/>
  <path class="fil12" d="M2954 197c21,14 42,28 52,52l7 39 -5 32 -12 29 -27 23 -32 17 -21 6 -18 3 -29 5 -24 2 -13 1c-4,17 26,36 23,52 -8,47 7,92 2,139 -3,27 15,44 17,71 1,28 -39,69 -30,98l15 44 3 -21 12 -30 25 -17 29 -5 24 7 23 18 12 24 4 29 -10 43 -22 48 -12 32 0 28 51 49 75 56 79 53c26,16 38,16 48,48 9,-32 21,-32 47,-48l79 -53 75 -56 51 -49 0 -28 -12 -32 -22 -48 -10 -43 4 -29 12 -24 23 -18 24 -7 29 5 25 17 12 30 3 21 15 -44c40,-116 39,-241 12,-360l-13 -1 -24 -2 -29 -5 -18 -3 -21 -6 -32 -17 -27 -23 -12 -29 -5 -32 7 -39c10,-24 31,-38 52,-52 -127,16 -122,19 -245,21 -123,-2 -119,-5 -246,-21z"/>
  <polygon class="fil13" points="3484,228 3563,318 3613,390 3649,452 3657,565 3644,651 3604,761 3603,818 3543,910 3533,974 3494,963 3471,1024 3411,1074 3354,1121 3263,1175 3197,1182 3247,1137 3371,1017 3441,918 3411,820 3443,723 3561,582 3543,434 3454,383 3383,265 3436,202 "/>
  <path class="fil14" d="M3487 286c-5,21 6,29 26,35l0 0c-23,17 7,29 22,34l0 0c-7,20 4,29 28,43l0 0c2,21 13,26 25,31l0 0c65,-28 14,-89 8,-93l0 0c-8,-5 -9,-4 -18,-5l0 0c-2,-9 -12,-54 -30,-37l0 0c-20,-25 -21,-38 -43,-30l0 0c-5,-3 -10,-5 -14,-5l0 0c-15,0 -20,19 -4,27zm11 -3c20,14 17,13 36,30l0 0 -7 -28c23,55 -5,9 36,61l0 0c0,-19 1,-11 -4,-31l0 0c16,53 -4,17 21,57l0 0c0,-17 -1,-9 7,-24l0 0c-9,25 -5,28 8,50l0 0c-20,-27 -20,-30 -50,-32l0 0c24,-1 14,-3 32,7l0 0c-19,-31 -19,-34 -50,-30l0 0c24,-6 13,-7 32,2l0 0c-26,-31 -23,-34 -54,-33l0 0c20,-3 11,-4 26,2l0 0 -33 -31z"/>
  <path class="fil15" d="M3599 407c-12,15 -7,26 6,38l0 0c-25,5 -6,26 4,36l0 0c-14,13 -9,25 4,46l0 0c-6,17 0,26 8,35l0 0c63,5 47,-65 44,-71l0 0c-4,-7 -5,-7 -12,-11l0 0c2,-8 13,-48 -8,-41l0 0c-6,-29 -2,-39 -22,-42l0 0c-5,-8 -11,-11 -16,-11 -9,0 -15,10 -8,21zm11 2c10,20 8,17 16,39l0 0 5 -25c-4,53 -7,5 4,63l0 0c8,-15 5,-8 10,-26l0 0c-9,48 -11,11 -7,53l0 0c7,-12 3,-8 15,-16l0 0c-17,16 -15,21 -14,43l0 0c-5,-29 -3,-32 -26,-46l0 0c19,10 12,3 22,19l0 0c-2,-33 -1,-35 -27,-45l0 0c21,6 13,1 25,15l0 0c-9,-35 -5,-36 -31,-48l0 0c18,6 12,2 21,12l0 0 -13 -38z"/>
  <path class="fil16" d="M3536 448c-12,15 -7,26 6,39l0 0c-25,4 -6,26 4,36l0 0c-14,13 -9,25 4,46l0 0c-7,17 0,25 7,34l0 0c63,5 48,-65 45,-70l0 0c-5,-7 -6,-7 -12,-11l0 0c2,-9 13,-48 -9,-42l0 0c-6,-29 -1,-39 -21,-42l0 0c-5,-8 -11,-11 -16,-11 -9,0 -15,11 -8,21zm10 2c10,20 9,18 17,39l0 0 5 -25c-4,53 -8,5 4,64l0 0c8,-16 5,-9 10,-27l0 0c-10,49 -11,12 -7,54l0 0c7,-13 2,-8 15,-16l0 0c-17,16 -15,20 -14,42l0 0c-5,-29 -4,-31 -26,-45l0 0c18,9 11,3 22,18l0 0c-2,-32 -1,-34 -28,-44l0 0c21,5 14,0 25,15l0 0c-8,-35 -5,-36 -30,-48l0 0c17,6 11,1 21,12l0 0 -14 -39z"/>
  <path class="fil17" d="M3449 338c-27,-5 -30,21 -10,24l0 0c2,19 13,24 31,23l0 0c-15,21 14,23 28,23l0 0c0,19 11,24 36,30l0 0c7,17 17,18 29,19 48,-41 -12,-79 -18,-81l0 0c-8,-2 -9,-1 -16,1l0 0c-4,-8 -25,-44 -35,-24l0 0c-18,-11 -25,-20 -33,-20l0 0c-4,0 -7,2 -12,5zm24 13c34,41 -2,9 47,42l0 0c-5,-16 -2,-9 -11,-25l0 0c27,41 0,15 32,43l0 0c-4,-14 -3,-8 0,-23l0 0c-1,24 3,26 20,41l0 0c-24,-18 -25,-20 -51,-14l0 0c20,-7 11,-6 29,-3l0 0c-24,-21 -25,-24 -51,-12l0 0c19,-11 10,-9 28,-7l0 0c-30,-19 -28,-22 -55,-13l0 0c17,-8 9,-7 23,-6l0 0 -36 -17c21,7 18,6 39,16l0 0 -14 -22z"/>
  <path class="fil18" d="M3629 556c-19,9 -19,22 -12,41l0 0c-28,-8 -19,23 -14,38l0 0c-20,7 -21,21 -18,49l0 0c-15,13 -12,25 -9,38l0 0c61,35 79,-43 78,-50l0 0c0,-9 -1,-9 -6,-17l0 0c6,-7 36,-42 11,-45l0 0c8,-32 18,-41 -1,-53l0 0c-2,-14 -9,-20 -16,-20l0 0c-8,0 -15,7 -13,19zm9 6c1,25 1,22 -2,48l0 0 18 -23c-30,52 -10,1 -27,66l0 0c15,-12 9,-7 22,-22l0 0c-32,44 -16,6 -32,50l0 0c13,-9 6,-6 23,-8l0 0c-25,7 -25,13 -35,36l0 0c9,-32 12,-34 -4,-59l0 0c14,18 10,9 13,30l0 0c14,-34 16,-36 -6,-59l0 0c18,16 13,7 18,27l0 0c8,-39 12,-38 -7,-63l0 0c14,15 10,7 15,23l0 0 4 -46z"/>
  <path class="fil19" d="M3594 695c-19,-3 -33,28 0,31 10,-3 9,-28 0,-31z"/>
  <path class="fil20" d="M3573 717c-25,9 31,34 26,9 -2,1 -3,2 -5,2l0 0 0 0c-12,-1 -19,-5 -21,-11z"/>
  <path class="fil21" d="M3583 754c-37,-2 -30,19 -32,52l0 0c-40,14 -27,36 -14,67l0 0 14 22c19,-2 38,-10 30,-34l0 0c26,-5 22,-25 29,-47l0 0c18,-1 38,-23 14,-51l0 0c18,-13 0,-38 -18,-38 -10,0 -20,7 -23,29zm20 4l-22 35c15,-5 12,-5 27,-12l0 0c-42,26 -27,5 -42,39l0 0c16,-1 8,2 30,-11l0 0c-23,18 -14,12 -30,14l0 0 -8 19c16,-2 8,0 25,-9l0 0c-17,13 -9,9 -26,13l0 0 -7 15c5,-22 6,-11 -5,-34l0 0 11 14c9,-26 7,-13 2,-40l0 0 6 17c15,-31 10,-16 17,-51l0 0 -3 25 25 -34z"/>
  <path class="fil22" d="M3541 760c-28,-2 -22,14 -24,38l0 0c-30,11 -20,27 -10,50l0 0 10 16c14,-1 28,-7 22,-24l0 0c20,-4 17,-19 21,-36l0 0c14,0 29,-16 11,-37l0 0c14,-10 0,-29 -13,-29l0 0c-8,0 -15,6 -17,22zm15 3l-17 26c11,-4 9,-4 20,-9l0 0c-31,20 -20,4 -31,29l0 0c12,-1 6,2 22,-8l0 0c-16,13 -10,9 -22,10l0 0 -6 14c12,-2 7,0 19,-6l0 0c-13,9 -7,6 -20,9l0 0 -4 11c3,-16 4,-8 -5,-25l0 0 9 10c6,-18 5,-9 2,-29l0 0 4 13c11,-23 7,-13 12,-38l0 0 -2 18 19 -25z"/>
  <path class="fil23" d="M3522 856c-32,0 -35,26 -25,38l0 0c-11,16 -27,25 -15,45l0 0c-20,8 -14,25 -5,39l0 0 22 -4c27,-8 50,-12 36,-46l0 0c20,-21 38,-28 16,-51l0 0c21,-24 4,-38 -11,-38 -10,0 -19,5 -18,17zm15 11l-8 35 14 -16c-18,24 -11,13 -24,40l0 0 15 -6c-21,12 -13,4 -25,24l0 0 16 -1c-21,6 -13,1 -26,16l0 0 7 -13c-7,-13 -6,-5 -7,-24l0 0c4,16 1,10 8,22l0 0 8 -16c-8,-12 -6,-3 -7,-28l0 0c3,22 1,14 9,25l0 0c14,-28 9,-6 2,-49l0 0c4,14 3,12 8,24l0 0 10 -33z"/>
  <path class="fil24" d="M3416 878c-18,21 -2,37 11,37l0 0c5,17 3,32 23,35l0 0c-6,18 8,24 23,25l9 -17c10,-23 19,-40 -11,-50l0 0c-2,-24 3,-40 -25,-38l0 0c-3,-16 -10,-21 -17,-21l0 0c-14,0 -27,19 -13,29zm15 -4l20 25 -3 -19c6,26 2,15 13,38l0 0 4 -13c-3,20 -4,11 3,30l0 0 8 -11c-8,17 -7,9 -4,25l0 0 -4 -11c-13,-2 -7,1 -21,-9l0 0c13,7 8,5 19,7l0 0 -6 -14c-3,-1 -4,-1 -6,-1l0 0c-4,0 -3,1 -16,-10l0 0c13,8 11,8 17,8l0 0c1,0 3,0 5,0l0 0c-12,-25 0,-9 -32,-28l0 0c11,5 9,5 20,8l0 0 -17 -25z"/>
  <path class="fil25" d="M3481 963l0 0c-13,0 -28,4 -28,4l0 0 -90 71c-18,23 1,33 -53,79l21 0c28,-27 108,-6 98,-53l0 0c12,-2 60,-14 37,-33l0 0c26,-13 43,-21 32,-40l0 0c11,-23 -2,-28 -17,-28zm-33 29c-5,17 -5,14 -8,30l0 0 32 -29 -31 33 26 -8c-35,14 -21,6 -51,26l0 0 20 3c-30,0 -17,-3 -42,10l0 0 17 9c-26,-7 -14,-8 -36,1l0 0 14 -10c1,-18 -2,-9 8,-30l0 0c-6,19 -5,12 -5,28l0 0 19 -11c-1,-18 -5,-8 10,-34l0 0c-10,25 -8,16 -6,33l0 0c32,-22 13,-2 33,-51l0 0z"/>
  <path class="fil13" d="M3144 1221c3,10 10,29 -1,37 -37,-28 -14,-45 1,-37z"/>
  <path class="fil26" d="M3357 1064l0 0c-9,0 -17,2 -17,2l0 0 -99 56c-24,24 4,37 -107,95l0 0c3,0 5,1 7,2l0 0c0,1 1,1 1,2l0 0c2,9 6,24 1,34l0 0c22,-18 44,-50 51,-56l0 0c29,-28 112,8 109,-42l0 0c12,1 61,-5 42,-26l0 0c26,-9 45,-15 37,-35l0 0c18,-27 -7,-32 -25,-32zm-25 25c-7,16 -7,13 -12,29l0 0 36 -24 -35 27 26 -4c-36,9 -21,3 -54,19l0 0 19 6c-29,-5 -16,-6 -42,4l0 0 15 11c-25,-11 -13,-10 -36,-5l0 0 15 -7c4,-18 -1,-10 13,-29l0 0c-9,19 -7,11 -9,28l0 0 20 -9c2,-17 -4,-8 15,-32l0 0c-14,23 -11,14 -11,31l0 0c35,-16 13,0 40,-45l0 0z"/>
  <path class="fil27" d="M2774 409c75,-26 128,-67 106,-141l0 0c-25,29 -134,31 -106,141zm94 -108l-22 35 24 -12c-31,20 -19,10 -44,35l0 0 21 -2c-30,6 -18,0 -39,18l0 0 20 4c-29,-1 -17,-4 -37,9l0 0 12 -12c-5,-16 -6,-8 -1,-28l0 0c0,18 -2,11 3,26l0 0 16 -15c-6,-15 -8,-5 0,-32l0 0c-3,24 -4,16 3,31l0 0c27,-27 13,-5 19,-53l0 0c0,16 -1,14 1,29l0 0 24 -33z"/>
  <path class="fil28" d="M2902 342l-1 0c-37,0 -76,10 -91,73 78,13 144,2 160,-73 -10,3 -25,2 -42,1l0 0c-9,-1 -17,-1 -26,-1zm17 15c-7,14 -7,11 -12,25l0 0 37 -17 -37 21 27 0c-37,3 -21,-1 -55,10l0 0 20 8c-30,-9 -16,-8 -44,-3l0 0 16 13c-25,-14 -13,-11 -37,-10l0 0 16 -4c4,-17 -1,-9 13,-25l0 0c-9,15 -7,9 -9,24l0 0 20 -5c2,-17 -4,-9 15,-29l0 0c-14,20 -10,12 -11,29l0 0c36,-11 13,2 41,-37l0 0z"/>
  <path class="fil29" d="M2738 586c130,-71 54,-169 64,-216l0 0c-89,45 -92,128 -64,216zm40 -177l-16 50c17,-11 14,-10 29,-24l0 0c-42,47 -31,16 -38,62l0 0c20,-6 11,1 33,-23l0 0c-21,30 -13,20 -32,28l0 0 -3 26c18,-9 10,-3 28,-20l0 0c-17,22 -9,14 -29,25l0 0 -2 20c-3,-29 3,-15 -19,-40l0 0 19 14c2,-34 5,-18 -11,-51l0 0 14 20c7,-43 5,-23 3,-68l0 0 4 31 20 -50z"/>
  <path class="fil30" d="M2830 595c94,-91 6,-157 4,-200 -66,59 -49,131 -4,200zm-8 -161l-1 46c11,-13 9,-11 19,-27l0 0c-26,50 -23,21 -18,62l0 0c15,-10 9,-2 23,-28l0 0c-12,31 -7,21 -21,32l0 0 3 23c14,-12 8,-5 20,-24l0 0c-10,23 -5,14 -19,28l0 0 2 18c-8,-24 -1,-14 -25,-30l0 0 19 8c-6,-30 0,-17 -21,-41l0 0 16 14c-4,-39 0,-22 -13,-60l0 0 11 27 5 -48z"/>
  <path class="fil31" d="M2799 749c84,-122 -28,-175 -40,-222l0 0c-60,80 -25,155 40,222zm-44 -177l8 52c10,-17 8,-15 16,-34l0 0c-17,61 -22,28 -6,72l0 0c14,-15 9,-4 18,-35l0 0c-6,36 -2,23 -16,39l0 0 9 25c13,-16 8,-8 16,-31l0 0c-5,28 -2,17 -14,35l0 0 7 20c-15,-25 -5,-16 -35,-28l0 0 23 4c-14,-32 -4,-18 -32,-40l0 0 21 12c-14,-42 -6,-24 -28,-63l0 0 18 26 -5 -54z"/>
  <path class="fil32" d="M2842 737c91,-94 1,-157 -3,-200l0 0c-64,61 -44,132 3,200zm-13 -161l0 47c11,-14 9,-12 18,-28l0 0c-23,51 -22,21 -16,62l0 0c15,-10 10,-2 22,-28l0 0c-10,31 -5,20 -20,32l0 0 4 23c14,-12 8,-6 19,-24l0 0c-9,23 -4,14 -18,28l0 0 3 18c-9,-23 -1,-14 -26,-29l0 0 19 7c-7,-30 0,-17 -22,-40l0 0 17 13c-6,-38 -2,-21 -15,-59l0 0 12 26 3 -48z"/>
  <path class="fil33" d="M2844 925c12,-99 -1,-188 -81,-226l0 0c14,50 -38,165 81,226zm-56 -186l23 52 -1 -35c4,49 0,28 12,74l0 0 9 -24c-9,38 -9,20 -3,56l0 0 14 -17c-15,29 -12,15 -11,46l0 0 -4 -22c-18,-9 -10,-1 -28,-23l0 0c18,16 10,11 27,18l0 0 -6 -28c-18,-6 -9,3 -31,-26l0 0c22,23 13,16 31,21l0 0c-12,-49 2,-17 -40,-62l0 0c14,13 12,12 27,22l0 0 -19 -52z"/>
  <path class="fil34" d="M2912 1004c53,-110 -46,-139 -62,-176 -38,74 0,131 62,176zm-59 -138l14 41c5,-15 4,-13 7,-30l0 0c-5,52 -13,26 5,60l0 0c10,-14 8,-5 11,-31l0 0c0,30 1,19 -8,34l0 0 11 19c8,-15 5,-7 9,-27l0 0c-1,23 0,14 -8,30l0 0 9 15c-16,-18 -6,-11 -32,-17l0 0 19 0c-15,-24 -5,-15 -32,-29l0 0 19 7c-16,-33 -8,-19 -31,-48l0 0 18 19 -11 -43z"/>
  <path class="fil35" d="M2915 980c60,-32 100,-77 76,-145l0 0c-18,30 -107,42 -76,145zm69 -113l-15 36 18 -14c-24,22 -15,12 -33,37l0 0 17 -3c-24,9 -15,2 -31,21l0 0 17 2c-24,2 -14,-2 -30,11l0 0 9 -12c-5,-15 -5,-6 -3,-27l0 0c1,18 0,11 5,25l0 0 12 -15c-7,-14 -7,-5 -3,-31l0 0c0,23 -2,15 5,29l0 0c20,-28 10,-6 12,-52l0 0c1,15 0,13 3,27l0 0 17 -34z"/>
  <path class="fil19" d="M3123 1177l-3 -3c1,-16 0,-24 8,-37 33,3 6,34 -5,40z"/>
  <path class="fil36" d="M2957 1072c55,32 93,22 108,32l0 0c4,3 41,53 53,67 0,-14 0,-23 8,-36l0 0 1 -1 1 0c1,0 1,0 2,0 -15,-9 -40,-24 -51,-33l0 0c-48,-38 -16,-69 -119,-119l0 0c-28,-13 -36,-14 -67,-17l0 0c4,45 25,84 64,107zm-44 -86c0,-1 0,-2 1,-2l0 0c0,0 1,0 1,0l0 0c12,13 21,23 30,31l0 0 -3 -18c-1,-1 0,-2 0,-2l0 0c1,0 2,1 2,1l0 0 4 22c0,0 0,0 0,0l0 0c12,11 22,19 30,24l0 0c-1,-3 -2,-7 -3,-11l0 0c-2,-4 -2,-8 -3,-12l0 0c0,-1 0,-1 1,-2l0 0c1,0 1,1 1,1l0 0c1,4 2,9 3,13l0 0c1,4 3,9 5,13l0 0c0,0 0,0 0,0l0 0c7,4 14,8 21,11l0 0 -6 -21c0,-1 1,-2 1,-2l0 0c1,0 1,0 2,1l0 0 6 23c10,5 22,10 38,19l0 0c0,1 0,1 0,2l0 0c0,1 -1,1 -2,0l0 0c-12,-7 -22,-12 -31,-16l0 0c0,0 0,1 -1,1l0 0c-3,0 -8,0 -11,1l0 0c-3,1 -7,3 -10,4l0 0c-1,0 -2,0 -2,0l0 0c0,-1 0,-2 1,-2l0 0c3,-1 7,-3 10,-4l0 0c3,-1 7,-1 10,-1l0 0c-9,-4 -17,-8 -24,-12l0 0c-1,0 -1,0 -1,0l0 0c-4,0 -10,1 -15,1l0 0c-4,-1 -10,-3 -14,-4l0 0c-1,0 -2,0 -1,-1l0 0c0,-1 0,-1 1,-1l0 0c3,1 7,2 10,2l0 0c1,1 3,1 4,1l0 0c4,1 8,0 12,0l0 0c-9,-5 -19,-12 -31,-24l0 0c0,1 -1,1 -1,1l0 0c-13,-2 -17,-2 -29,-9l0 0c0,-1 0,-1 0,-2l0 0c0,0 1,-1 2,0l0 0c10,6 14,6 25,8l0 0c-9,-9 -20,-20 -33,-34l0 0z"/>
  <path class="fil13" d="M3254 1255l-3 -2c-1,-16 -3,-24 5,-38 40,1 11,33 -2,40z"/>
  <path class="fil37" d="M3012 1068l-1 0c8,44 32,81 73,100l0 0c58,28 95,14 110,23l0 0c5,3 46,49 58,63l0 0c0,-14 -2,-23 6,-37l0 0 0 -1 2 0c0,0 1,0 1,0l0 0c-16,-8 -41,-21 -53,-29l0 0c-51,-33 -22,-68 -129,-108l0 0c-29,-11 -37,-11 -67,-11zm21 18c0,0 0,-1 0,-1l0 0c1,-1 1,-1 2,-1l0 0c12,12 23,21 32,29l0 0 -5 -18c0,-1 0,-2 1,-2l0 0c1,0 1,0 1,1l0 0 6 21c0,0 0,0 0,0l0 0c13,11 23,17 33,22l0 0c-2,-3 -4,-7 -5,-10l0 0c-2,-4 -3,-9 -4,-13l0 0c0,0 1,-1 1,-1l0 0c1,0 1,0 2,1l0 0c1,3 2,8 3,12l0 0c2,4 4,8 6,13l0 0c0,0 0,0 0,0l0 0c8,3 15,6 22,9l0 0 -7 -21c0,-1 0,-1 0,-2l0 0c1,0 2,0 2,1l0 0 8 23c11,4 23,8 39,16l0 0c1,0 1,1 1,1l0 0c0,1 -1,1 -2,1l0 0c-13,-7 -23,-11 -32,-14l0 0c0,0 0,1 -1,1l0 0c-3,0 -8,1 -11,2l0 0c-3,1 -7,4 -10,5l0 0c-1,0 -1,0 -2,0l0 0c0,-1 0,-2 1,-2l0 0c3,-2 7,-4 10,-5l0 0c3,-1 6,-2 9,-2l0 0c-9,-3 -17,-6 -25,-9l0 0c0,0 0,0 0,0l0 0c-5,0 -11,1 -15,1l0 0c-4,0 -10,-1 -15,-2l0 0c-1,0 -1,0 -1,-1l0 0c0,-1 1,-1 1,-1l0 0c4,0 7,1 10,1l0 0c2,1 4,1 5,1l0 0c3,0 8,-1 11,-1l0 0c-9,-5 -19,-11 -33,-21l0 0c0,0 0,0 0,0l0 0c-13,-1 -18,0 -30,-6l0 0c0,-1 0,-1 0,-2l0 0c0,0 1,-1 1,0l0 0c11,5 16,5 27,6l0 0c-10,-8 -22,-18 -36,-32l0 0z"/>
  <path class="fil38" d="M3313 150c-14,45 -60,79 -114,79 -55,0 -100,-34 -114,-79l228 0z"/>
  <path class="fil39" d="M3116 57c20,3 26,5 42,17 -9,-40 17,-68 58,-74 -27,36 9,33 18,61 18,-9 31,-12 51,-13 -48,44 19,44 -6,96 -89,11 -59,10 -151,2 -38,-50 30,-42 -12,-89z"/>
  <path class="fil40" d="M3143 85c13,22 19,37 48,39 -37,-23 -12,-37 -13,-74 -1,-15 3,-19 14,-29 -12,37 32,22 19,67 -8,26 13,34 32,40 -18,-23 -13,-44 13,-57 -21,43 34,37 9,75 -75,10 -56,13 -125,-2 -14,-26 -11,-36 3,-59z"/>
  <path class="fil19" d="M3282 142c20,2 32,4 32,6 0,6 -51,10 -115,10 -63,0 -114,-4 -114,-10 0,-2 12,-4 32,-6 21,2 50,3 82,3 33,0 62,-1 83,-3z"/>
  <path class="fil41" d="M3125 222l149 0 0 -2c0,-4 -2,-7 -4,-7l-141 0c-2,0 -4,3 -4,7l0 2z"/>
  <path class="fil42" d="M3104 247l191 0 0 -4c0,-12 -8,-22 -18,-22l-155 0c-10,0 -18,10 -18,22l0 4z"/>
  <path class="fil43" d="M3116 246l167 0 0 4c0,10 -7,18 -15,18l-137 0c-8,0 -15,-8 -15,-18l0 -4z"/>
  <path class="fil44" d="M3130 266l139 0 0 4c0,6 -2,11 -5,11l-129 0c-3,0 -5,-5 -5,-11l0 -4z"/>
  <path class="fil45" d="M3140 279l119 0c3,0 6,4 6,8l0 3c0,5 -3,8 -6,8l-119 0c-3,0 -6,-3 -6,-8l0 -3c0,-4 3,-8 6,-8z"/>
  <path class="fil46" d="M3134 298l131 0c2,0 4,4 4,9l0 1c0,5 -2,9 -4,9l-131 0c-2,0 -4,-4 -4,-9l0 -1c0,-5 2,-9 4,-9z"/>
  <polygon class="fil47" points="3264,316 3135,316 3112,862 3287,862 "/>
  <path class="fil13" d="M3152 862l-19 0 16 -507c0,-3 2,-5 5,-5l1 0c1,0 2,0 3,1 1,1 1,3 1,4l-7 507z"/>
  <path class="fil13" d="M3247 862l19 0 -16 -507c0,-3 -2,-5 -5,-5l-1 0c-1,0 -2,0 -3,1 -1,1 -2,3 -2,4l8 507z"/>
  <path class="fil13" d="M3186 862l27 0 -6 -505c0,-4 -3,-7 -7,-7l-1 0c-4,0 -7,3 -7,7l-6 505z"/>
  <polygon class="fil19" points="2960,399 3448,399 3448,580 2960,580 "/>
  <polygon class="fil13" points="2971,408 3437,408 3437,570 2971,570 "/>
  <polygon class="fil48" points="3437,408 2971,408 2971,570 2981,570 2981,418 3437,418 "/>
  <path class="fil49" d="M3106 896l187 0 0 -3c0,-8 -5,-15 -11,-15l-165 0c-6,0 -11,7 -11,15l0 3z"/>
  <path class="fil50" d="M3095 912l208 0 0 -3c0,-8 -3,-14 -7,-14l-193 0c-4,0 -8,6 -8,14l0 3z"/>
  <path class="fil51" d="M3074 945l251 0 0 -10c0,-13 -11,-23 -24,-23l-203 0c-13,0 -24,10 -24,23l0 10z"/>
  <path class="fil52" d="M3051 968l297 0 0 -3c0,-11 -8,-21 -18,-21l-261 0c-10,0 -18,10 -18,21l0 3z"/>
  <path class="fil53" d="M3113 861l173 0c6,0 11,6 11,14l0 4 -195 0 0 -4c0,-8 5,-14 11,-14z"/>
  <path class="fil54" d="M3003 956c7,22 -26,52 -50,25l0 0c51,66 98,113 179,145l0 0c25,9 51,10 46,-24l0 0 -5 -22c-50,-3 -132,-71 -162,-111l0 0 -9 -16c1,1 1,2 1,3zm-55 19l0 1 0 -1 0 0z"/>
  <path class="fil20" d="M2934 812c-54,-9 -1,-64 23,-19 29,53 -68,89 -96,18 -36,-87 124,-126 138,-9 8,67 -79,144 -38,173 9,5 21,5 27,-10 -25,34 -42,-35 0,-26 10,2 13,10 15,17 7,23 -28,54 -53,22 -37,-48 71,-134 21,-206 -46,-66 -131,7 -79,50 15,13 42,15 42,-10z"/>
  <path class="fil55" d="M3438 296c24,-10 11,-35 -3,-38 -34,-8 -47,53 -2,71 40,15 82,-29 64,-88 -15,-48 -83,-60 -113,-19 -13,18 -23,45 -14,84 21,87 108,101 186,100 -65,-6 -152,-16 -171,-101 -5,-24 1,-44 8,-58 25,-50 105,-32 85,34 -6,17 -20,32 -40,15z"/>
  <path class="fil19" d="M3000 258c10,18 5,60 -7,76l-56 -2c1,0 13,-1 15,-2 16,-6 30,-18 32,-35 2,-13 -15,-29 -27,-37 -4,-2 41,0 43,0z"/>
  <path class="fil19" d="M2952 296c-6,-4 -11,-8 -11,-17 0,-10 3,-17 13,-19 2,-1 6,0 8,1l40 -3c-1,-3 -5,-11 -6,-13 -24,-48 -107,-32 -87,32 5,17 13,40 43,19z"/>
  <path class="fil19" d="M2910 792l-10 -39c12,-8 28,-10 43,-4l12 41c-6,-8 -16,-16 -27,-13 -8,2 -16,8 -18,15z"/>
  <path class="fil13" d="M2934 812c-9,-2 -25,-6 -24,-19l-10 -41c-21,14 -41,49 -8,72 13,10 40,16 42,-12z"/>
  <path class="fil56" d="M3388 969c-30,40 -112,108 -162,111l0 0 -5 22c-5,34 21,33 46,24l0 0c81,-32 128,-79 179,-145l0 0c-24,27 -56,-3 -50,-25l0 0c0,-1 0,-2 1,-3l-9 16zm63 6l0 1 0 -1 0 0z"/>
  <path class="fil20" d="M3448 296c25,-10 11,-35 -2,-38 -35,-8 -48,53 -3,71 40,15 83,-29 64,-88 -15,-48 -82,-60 -113,-19 -13,18 -23,45 -14,84 21,87 108,101 187,100 -66,-6 -153,-16 -171,-101 -6,-24 0,-44 7,-58 25,-50 105,-32 85,34 -5,17 -20,32 -40,15z"/>
  <path class="fil20" d="M3465 812c54,-9 1,-64 -23,-19 -28,53 68,89 97,18 35,-87 -125,-126 -139,-9 -8,67 79,144 38,173 -9,5 -21,5 -27,-10 25,34 42,-35 0,-26 -10,2 -13,10 -15,17 -7,23 28,54 53,22 37,-48 -71,-134 -21,-206 46,-66 131,7 79,50 -15,13 -42,15 -42,-10z"/>
  <path class="fil19" d="M3435 258l-36 0c-11,25 -8,52 7,76l50 -2c-1,0 -3,0 -5,-1 -19,-6 -33,-19 -36,-36 -2,-13 3,-29 17,-36 1,-1 2,-1 3,-1z"/>
  <path class="fil13" d="M3447 297c7,-4 15,-10 14,-18 -2,-17 -11,-21 -24,-21l-39 0c17,-42 49,-48 71,-36 43,23 20,106 -22,75z"/>
  <path class="fil19" d="M3489 795l10 -43c-12,-7 -28,-9 -43,-3l-12 41c6,-8 17,-16 28,-13 8,2 15,10 17,18z"/>
  <path class="fil13" d="M3465 812c10,-2 22,-7 23,-17l11 -42c25,13 36,48 8,70 -15,13 -43,13 -42,-11z"/>
  <path class="fil57" d="M2886 880c45,-94 -39,-119 -53,-150 -32,63 0,111 53,150zm-51 -118l12 35c5,-13 4,-11 7,-25l0 0c-5,44 -12,22 4,51l0 0c8,-12 6,-4 9,-27l0 0c0,26 1,17 -7,29l0 0 9 16c7,-12 5,-6 8,-23l0 0c-1,20 0,12 -6,26l0 0 7 13c-13,-15 -5,-10 -27,-15l0 0 16 0c-13,-20 -5,-12 -27,-24l0 0 16 5c-14,-27 -7,-16 -27,-40l0 0 16 16 -10 -37z"/>
  <path class="fil19" d="M2896 317c6,0 11,5 11,11 0,6 -5,10 -11,10 -6,0 -11,-4 -11,-10 0,-6 5,-11 11,-11z"/>
  <path class="fil19" d="M2797 550c6,0 11,5 11,11 0,6 -5,11 -11,11 -6,0 -11,-5 -11,-11 0,-6 5,-11 11,-11z"/>
  <path class="fil19" d="M2817 713c6,0 11,5 11,11 0,6 -5,11 -11,11 -6,0 -11,-5 -11,-11 0,-6 5,-11 11,-11z"/>
  <path class="fil19" d="M2915 863c6,0 11,5 11,11 0,5 -5,10 -11,10 -6,0 -11,-5 -11,-10 0,-6 5,-11 11,-11z"/>
  <path class="fil19" d="M3577 354c-16,7 -13,41 16,27 8,-8 -6,-29 -16,-27z"/>
  <path class="fil20" d="M3571 384c-17,19 44,13 26,-6 0,2 -1,3 -2,4l0 1 -1 0c-10,5 -18,4 -23,1z"/>
  <path class="fil19" d="M3617 514c-18,-2 -32,29 1,32 10,-3 8,-28 -1,-32z"/>
  <path class="fil20" d="M3597 537c-25,8 31,34 25,9 -1,1 -2,2 -4,2l0 0 -1 0c-12,-1 -18,-5 -20,-11z"/>
  <path class="fil19" d="M3466 857c-17,6 -17,40 14,28 8,-7 -5,-29 -14,-28z"/>
  <path class="fil20" d="M3457 886c-18,19 44,17 27,-3 0,1 -1,3 -2,4l-1 0 0 0c-11,4 -19,3 -24,-1z"/>
  <path class="fil19" d="M3544 945c-15,-11 -42,10 -14,28 10,2 21,-21 14,-28z"/>
  <path class="fil20" d="M3516 955c-26,-4 11,45 18,20 -1,0 -3,0 -4,0l-1 0 0 0c-10,-7 -14,-14 -13,-20z"/>
  <path class="fil55" d="M2964 296c-25,-10 -11,-35 2,-38 35,-8 48,53 3,71 -40,15 -83,-29 -64,-88 15,-48 82,-60 113,-19 13,18 23,45 14,84 -21,87 -108,101 -187,100 65,-6 153,-16 171,-101 6,-24 0,-44 -7,-58 -25,-50 -105,-32 -85,34 5,17 20,32 40,15z"/>
  <path class="fil20" d="M2951 296c-25,-10 -11,-35 2,-38 35,-8 48,53 3,71 -40,15 -82,-29 -64,-88 15,-48 82,-60 113,-19 13,18 23,45 14,84 -21,87 -108,101 -187,100 66,-6 153,-16 171,-101 6,-24 0,-44 -7,-58 -25,-50 -105,-32 -85,34 5,17 20,32 40,15z"/>
  <path class="fil58" d="M2779 778c200,-51 524,-99 724,-151 80,-17 202,-39 195,-92l0 106c-16,147 -785,161 -916,245l-3 -108z"/>
  <path class="fil59" d="M2718 731c16,-78 387,-94 664,-126 109,-11 288,-31 314,-76l1 51 -77 107c-78,32 -162,42 -246,48 -269,22 -584,15 -648,153 -4,-3 -7,-6 -11,-9l3 -148z"/>
  <path class="fil60" d="M2718 737c19,-93 537,-97 805,-146 72,-9 181,-19 175,-80l0 121c-6,64 -100,84 -167,90 -286,51 -729,5 -806,173 -3,-3 -6,-6 -10,-9l3 -149z"/>
  <path class="fil61" style="mask:url(#id4)" d="M2718 737c16,-78 387,-94 664,-126 109,-11 288,-32 314,-76l1 51 -77 107c-78,32 -162,42 -246,48 -269,22 -584,15 -648,153 -4,-3 -7,-6 -11,-9l3 -148z"/>
  <g id="_2072911869040">
   <path class="fil62" d="M3233 717c115,-32 425,-105 469,-165l7 1c0,134 -23,176 -303,247 -51,15 -105,30 -161,44 0,-19 107,-72 107,-95 0,-23 -59,-26 -119,-32z"/>
   <path class="fil63" d="M3233 668c115,-20 425,-61 469,-117l7 2c0,134 -23,174 -303,215 -51,10 -106,25 -162,34 11,-20 108,-67 108,-90 0,-22 -107,-26 -119,-44z"/>
   <path class="fil64" d="M3233 674c115,-20 425,-62 469,-117l7 2c0,134 -23,174 -303,215 -51,10 -105,19 -161,28 30,-21 95,-64 107,-84 -20,-11 -83,-32 -119,-44z"/>
  </g>
  <g id="_2072911870320">
   <path class="fil62" d="M3395 801c73,-31 269,-104 298,-164l4 1c0,134 -14,176 -192,246 -33,15 -67,30 -102,45 0,-20 67,-73 67,-95 0,-23 -67,-16 -75,-33z"/>
   <path class="fil63" d="M3395 752c73,-19 269,-61 298,-116l4 2c0,134 -14,174 -192,215 -33,10 -67,25 -103,34 7,-21 68,-67 68,-90 0,-23 -67,-26 -75,-45z"/>
   <path class="fil65" d="M3395 758c73,-19 269,-61 298,-116l4 2c0,134 -14,174 -192,215 -33,10 -67,19 -102,28 19,-22 60,-64 67,-84 -12,-12 -52,-32 -75,-45z"/>
  </g>
  <g id="_2072911871152">
   <path class="fil66" d="M3137 537l-30 0 0 -9 3 0 -1 -6c-7,9 -17,19 -28,15 -12,-5 -14,-22 -13,-33 2,-16 10,-31 24,-41l-3 -9c0,-2 -2,-3 -4,-3l-3 0 0 -9 32 0 0 9 -4 -1 22 77c0,1 0,1 1,1l5 0 0 -77 -4 0 0 -9 28 0 0 9 -4 0 0 19c5,-10 10,-20 16,-24 6,-4 12,-4 18,-4l3 1 -1 22 -4 -1c-14,-2 -23,12 -28,24 24,4 28,23 34,45l1 4 -31 0 -1 -2c0,-1 0,-2 0,-3 0,-5 2,-9 2,-14 0,-6 -4,-11 -9,-15l0 25 4 0 0 9 -4 0 0 0 -20 0 0 0 -1 0zm192 -86l-3 0 0 77 3 0 0 9 -3 0 0 0 -21 0 0 0 -3 0 0 -9 3 0 0 -33 -18 0 0 33 3 0 0 9 -3 0 0 0 -21 0 0 0 -3 0 0 -9 3 0 0 -77 -3 0 0 -9 27 0 0 9 -3 0 0 33 18 0 0 -33 -3 0 0 -9 27 0 0 0 42 0 0 33c12,-2 23,1 32,9 8,8 12,19 9,30 -4,21 -27,25 -45,23 -11,-1 -20,-10 -20,-22l0 -49 -18 0 0 -15zm-272 35c7,6 10,10 10,22 0,17 -14,30 -31,30 -21,-1 -29,-19 -31,-37l-1 -4 23 1 0 4c-1,6 -2,25 9,25 2,0 5,-2 6,-5 3,-7 4,-15 0,-23 -1,-2 -5,-7 -8,-7l-4 1 0 -10 2 -1c7,-3 12,-10 11,-18 0,-4 -3,-11 -8,-11 -1,0 -3,0 -5,1 -3,3 -3,14 -3,18l0 3 -22 1 1 -4c3,-16 11,-31 29,-31 3,0 6,1 9,2 8,2 15,8 19,16 4,10 0,19 -6,27zm170 -45c42,32 55,72 1,98l-2 1 -2 -1c-18,-12 -38,-31 -36,-55 2,-20 19,-34 36,-43l2 -1 1 1zm145 49c0,5 0,11 0,17 0,4 1,16 5,18 1,1 3,0 3,0 4,-3 7,-13 8,-17 1,-11 -7,-16 -16,-18zm-142 -26c-24,15 -31,36 -8,56 21,-18 31,-35 8,-56zm-126 43l-8 -29c-5,5 -7,10 -8,18 -1,6 -2,21 6,22 4,1 8,-5 9,-8l1 -3z"/>
   <path class="fil11" d="M3029 481l0 3c3,-1 22,11 11,36 -2,3 -5,6 -9,6 -7,0 -15,-7 -12,-29l-16 0c3,25 16,33 28,33 15,0 28,-10 28,-26 0,-13 -3,-15 -11,-22 20,-20 1,-41 -18,-41 -11,-1 -22,7 -26,28l15 -1c0,-17 2,-23 11,-23 11,0 20,26 -1,36zm299 -40l6 0 5 0 6 0 7 0 11 0 0 34c47,-13 64,62 0,55 0,0 -18,-2 -18,-19l0 -67 -6 0 0 15 -11 0 0 -18zm36 40c0,7 -4,51 13,43 3,-2 25,-35 -13,-43zm-64 49l4 0 0 0 14 0 0 0 3 0 0 -3 0 0c-2,0 -3,-1 -3,-3l0 -78c0,-1 1,-3 3,-3l0 0 0 -2 -3 0 -14 0 -4 0 0 2 1 0c1,0 3,2 3,3l0 37 -25 0 0 -37c0,-1 1,-3 3,-3l0 0 0 -2 -3 0 -14 0 -4 0 0 2 1 0c1,0 3,2 3,3l0 78c0,2 -2,3 -3,3l-1 0 0 3 4 0 0 0 14 0 0 0 3 0 0 -3 0 0c-2,0 -3,-1 -3,-3l0 -36 25 0 0 36c0,2 -2,3 -3,3l-1 0 0 3zm-79 -90c-45,23 -47,62 0,92 49,-23 43,-59 0,-92zm5 15c-27,17 -38,42 -8,65 23,-20 36,-39 8,-65zm-90 -14l14 0 4 0 0 2 -1 0c-1,0 -3,2 -3,3l0 36c12,-27 15,-43 36,-40l0 15c-17,-3 -27,14 -33,30 24,1 28,16 35,43l-24 0c-3,-9 11,-17 -11,-36l-3 -3 0 33c0,2 2,3 3,3l1 0 0 3 -4 0 0 0 -14 0 0 0 -3 0 0 -3 0 0c2,0 3,-1 3,-3l0 -78c0,-1 -1,-3 -3,-3l0 0 0 -2 3 0zm-56 0l5 0 15 0 5 0 0 2 0 0c-1,0 -2,1 -2,2 -1,0 -1,1 -1,2l22 77c1,2 2,3 4,3l1 0 0 3 -3 0 -15 0 -6 0 0 -3 1 0c1,0 2,0 2,-1 1,-1 1,-2 1,-3l-4 -12c-36,56 -59,-22 -14,-50l-3 -12c-1,-4 -4,-6 -8,-6l0 0 0 -2zm23 62l-10 -36c-7,7 -11,12 -13,25 -5,24 12,35 22,15l1 -4z"/>
  </g>
  <g id="_2072911872048">
   <path class="fil0" d="M3577 889c48,-38 99,-122 118,-185l3 1c0,134 -10,178 -128,264 -22,19 -44,37 -68,55 0,-20 45,-79 45,-102 0,-23 35,-17 30,-33z"/>
   <path class="fil63" d="M3497 848c49,-27 179,-87 198,-145l3 2c0,134 -10,175 -128,233 -22,13 -45,31 -68,43 5,-21 45,-73 45,-96 0,-23 -45,-20 -50,-37z"/>
   <path class="fil67" d="M3497 854c49,-27 179,-87 198,-145l3 2c0,134 -10,175 -128,233 -22,13 -44,25 -68,38 13,-24 40,-70 45,-91 -8,-10 -35,-27 -50,-37z"/>
  </g>
 </g>
</svg>
