<?xml version="1.0" encoding="UTF-8"?>
<!DOCTYPE svg PUBLIC "-//W3C//DTD SVG 1.1//EN" "http://www.w3.org/Graphics/SVG/1.1/DTD/svg11.dtd">
<!-- Creator: CorelDRAW X7 -->
<svg xmlns="http://www.w3.org/2000/svg" xml:space="preserve" width="154.049mm" height="75.2918mm" version="1.1" style="shape-rendering:geometricPrecision; text-rendering:geometricPrecision; image-rendering:optimizeQuality; fill-rule:evenodd; clip-rule:evenodd"
viewBox="0 0 4627 2262"
 xmlns:xlink="http://www.w3.org/1999/xlink">
 <defs>
  <style type="text/css">
   <![CDATA[
    .str0 {stroke:#FEFEFE;stroke-width:15.019}
    .fil0 {fill:none}
    .fil2 {fill:#9D9E9E}
    .fil1 {fill:#2B2A29;fill-opacity:0.180392}
    .fil3 {fill:url(#id13)}
    .fil6 {fill:url(#id14)}
    .fil5 {fill:url(#id15)}
    .fil4 {fill:url(#id16)}
   ]]>
  </style>
    <clipPath id="id0">
     <path d="M2435 204l3 37 13 -22 23 17 12 24 -77 55 -7 -4 7 -50 9 -8 0 -36 17 -13zm-865 499l15 42 -6 11 -13 -1 -11 -17 -3 -27 18 -8zm793 -547l14 12 16 8 0 38 -7 5 15 23 -22 17 -20 -15 -12 7 -18 -10 -18 -46 52 -39zm-56 23l-11 20 -18 -10 -1 -20 30 10zm-739 370l-18 118 -16 9 -57 -50 19 -22 -17 -37 -10 -1 6 -41 21 8 82 -66 17 -3 -20 -12 55 -32 31 -42 19 8 0 -10 15 6 71 -21 11 -11 41 16 89 -29 9 32 -65 37 -19 -7 -8 9 -49 -1 -48 20 -159 109 0 13zm915 -229l26 8 3 15 -21 25 54 8 -10 9 20 16 5 -14 -7 -6 47 -20 9 8 11 -5 49 44 -1 16 -15 -4 31 31 -9 24 -39 52 -4 29 -12 11 -4 24 -18 5 -19 29 -6 33 13 -5 -3 -15 33 -13 9 -13 25 -15 7 -15 -15 -6 0 -18 20 -1 29 9 12 -23 17 37 11 0 -11 -11 93 -43 0 15 12 13 88 -23 -14 -47 6 -26 71 -11 17 12 6 -6 51 47 -16 26 109 49 -21 -85 65 9 7 -40 51 -1 23 -46 -7 -21 -36 -48 7 -26 75 -39 17 3 10 47 18 -79 39 -19 97 14 65 -100 61 -22 31 31 47 -19 6 -35 9 -35 11 0 33 -57 -3 -7 556 0 63 201 -46 10 -25 46 15 72 -34 -17 8 37 15 7 -32 42 106 115 6 -39 98 62 -21 20 45 59 26 -3 53 136 -16 2 62 186 -175 -104 -126 -89 -49 -55 -1 -38 -7 -12 12 -13 -87 -282 -55 -35 14 -32 -33 16 -5 28 50 34 -2 118 -19 -3 -47 -52 0 35 -20 0 -15 81 52 141 37 -16 -13 39 -23 3 4 38 -21 36 -20 -5 9 -30 -27 8 -56 86 -12 11 -23 18 2 3 -7 0 -11 9 10 14 -71 57 -16 89 3 63 -13 202 -11 69 12 0 42 -29 33 44 8 -8 0 -11 -11 -5 0 -11 9 -9 9 13 9 4 0 24 29 -30 8 6 -21 -48 75 -18 7 8 37 -8 9 9 -17 21 26 0 15 21 13 -1 74 142 55 77 4 87 -20 413 -56 12 -6 -16 -5 27 -16 -16 -10 80 -21 -6 -53 -130 17 -48 22 -17 13 5 18 -25 -12 -20 6 -16 -44 -107 11 -11 -18 -44 -19 -4 -48 62 5 20 -42 37 -42 -10 0 -15 -25 -17 -28 -3 -68 -1 -59 10 -41 -57 -26 3 -51 -51 -3 -13 -61 -23 -31 8 -43 2 -54 33c-44,26 -32,20 -50,66l8 11 11 -10 21 21 6 24 -6 12 -5 33c-2,29 6,7 -8,42 9,16 8,18 19,29l0 22 -16 4c-6,12 -12,30 -25,39 -16,10 -36,9 -54,7 -29,-5 -8,-11 -57,17l-30 -14c-24,1 -64,69 -83,83 -17,13 -3,-10 -53,40 -44,0 -27,4 -46,7l-31 0c-31,2 -10,8 -43,-4 -8,-15 -4,-9 -17,-22 -70,0 -57,-9 -66,-11l-35 5 -21 0c-24,24 -12,16 -38,23 -13,3 -26,8 -46,3 -33,-8 -37,-38 -41,-43 -21,-29 -52,-22 -75,-16l-15 -15 -30 0 -17 -12 -9 8 -20 31 -14 30 9 11 0 17 14 32 -36 29 -57 -6 -20 5 -38 -13 -26 -26 -18 -6 -20 8 -13 -12 -16 -7 -13 12 -18 0 -4 16 -21 0 -39 32 -15 0 -4 16 -13 3 -19 15 -27 -7 -15 25 -29 -1 -17 -43 -74 5 -1 -16 -68 -76 -45 13 -26 -5 -30 -40 -19 22 -15 7 -83 -218 -22 0 -1 -16 10 -2 10 -13 -6 -9 -49 3 -56 37 -8 -13 -28 8 -148 -165 -9 13 -287 -30 -46 166 -55 25 -15 -21 -16 9 -161 -81 -94 -132 -29 3 -5 -29 -133 48 -29 -15 4 -30 -20 -8 -101 78 16 26 -14 29 34 29 -9 101 -162 26 -33 210 -65 5 -11 -58 -30 -47 12 -24 -15 -27 -13 -1 -53 -65 3 -14 -91 -116 -9 2 -34 -175 18 -11 23 20 253 -120 11 -20c-32,-15 -140,-196 -91,-263l9 0 -27 -83 -11 9 -14 -19 34 -53 25 21 29 0 8 -32 15 -84c17,-5 23,-14 34,-27l-27 -43c13,-33 11,-67 13,-103l30 -14 7 -25 19 -1c19,-43 48,-45 91,-49l11 -18c28,16 39,23 52,52l9 -9c-10,-22 -16,-36 -16,-60l16 -7 -26 -18 201 -13 6 -69 40 -15 0 -19 13 -6 0 -25 39 -23 13 7c52,-51 90,-80 103,-152l57 -28 55 25 32 0 3 25 -25 -5c3,27 11,54 38,67l33 139 -38 87 -154 -144 13 -26 -12 -11 -17 65 12 10 -67 103 11 35 -10 19 32 32 22 -32 -10 -10 15 -43 12 0 31 88 29 0 6 -24 2 -26 119 27 -10 27 82 -105 19 -11 -3 -37 12 0 23 93 -51 -7 5 53 54 3 0 -14 180 -7 5 20 -30 17 141 19 8 8 -14 32 14 12 37 -30 1 -41 25 -11 14 15 7 -7 110 157 15 -9 0 -16 18 -16 -12 -3 -28 -67 33 -66 -10 -2 104 -124 52 21 -32 103 14 11 -136 282 -31 -19 60 60 73 -40 27 -92 54 -23 21 46 -12 11 33 49 -25 -44 18 -41 -54 -47 -19 14 -7 -8 -14 0 -2 -15 21 -142 62 -87 13 0 -21 105 25 19 37 18 -45 -71 16 -11 20 20 13 -36 29 1 29 21 -5 15 18 18 20 0 -35 -62 11 -34 -10 -25 16 -14 83 2 42 -16 -25 -21 34 -47 -11 -1 0 -11 20 1 10 -18 88 -39 -13 -5 61 -25 -7 25 33 -9 3 -11 30 0 -20 -25 34 -16 12 -65 27 -23zm-163 -244l12 3 27 33 -8 8 3 31 -34 11 -11 12 -24 -32 13 -20 -5 -5 0 -15 27 -26zm843 41l34 -19 7 8 34 -25 11 8 -5 28 -54 26 -27 -26zm-45 19l30 -2 -2 21 10 0 4 14 -7 7 -41 -24 -12 16 36 24 9 -9 11 4 -19 16 -25 35 -12 -2 10 8 0 11 -63 -9 2 -11 -24 -27 9 -33 25 0 7 8 6 -6 10 9 8 -7 -18 -17 -1 -12 19 -7 9 9 19 -16zm78 118l32 6 9 18 -55 33 -11 -33 25 -24zm893 948c58,15 5,21 56,32 10,22 24,22 32,22 16,23 18,49 57,62 17,6 94,65 134,82 -6,20 -19,19 -31,19 9,52 27,121 91,121l6 12 15 2 9 -9c24,14 43,39 3,20 -13,12 -19,7 -25,7 -11,32 -2,12 17,54l-10 8c-17,-19 -33,-33 -40,-39l0 -13c-60,-55 -32,-67 -84,-81 -18,-38 -56,-95 -99,-126 -17,-13 -35,-21 -53,-23 -21,-28 -16,-18 -16,-32 -45,-45 -8,-28 -45,-39 6,-19 5,-14 5,-23l16 4 2 -13 -9 -9 0 -5c-13,-12 -6,-8 -22,-14l-4 3c-7,-17 -5,-12 -5,-22z"/>
    </clipPath>
    <clipPath id="id1">
     <path d="M4082 1724l-48 63 6 19 -49 40 -39 -13 0 -17 -39 -25 -9 9 -74 -5 -53 12 -48 -54 -18 -4 -54 -47 -6 -16 -54 -19 -34 10 -40 2 -57 31 -16 -29 -13 0 -11 -26 12 -7 -24 -18 -20 -49 -10 13 -25 -25 -13 20 -16 -3 -5 -10 9 -12 -5 -8 -25 0 -8 -19 -11 -2 0 -14 -40 -26 -12 -25 3 -8 -56 -69 -12 0 0 11 -11 11 -15 -3 -8 -30 -64 -11 -40 82 0 27 -19 29 -19 -34 -12 16 -37 10 -11 25 -17 1 -22 -46 5 -32 2 -59 -23 -10 -15 -27 8 -30 -30 -14 4 -16 -30 -46 -25 4 0 -15 10 -2 0 -10 -12 -19 -82 2 14 -71 -19 -36 -14 -7c0,-16 0,-19 0,-35l-18 -1 -4 -14 26 -22 -23 -107 -23 -39 59 -28 6 -17 -9 -15 3 -15 12 -3 0 -27 29 -34 7 0 -1 -15 -13 0 -10 -40 -30 -24 -18 -17 -1 -23 -17 -25 7 -13 -8 -18 29 9 12 -23 17 37 10 0 -10 -11 92 -43 0 15 13 13 87 -23 -14 -47 6 -26 72 -11 17 12 5 -5 51 46 -16 26 108 49 -20 -85 65 9 6 -40 51 -1 23 -45 -6 -22 -37 -47 7 -26 75 -39 17 3 10 47 18 -80 39 -18 97 14 65 -100 60 -22 32 31 46 -19 8 -32 69 51 -42 82 18 21 0 19 56 2 36 40 -3 28 -8 8 -56 51 27 48 1 28 30 43 -27 49 -56 32 20 30 -16 -1c0,4 -16,46 -20,57l5 3 59 76 -2 14 13 1 14 -18 67 20 12 28 -15 8 9 29 22 -15 21 6 7 -7 9 0 21 29 -10 0 -9 9 11 13 -71 57 -16 89 3 63 -13 201 -11 69 12 0 42 -29 33 44 8 -8 0 -11 -11 -5 0 -11 9 -9 9 13 9 4 0 24 28 -30 8 6 -20 -48 75 -18 7 8 36 -8 9 9 -17 22 26 0 15 20 13 -1 74 142 55 77 4 86 0 1 -20 411 -56 13 -5 -16 -6 26 -16 -16 -10 81 -21 -7 -53 -130 17 -47 23 -17 12 4 18 -25 -12 -19 7 -16 -45 -107 0 0 0 0 12 -11 0 0 -24 -48 0 0 -13 0zm11 -500c-5,2 -5,2 -5,2 -6,-16 -4,-12 -4,-21 57,15 4,20 55,31 10,22 25,22 32,22 16,23 18,49 57,62 17,6 94,65 134,82 -6,20 -19,19 -31,19 9,52 27,121 91,121 6,12 6,12 6,12 14,1 14,1 14,1 9,-9 9,-9 9,-9 24,15 43,39 4,21 -14,11 -19,6 -25,6 -11,33 -3,13 17,55 -10,8 -10,8 -10,8 -17,-19 -34,-34 -40,-40 0,-12 0,-12 0,-12 -60,-55 -33,-67 -84,-81 -19,-39 -56,-95 -99,-126 -17,-13 -35,-21 -53,-23 -21,-27 -16,-18 -16,-31 -45,-45 -8,-29 -44,-40 6,-18 4,-13 4,-23 16,5 16,5 16,5 2,-14 2,-14 2,-14 -9,-9 -9,-9 -9,-9 0,-5 0,-5 0,-5 -12,-12 -6,-8 -21,-13z"/>
    </clipPath>
    <clipPath id="id2">
     <path d="M3976 1667l-49 62 7 19 22 88 -111 -60 0 -18 -30 -17 5 -39 9 -4 -1 -19 -32 -40 -24 4 -17 -16 -4 -46 -10 -16 40 -74 -46 10 -67 -51 -20 10 -28 -18 15 -15 0 -33 4 -8 -60 -35 -11 -33 -12 -12 13 -27 -37 -9 -2 -9 11 -2 -2 -36 -28 -16 10 -4 -10 -88 40 -13 23 -29 -9 -12 7 -9 39 -26 1 -26 14 -7 -48 -57 -1 -32 -8 -10 14 -54 -17 -44 39 7 45 -37 19 -6 11 4 0 -34 12 1 15 -18 174 80 -22 18 -9 0 -9 9 10 13 -70 57 -16 89 2 63 -12 201 -12 69 13 0 42 -29 33 44 8 -8 0 -11 -12 -5 0 -11 9 -9 9 14 10 3 0 24 28 -30 8 6 -21 -48 75 -18 7 8 37 -8 9 9 -17 22 26 0 14 20 14 -1 74 142 54 77 5 86 -13 11 -13 -9 0 -18 -39 -14 -21 34 3 10 14 1 15 9 12 -9 -1 42 -40 65 -43 -2 -16 32 9 8 -18 11 -16 -34 11 -12 -23 -47 -13 0z"/>
    </clipPath>
    <clipPath id="id3">
     <path d="M3976 1667l-49 62 7 19 22 88 -111 -60 0 -18 -30 -17 5 -39 9 -4 -1 -19 -32 -40 -24 4 -17 -16 -4 -46 -10 -16 40 -74 -46 10 -67 -51 -20 10 -28 -18 15 -15 0 -33 4 -8 -60 -35 -11 -33 -12 -12 13 -27 -37 -9 -2 -9 11 -2 -2 -36 -28 -16 10 -4 -10 -88 40 -13 23 -29 -9 -12 7 -9 39 -26 1 -26 14 -7 -48 -57 -1 -32 -8 -10 14 -54 -17 -44 39 7 45 -37 19 -6 11 4 0 -34 12 1 15 -18 174 80 -22 18 -9 0 -9 9 10 13 -70 57 -16 89 2 63 -12 201 -12 69 13 0 42 -29 33 44 8 -8 0 -11 -12 -5 0 -11 9 -9 9 14 10 3 0 24 28 -30 8 6 -21 -48 75 -18 7 8 37 -8 9 9 -17 22 26 0 14 20 14 -1 74 142 54 77 5 86 -13 11 -13 -9 0 -18 -39 -14 -21 34 3 10 14 1 15 9 12 -9 -1 42 -40 65 -43 -2 -16 32 9 8 -18 11 -16 -34 11 -12 -23 -47 -13 0z"/>
    </clipPath>
    <clipPath id="id4">
     <path d="M4082 1724l-48 63 6 19 -49 40 -39 -13 0 -17 -30 -17 -3 -44 13 -7 -8 -11 -21 -40 -25 4 -17 -16 -4 -46 -10 -31 39 -66 -13 -16 5 -12 33 -15 11 -9 -18 -8 -14 -28 -12 3 -21 19 -13 20 -52 39 -18 -27 -20 10 -27 -18 14 -15 0 -33 17 -52 -70 17 -14 -41 -12 -12 13 -28 -37 -8 -2 -9 12 -3 0 -25 -30 -15 10 -15 -11 -88 40 -14 23 -28 -8 -12 7 -10 39 -26 0 -25 12 7 -45 -57 -2 -46 -7 -10 13 -43 -17 -55 39 7 46 -37 19 -6 11 4 -1 -34 13 1 14 -18 67 20 12 28 -17 16 11 21 22 -15 21 6 7 -7 9 0 21 29 -10 0 -9 9 8 22 -69 55 -15 82 3 63 -13 201 -11 69 12 0 42 -29 33 44 8 -8 0 -11 -11 -5 0 -11 9 -9 9 13 9 4 0 24 28 -30 8 6 -20 -48 75 -18 7 8 36 -8 9 9 -17 22 26 0 15 20 13 -1 74 142 55 77 4 86 -12 10 -17 -2 -9 -19 -28 -11 -20 26 3 10 14 1 16 9 11 -9 -1 42 -40 65 -43 -3 -16 33 -7 21 -15 -2 -9 -35 8 -14 -21 -45 -6 0z"/>
    </clipPath>
    <clipPath id="id5">
     <path d="M4082 1724l-48 63 6 19 -49 40 -39 -13 0 -17 -30 -17 5 -39 8 -4 0 -19 -32 -40 -25 4 -17 -16 -4 -46 -10 -16 41 -74 -15 -23 7 -10 36 -7 6 -19 -13 -8 -19 -36 -12 -1 -33 26 -1 25 -52 39 -18 -27 -20 10 -27 -18 14 -15 0 -33 16 -60 -72 17 -11 -33 -12 -12 13 -28 -37 -8 -2 -9 12 -3 -3 -35 -27 -16 10 -4 -11 -88 40 -14 23 -28 -8 -12 7 -10 39 -26 0 -25 15 -7 -48 -57 -2 -32 -7 -10 14 -54 -18 -44 39 7 46 -37 19 -6 11 4 -1 -34 13 1 14 -18 67 20 12 28 -15 8 9 29 22 -15 21 6 7 -7 9 0 21 29 -10 0 -9 9 11 13 -71 57 -16 89 3 63 -13 201 -11 69 12 0 42 -29 33 44 8 -8 0 -11 -11 -5 0 -11 9 -9 9 13 9 4 0 24 28 -30 8 6 -20 -48 75 -18 7 8 36 -8 9 9 -17 22 26 0 15 20 13 -1 74 142 55 77 4 86 -12 10 -14 -9 0 -17 -38 -14 -22 34 3 10 14 1 16 9 11 -9 -1 42 -40 65 -43 -3 -16 33 9 8 -18 11 -16 -35 12 -11 -24 -48 -13 0z"/>
    </clipPath>
     <clipPath id="id6">
      <path d="M3675 1137l5 -6 -8 -12 7 -10 39 -26 0 -25 15 -7 -48 -57 -2 -32 -7 -10 14 -54 -18 -44 39 7 46 -37 19 -6 11 4 -1 -34 13 1 14 -18 67 20 12 28 -15 8 9 29 22 -15 21 6 7 -7 9 0 21 29 -10 0 -9 9 11 13 -71 57 -16 89 3 63 -3 37 -196 0z"/>
     </clipPath>
     <clipPath id="id7">
      <path d="M3918 1504l4 -14 -13 -8 -19 -36 -12 -1 -33 26 -1 25 -10 8 -102 0 -5 -4 14 -15 0 -33 16 -60 -72 17 -11 -33 -12 -12 13 -28 -37 -8 -2 -9 12 -3 -3 -35 -27 -16 10 -4 -11 -88 40 -14 18 -22 196 0 -10 164 -11 69 12 0 42 -29 33 44 8 -8 0 -11 -11 -5 0 -11 9 -9 9 13 9 4 0 24 28 -30 8 6 -20 -48 75 -18 7 8 36 -8 9 9 -17 22 26 0 15 20 13 -1 74 142 14 20 -311 0z"/>
     </clipPath>
     <clipPath id="id8">
      <path d="M4082 1724l-48 63 6 19 -49 40 -39 -13 0 -17 -30 -17 5 -39 8 -4 0 -19 -32 -40 -25 4 -17 -16 -4 -46 -10 -16 41 -74 -15 -23 7 -10 36 -7 2 -5 311 0 41 57 4 86 -12 10 -14 -9 0 -17 -38 -14 -22 34 3 10 14 1 16 9 11 -9 -1 42 -40 65 -43 -3 -16 33 9 8 -18 11 -16 -35 12 -11 -24 -48 -13 0zm-248 -220l-42 31 -18 -27 -20 10 -22 -14 102 0z"/>
     </clipPath>
     <clipPath id="id9">
      <path d="M3675 1137l5 -6 -8 -12 7 -10 39 -26 0 -25 15 -7 -48 -57 -2 -32 -7 -10 14 -54 -18 -44 39 7 46 -37 19 -6 11 4 -1 -34 13 1 14 -18 67 20 12 28 -15 8 9 29 22 -15 21 6 7 -7 9 0 21 29 -10 0 -9 9 11 13 -71 57 -16 89 3 63 -3 37 -196 0z"/>
     </clipPath>
     <clipPath id="id10">
      <path d="M3918 1504l4 -14 -13 -8 -19 -36 -12 -1 -33 26 -1 25 -10 8 -102 0 -5 -4 14 -15 0 -33 16 -60 -72 17 -11 -33 -12 -12 13 -28 -37 -8 -2 -9 12 -3 -3 -35 -27 -16 10 -4 -11 -88 40 -14 18 -22 196 0 -10 164 -11 69 12 0 42 -29 33 44 8 -8 0 -11 -11 -5 0 -11 9 -9 9 13 9 4 0 24 28 -30 8 6 -20 -48 75 -18 7 8 36 -8 9 9 -17 22 26 0 15 20 13 -1 74 142 14 20 -311 0z"/>
     </clipPath>
     <clipPath id="id11">
      <path d="M4082 1724l-48 63 6 19 -49 40 -39 -13 0 -17 -30 -17 5 -39 8 -4 0 -19 -32 -40 -25 4 -17 -16 -4 -46 -10 -16 41 -74 -15 -23 7 -10 36 -7 2 -5 311 0 41 57 4 86 -12 10 -14 -9 0 -17 -38 -14 -22 34 3 10 14 1 16 9 11 -9 -1 42 -40 65 -43 -3 -16 33 9 8 -18 11 -16 -35 12 -11 -24 -48 -13 0zm-248 -220l-42 31 -18 -27 -20 10 -22 -14 102 0z"/>
     </clipPath>
    <clipPath id="id12">
     <path d="M3675 1137l5 -6 -8 -12 7 -10 39 -26 0 -25 15 -7 -48 -57 -2 -32 -7 -10 14 -54 -18 -44 39 7 46 -37 19 -6 11 4 -1 -34 13 1 14 -18 67 20 12 28 -15 8 9 29 22 -15 21 6 7 -7 9 0 21 29 -10 0 -9 9 11 13 -71 57 -16 89 3 63 -3 37 -196 0z"/>
    </clipPath>
  <radialGradient id="id13" gradientUnits="userSpaceOnUse" gradientTransform="matrix(0.61115 -0 -0 1 1534 0)" cx="3945.83" cy="1308.41" r="537.43" fx="3945.83" fy="1308.41">
   <stop offset="0" style="stop-opacity:1; stop-color:#DBE285"/>
   <stop offset="1" style="stop-opacity:1; stop-color:#B0CB1F"/>
  </radialGradient>
  <radialGradient id="id14" gradientUnits="userSpaceOnUse" gradientTransform="matrix(1.21242 -0 -0 1.98383 -838 -1288)" xlink:href="#id13" cx="3943.78" cy="1309.04" r="270.906" fx="3943.78" fy="1309.04">
  </radialGradient>
  <radialGradient id="id15" gradientUnits="userSpaceOnUse" gradientTransform="matrix(1.07317 -0 -0 1.756 -289 -990)" xlink:href="#id13" cx="3947.92" cy="1309.59" r="306.057" fx="3947.92" fy="1309.59">
  </radialGradient>
  <radialGradient id="id16" gradientUnits="userSpaceOnUse" gradientTransform="matrix(1.79356 -0 -0 2.93473 -3131 -2533)" xlink:href="#id13" cx="3945" cy="1309.38" r="183.129" fx="3945" fy="1309.38">
  </radialGradient>
 </defs>
 <g id="Layer_x0020_1">
  <metadata id="CorelCorpID_0Corel-Layer"/>
  <g id="_2072655345472">
   <g>
   </g>
   <g style="clip-path:url(#id0)">
    <g id="_2072655350912">
     <g>
      <line class="fil0 str0" x1="-34" y1="-442" x2="4970" y2= "-442" />
      <line class="fil0 str0" x1="-34" y1="-416" x2="4970" y2= "-416" />
      <line class="fil0 str0" x1="-34" y1="-390" x2="4970" y2= "-390" />
      <line class="fil0 str0" x1="-34" y1="-363" x2="4970" y2= "-363" />
      <line class="fil0 str0" x1="-34" y1="-337" x2="4970" y2= "-337" />
      <line class="fil0 str0" x1="-34" y1="-311" x2="4970" y2= "-311" />
      <line class="fil0 str0" x1="-34" y1="-285" x2="4970" y2= "-285" />
      <line class="fil0 str0" x1="-34" y1="-259" x2="4970" y2= "-259" />
      <line class="fil0 str0" x1="-34" y1="-232" x2="4970" y2= "-232" />
      <line class="fil0 str0" x1="-34" y1="-206" x2="4970" y2= "-206" />
      <line class="fil0 str0" x1="-34" y1="-180" x2="4970" y2= "-180" />
      <line class="fil0 str0" x1="-34" y1="-154" x2="4970" y2= "-154" />
      <line class="fil0 str0" x1="-34" y1="-128" x2="4970" y2= "-128" />
      <line class="fil0 str0" x1="-34" y1="-101" x2="4970" y2= "-101" />
      <line class="fil0 str0" x1="-34" y1="-75" x2="4970" y2= "-75" />
      <line class="fil0 str0" x1="-34" y1="-49" x2="4970" y2= "-49" />
      <line class="fil0 str0" x1="-34" y1="-23" x2="4970" y2= "-23" />
      <line class="fil0 str0" x1="-34" y1="3" x2="4970" y2= "3" />
      <line class="fil0 str0" x1="-34" y1="30" x2="4970" y2= "30" />
      <line class="fil0 str0" x1="-34" y1="56" x2="4970" y2= "56" />
      <line class="fil0 str0" x1="-34" y1="82" x2="4970" y2= "82" />
      <line class="fil0 str0" x1="-34" y1="108" x2="4970" y2= "108" />
      <line class="fil0 str0" x1="-34" y1="135" x2="4970" y2= "135" />
      <line class="fil0 str0" x1="-34" y1="161" x2="4970" y2= "161" />
      <line class="fil0 str0" x1="-34" y1="187" x2="4970" y2= "187" />
      <line class="fil0 str0" x1="-34" y1="213" x2="4970" y2= "213" />
      <line class="fil0 str0" x1="-34" y1="239" x2="4970" y2= "239" />
      <line class="fil0 str0" x1="-34" y1="266" x2="4970" y2= "266" />
      <line class="fil0 str0" x1="-34" y1="292" x2="4970" y2= "292" />
      <line class="fil0 str0" x1="-34" y1="318" x2="4970" y2= "318" />
      <line class="fil0 str0" x1="-34" y1="344" x2="4970" y2= "344" />
      <line class="fil0 str0" x1="-34" y1="370" x2="4970" y2= "370" />
      <line class="fil0 str0" x1="-34" y1="397" x2="4970" y2= "397" />
      <line class="fil0 str0" x1="-34" y1="423" x2="4970" y2= "423" />
      <line class="fil0 str0" x1="-34" y1="449" x2="4970" y2= "449" />
      <line class="fil0 str0" x1="-34" y1="475" x2="4970" y2= "475" />
      <line class="fil0 str0" x1="-34" y1="501" x2="4970" y2= "501" />
      <line class="fil0 str0" x1="-34" y1="528" x2="4970" y2= "528" />
      <line class="fil0 str0" x1="-34" y1="554" x2="4970" y2= "554" />
      <line class="fil0 str0" x1="-34" y1="580" x2="4970" y2= "580" />
      <line class="fil0 str0" x1="-34" y1="606" x2="4970" y2= "606" />
      <line class="fil0 str0" x1="-34" y1="633" x2="4970" y2= "633" />
      <line class="fil0 str0" x1="-34" y1="659" x2="4970" y2= "659" />
      <line class="fil0 str0" x1="-34" y1="685" x2="4970" y2= "685" />
      <line class="fil0 str0" x1="-34" y1="711" x2="4970" y2= "711" />
      <line class="fil0 str0" x1="-34" y1="737" x2="4970" y2= "737" />
      <line class="fil0 str0" x1="-34" y1="764" x2="4970" y2= "764" />
      <line class="fil0 str0" x1="-34" y1="790" x2="4970" y2= "790" />
      <line class="fil0 str0" x1="-34" y1="816" x2="4970" y2= "816" />
      <line class="fil0 str0" x1="-34" y1="842" x2="4970" y2= "842" />
      <line class="fil0 str0" x1="-34" y1="868" x2="4970" y2= "868" />
      <line class="fil0 str0" x1="-34" y1="895" x2="4970" y2= "895" />
      <line class="fil0 str0" x1="-34" y1="921" x2="4970" y2= "921" />
      <line class="fil0 str0" x1="-34" y1="947" x2="4970" y2= "947" />
      <line class="fil0 str0" x1="-34" y1="973" x2="4970" y2= "973" />
      <line class="fil0 str0" x1="-34" y1="999" x2="4970" y2= "999" />
      <line class="fil0 str0" x1="-34" y1="1026" x2="4970" y2= "1026" />
      <line class="fil0 str0" x1="-34" y1="1052" x2="4970" y2= "1052" />
      <line class="fil0 str0" x1="-34" y1="1078" x2="4970" y2= "1078" />
      <line class="fil0 str0" x1="-34" y1="1104" x2="4970" y2= "1104" />
      <line class="fil0 str0" x1="-34" y1="1131" x2="4970" y2= "1131" />
      <line class="fil0 str0" x1="-34" y1="1157" x2="4970" y2= "1157" />
      <line class="fil0 str0" x1="-34" y1="1183" x2="4970" y2= "1183" />
      <line class="fil0 str0" x1="-34" y1="1209" x2="4970" y2= "1209" />
      <line class="fil0 str0" x1="-34" y1="1235" x2="4970" y2= "1235" />
      <line class="fil0 str0" x1="-34" y1="1262" x2="4970" y2= "1262" />
      <line class="fil0 str0" x1="-34" y1="1288" x2="4970" y2= "1288" />
      <line class="fil0 str0" x1="-34" y1="1314" x2="4970" y2= "1314" />
      <line class="fil0 str0" x1="-34" y1="1340" x2="4970" y2= "1340" />
      <line class="fil0 str0" x1="-34" y1="1366" x2="4970" y2= "1366" />
      <line class="fil0 str0" x1="-34" y1="1393" x2="4970" y2= "1393" />
     </g>
     <line class="fil0 str0" x1="-34" y1="1420" x2="4970" y2= "1420" />
     <line class="fil0 str0" x1="-34" y1="1446" x2="4970" y2= "1446" />
     <line class="fil0 str0" x1="-34" y1="1472" x2="4970" y2= "1472" />
     <line class="fil0 str0" x1="-34" y1="1498" x2="4970" y2= "1498" />
     <line class="fil0 str0" x1="-34" y1="1524" x2="4970" y2= "1524" />
     <line class="fil0 str0" x1="-34" y1="1551" x2="4970" y2= "1551" />
     <line class="fil0 str0" x1="-34" y1="1577" x2="4970" y2= "1577" />
     <line class="fil0 str0" x1="-34" y1="1603" x2="4970" y2= "1603" />
     <line class="fil0 str0" x1="-34" y1="1629" x2="4970" y2= "1629" />
     <line class="fil0 str0" x1="-34" y1="1655" x2="4970" y2= "1655" />
     <line class="fil0 str0" x1="-34" y1="1682" x2="4970" y2= "1682" />
     <line class="fil0 str0" x1="-34" y1="1708" x2="4970" y2= "1708" />
     <line class="fil0 str0" x1="-34" y1="1734" x2="4970" y2= "1734" />
     <line class="fil0 str0" x1="-34" y1="1760" x2="4970" y2= "1760" />
     <line class="fil0 str0" x1="-34" y1="1786" x2="4970" y2= "1786" />
     <line class="fil0 str0" x1="-34" y1="1813" x2="4970" y2= "1813" />
     <line class="fil0 str0" x1="-34" y1="1839" x2="4970" y2= "1839" />
     <line class="fil0 str0" x1="-34" y1="1865" x2="4970" y2= "1865" />
     <line class="fil0 str0" x1="-34" y1="1891" x2="4970" y2= "1891" />
     <line class="fil0 str0" x1="-34" y1="1918" x2="4970" y2= "1918" />
     <line class="fil0 str0" x1="-34" y1="1944" x2="4970" y2= "1944" />
     <line class="fil0 str0" x1="-34" y1="1970" x2="4970" y2= "1970" />
     <line class="fil0 str0" x1="-34" y1="1996" x2="4970" y2= "1996" />
     <line class="fil0 str0" x1="-34" y1="2022" x2="4970" y2= "2022" />
     <line class="fil0 str0" x1="-34" y1="2049" x2="4970" y2= "2049" />
     <line class="fil0 str0" x1="-34" y1="2075" x2="4970" y2= "2075" />
     <line class="fil0 str0" x1="-34" y1="2101" x2="4970" y2= "2101" />
     <line class="fil0 str0" x1="-34" y1="2127" x2="4970" y2= "2127" />
     <line class="fil0 str0" x1="-34" y1="2153" x2="4970" y2= "2153" />
     <line class="fil0 str0" x1="-34" y1="2180" x2="4970" y2= "2180" />
     <line class="fil0 str0" x1="-34" y1="2206" x2="4970" y2= "2206" />
     <line class="fil0 str0" x1="-34" y1="2232" x2="4970" y2= "2232" />
     <line class="fil0 str0" x1="-34" y1="2258" x2="4970" y2= "2258" />
     <line class="fil0 str0" x1="-34" y1="2284" x2="4970" y2= "2284" />
     <line class="fil0 str0" x1="-34" y1="2311" x2="4970" y2= "2311" />
     <line class="fil0 str0" x1="-34" y1="2337" x2="4970" y2= "2337" />
     <line class="fil0 str0" x1="-34" y1="2363" x2="4970" y2= "2363" />
     <line class="fil0 str0" x1="-34" y1="2389" x2="4970" y2= "2389" />
     <line class="fil0 str0" x1="-34" y1="2416" x2="4970" y2= "2416" />
     <line class="fil0 str0" x1="-34" y1="2442" x2="4970" y2= "2442" />
     <line class="fil0 str0" x1="-34" y1="2468" x2="4970" y2= "2468" />
     <line class="fil0 str0" x1="-34" y1="2494" x2="4970" y2= "2494" />
     <line class="fil0 str0" x1="-34" y1="2520" x2="4970" y2= "2520" />
     <line class="fil0 str0" x1="-34" y1="2547" x2="4970" y2= "2547" />
     <line class="fil0 str0" x1="-34" y1="2573" x2="4970" y2= "2573" />
     <line class="fil0 str0" x1="-34" y1="2599" x2="4970" y2= "2599" />
     <line class="fil0 str0" x1="-34" y1="2625" x2="4970" y2= "2625" />
     <line class="fil0 str0" x1="-34" y1="2651" x2="4970" y2= "2651" />
     <line class="fil0 str0" x1="-34" y1="2678" x2="4970" y2= "2678" />
     <line class="fil0 str0" x1="-34" y1="2704" x2="4970" y2= "2704" />
     <line class="fil0 str0" x1="-34" y1="2730" x2="4970" y2= "2730" />
     <line class="fil0 str0" x1="-34" y1="2756" x2="4970" y2= "2756" />
     <line class="fil0 str0" x1="-34" y1="2782" x2="4970" y2= "2782" />
     <line class="fil0 str0" x1="-34" y1="2809" x2="4970" y2= "2809" />
     <line class="fil0 str0" x1="-34" y1="2835" x2="4970" y2= "2835" />
     <line class="fil0 str0" x1="-34" y1="2861" x2="4970" y2= "2861" />
     <line class="fil0 str0" x1="-34" y1="2887" x2="4970" y2= "2887" />
     <line class="fil0 str0" x1="-34" y1="2914" x2="4970" y2= "2914" />
     <line class="fil0 str0" x1="-34" y1="2940" x2="4970" y2= "2940" />
     <line class="fil0 str0" x1="-34" y1="2966" x2="4970" y2= "2966" />
     <line class="fil0 str0" x1="-34" y1="2992" x2="4970" y2= "2992" />
     <line class="fil0 str0" x1="-34" y1="3018" x2="4970" y2= "3018" />
     <line class="fil0 str0" x1="-34" y1="3045" x2="4970" y2= "3045" />
     <line class="fil0 str0" x1="-34" y1="3071" x2="4970" y2= "3071" />
     <line class="fil0 str0" x1="-34" y1="3097" x2="4970" y2= "3097" />
     <line class="fil0 str0" x1="-34" y1="3123" x2="4970" y2= "3123" />
     <line class="fil0 str0" x1="-34" y1="3152" x2="4970" y2= "3152" />
     <line class="fil0 str0" x1="-34" y1="3179" x2="4970" y2= "3179" />
     <line class="fil0 str0" x1="-34" y1="3205" x2="4970" y2= "3205" />
     <line class="fil0 str0" x1="-34" y1="3231" x2="4970" y2= "3231" />
     <line class="fil0 str0" x1="-34" y1="3257" x2="4970" y2= "3257" />
    </g>
   </g>
   <path class="fil0" d="M2435 204l3 37 13 -22 23 17 12 24 -77 55 -7 -4 7 -50 9 -8 0 -36 17 -13zm-865 499l15 42 -6 11 -13 -1 -11 -17 -3 -27 18 -8zm793 -547l14 12 16 8 0 38 -7 5 15 23 -22 17 -20 -15 -12 7 -18 -10 -18 -46 52 -39zm-56 23l-11 20 -18 -10 -1 -20 30 10zm-739 370l-18 118 -16 9 -57 -50 19 -22 -17 -37 -10 -1 6 -41 21 8 82 -66 17 -3 -20 -12 55 -32 31 -42 19 8 0 -10 15 6 71 -21 11 -11 41 16 89 -29 9 32 -65 37 -19 -7 -8 9 -49 -1 -48 20 -159 109 0 13zm915 -229l26 8 3 15 -21 25 54 8 -10 9 20 16 5 -14 -7 -6 47 -20 9 8 11 -5 49 44 -1 16 -15 -4 31 31 -9 24 -39 52 -4 29 -12 11 -4 24 -18 5 -19 29 -6 33 13 -5 -3 -15 33 -13 9 -13 25 -15 7 -15 -15 -6 0 -18 20 -1 29 9 12 -23 17 37 11 0 -11 -11 93 -43 0 15 12 13 88 -23 -14 -47 6 -26 71 -11 17 12 6 -6 51 47 -16 26 109 49 -21 -85 65 9 7 -40 51 -1 23 -46 -7 -21 -36 -48 7 -26 75 -39 17 3 10 47 18 -79 39 -19 97 14 65 -100 61 -22 31 31 47 -19 6 -35 9 -35 11 0 33 -57 -3 -7 556 0 63 201 -46 10 -25 46 15 72 -34 -17 8 37 15 7 -32 42 106 115 6 -39 98 62 -21 20 45 59 26 -3 53 136 -16 2 62 186 -175 -104 -126 -89 -49 -55 -1 -38 -7 -12 12 -13 -87 -282 -55 -35 14 -32 -33 16 -5 28 50 34 -2 118 -19 -3 -47 -52 0 35 -20 0 -15 81 52 141 37 -16 -13 39 -23 3 4 38 -21 36 -20 -5 9 -30 -27 8 -56 86 -12 11 -23 18 2 3 -7 0 -11 9 10 14 -71 57 -16 89 3 63 -13 202 -11 69 12 0 42 -29 33 44 8 -8 0 -11 -11 -5 0 -11 9 -9 9 13 9 4 0 24 29 -30 8 6 -21 -48 75 -18 7 8 37 -8 9 9 -17 21 26 0 15 21 13 -1 74 142 55 77 4 87 -20 413 -56 12 -6 -16 -5 27 -16 -16 -10 80 -21 -6 -53 -130 17 -48 22 -17 13 5 18 -25 -12 -20 6 -16 -44 -107 11 -11 -18 -44 -19 -4 -48 62 5 20 -42 37 -42 -10 0 -15 -25 -17 -28 -3 -68 -1 -59 10 -41 -57 -26 3 -51 -51 -3 -13 -61 -23 -31 8 -43 2 -54 33c-44,26 -32,20 -50,66l8 11 11 -10 21 21 6 24 -6 12 -5 33c-2,29 6,7 -8,42 9,16 8,18 19,29l0 22 -16 4c-6,12 -12,30 -25,39 -16,10 -36,9 -54,7 -29,-5 -8,-11 -57,17l-30 -14c-24,1 -64,69 -83,83 -17,13 -3,-10 -53,40 -44,0 -27,4 -46,7l-31 0c-31,2 -10,8 -43,-4 -8,-15 -4,-9 -17,-22 -70,0 -57,-9 -66,-11l-35 5 -21 0c-24,24 -12,16 -38,23 -13,3 -26,8 -46,3 -33,-8 -37,-38 -41,-43 -21,-29 -52,-22 -75,-16l-15 -15 -30 0 -17 -12 -9 8 -20 31 -14 30 9 11 0 17 14 32 -36 29 -57 -6 -20 5 -38 -13 -26 -26 -18 -6 -20 8 -13 -12 -16 -7 -13 12 -18 0 -4 16 -21 0 -39 32 -15 0 -4 16 -13 3 -19 15 -27 -7 -15 25 -29 -1 -17 -43 -74 5 -1 -16 -68 -76 -45 13 -26 -5 -30 -40 -19 22 -15 7 -83 -218 -22 0 -1 -16 10 -2 10 -13 -6 -9 -49 3 -56 37 -8 -13 -28 8 -148 -165 -9 13 -287 -30 -46 166 -55 25 -15 -21 -16 9 -161 -81 -94 -132 -29 3 -5 -29 -133 48 -29 -15 4 -30 -20 -8 -101 78 16 26 -14 29 34 29 -9 101 -162 26 -33 210 -65 5 -11 -58 -30 -47 12 -24 -15 -27 -13 -1 -53 -65 3 -14 -91 -116 -9 2 -34 -175 18 -11 23 20 253 -120 11 -20c-32,-15 -140,-196 -91,-263l9 0 -27 -83 -11 9 -14 -19 34 -53 25 21 29 0 8 -32 15 -84c17,-5 23,-14 34,-27l-27 -43c13,-33 11,-67 13,-103l30 -14 7 -25 19 -1c19,-43 48,-45 91,-49l11 -18c28,16 39,23 52,52l9 -9c-10,-22 -16,-36 -16,-60l16 -7 -26 -18 201 -13 6 -69 40 -15 0 -19 13 -6 0 -25 39 -23 13 7c52,-51 90,-80 103,-152l57 -28 55 25 32 0 3 25 -25 -5c3,27 11,54 38,67l33 139 -38 87 -154 -144 13 -26 -12 -11 -17 65 12 10 -67 103 11 35 -10 19 32 32 22 -32 -10 -10 15 -43 12 0 31 88 29 0 6 -24 2 -26 119 27 -10 27 82 -105 19 -11 -3 -37 12 0 23 93 -51 -7 5 53 54 3 0 -14 180 -7 5 20 -30 17 141 19 8 8 -14 32 14 12 37 -30 1 -41 25 -11 14 15 7 -7 110 157 15 -9 0 -16 18 -16 -12 -3 -28 -67 33 -66 -10 -2 104 -124 52 21 -32 103 14 11 -136 282 -31 -19 60 60 73 -40 27 -92 54 -23 21 46 -12 11 33 49 -25 -44 18 -41 -54 -47 -19 14 -7 -8 -14 0 -2 -15 21 -142 62 -87 13 0 -21 105 25 19 37 18 -45 -71 16 -11 20 20 13 -36 29 1 29 21 -5 15 18 18 20 0 -35 -62 11 -34 -10 -25 16 -14 83 2 42 -16 -25 -21 34 -47 -11 -1 0 -11 20 1 10 -18 88 -39 -13 -5 61 -25 -7 25 33 -9 3 -11 30 0 -20 -25 34 -16 12 -65 27 -23zm-163 -244l12 3 27 33 -8 8 3 31 -34 11 -11 12 -24 -32 13 -20 -5 -5 0 -15 27 -26zm843 41l34 -19 7 8 34 -25 11 8 -5 28 -54 26 -27 -26zm-45 19l30 -2 -2 21 10 0 4 14 -7 7 -41 -24 -12 16 36 24 9 -9 11 4 -19 16 -25 35 -12 -2 10 8 0 11 -63 -9 2 -11 -24 -27 9 -33 25 0 7 8 6 -6 10 9 8 -7 -18 -17 -1 -12 19 -7 9 9 19 -16zm78 118l32 6 9 18 -55 33 -11 -33 25 -24zm893 948c58,15 5,21 56,32 10,22 24,22 32,22 16,23 18,49 57,62 17,6 94,65 134,82 -6,20 -19,19 -31,19 9,52 27,121 91,121l6 12 15 2 9 -9c24,14 43,39 3,20 -13,12 -19,7 -25,7 -11,32 -2,12 17,54l-10 8c-17,-19 -33,-33 -40,-39l0 -13c-60,-55 -32,-67 -84,-81 -18,-38 -56,-95 -99,-126 -17,-13 -35,-21 -53,-23 -21,-28 -16,-18 -16,-32 -45,-45 -8,-28 -45,-39 6,-19 5,-14 5,-23l16 4 2 -13 -9 -9 0 -5c-13,-12 -6,-8 -22,-14l-4 3c-7,-17 -5,-12 -5,-22z"/>
   <g>
   </g>
   <g style="clip-path:url(#id1)">
   </g>
   <path class="fil0" d="M4082 1724l-48 63 6 19 -49 40 -39 -13 0 -17 -39 -25 -9 9 -74 -5 -53 12 -48 -54 -18 -4 -54 -47 -6 -16 -54 -19 -34 10 -40 2 -57 31 -16 -29 -13 0 -11 -26 12 -7 -24 -18 -20 -49 -10 13 -25 -25 -13 20 -16 -3 -5 -10 9 -12 -5 -8 -25 0 -8 -19 -11 -2 0 -14 -40 -26 -12 -25 3 -8 -56 -69 -12 0 0 11 -11 11 -15 -3 -8 -30 -64 -11 -40 82 0 27 -19 29 -19 -34 -12 16 -37 10 -11 25 -17 1 -22 -46 5 -32 2 -59 -23 -10 -15 -27 8 -30 -30 -14 4 -16 -30 -46 -25 4 0 -15 10 -2 0 -10 -12 -19 -82 2 14 -71 -19 -36 -14 -7c0,-16 0,-19 0,-35l-18 -1 -4 -14 26 -22 -23 -107 -23 -39 59 -28 6 -17 -9 -15 3 -15 12 -3 0 -27 29 -34 7 0 -1 -15 -13 0 -10 -40 -30 -24 -18 -17 -1 -23 -17 -25 7 -13 -8 -18 29 9 12 -23 17 37 10 0 -10 -11 92 -43 0 15 13 13 87 -23 -14 -47 6 -26 72 -11 17 12 5 -5 51 46 -16 26 108 49 -20 -85 65 9 6 -40 51 -1 23 -45 -6 -22 -37 -47 7 -26 75 -39 17 3 10 47 18 -80 39 -18 97 14 65 -100 60 -22 32 31 46 -19 8 -32 69 51 -42 82 18 21 0 19 56 2 36 40 -3 28 -8 8 -56 51 27 48 1 28 30 43 -27 49 -56 32 20 30 -16 -1c0,4 -16,46 -20,57l5 3 59 76 -2 14 13 1 14 -18 67 20 12 28 -15 8 9 29 22 -15 21 6 7 -7 9 0 21 29 -10 0 -9 9 11 13 -71 57 -16 89 3 63 -13 201 -11 69 12 0 42 -29 33 44 8 -8 0 -11 -11 -5 0 -11 9 -9 9 13 9 4 0 24 28 -30 8 6 -20 -48 75 -18 7 8 36 -8 9 9 -17 22 26 0 15 20 13 -1 74 142 55 77 4 86 0 1 -20 411 -56 13 -5 -16 -6 26 -16 -16 -10 81 -21 -7 -53 -130 17 -47 23 -17 12 4 18 -25 -12 -19 7 -16 -45 -107 0 0 0 0 12 -11 0 0 -24 -48 0 0 -13 0zm11 -500c-5,2 -5,2 -5,2 -6,-16 -4,-12 -4,-21 57,15 4,20 55,31 10,22 25,22 32,22 16,23 18,49 57,62 17,6 94,65 134,82 -6,20 -19,19 -31,19 9,52 27,121 91,121 6,12 6,12 6,12 14,1 14,1 14,1 9,-9 9,-9 9,-9 24,15 43,39 4,21 -14,11 -19,6 -25,6 -11,33 -3,13 17,55 -10,8 -10,8 -10,8 -17,-19 -34,-34 -40,-40 0,-12 0,-12 0,-12 -60,-55 -33,-67 -84,-81 -19,-39 -56,-95 -99,-126 -17,-13 -35,-21 -53,-23 -21,-27 -16,-18 -16,-31 -45,-45 -8,-29 -44,-40 6,-18 4,-13 4,-23 16,5 16,5 16,5 2,-14 2,-14 2,-14 -9,-9 -9,-9 -9,-9 0,-5 0,-5 0,-5 -12,-12 -6,-8 -21,-13z"/>
   <g style="clip-path:url(#id2)">
    <polygon class="fil1" points="3511,713 4168,713 4168,1836 3511,1836 "/>
   </g>
   <g style="clip-path:url(#id3)">
   </g>
   <polygon id="1" class="fil0" points="3976,1667 3927,1729 3934,1748 3956,1836 3845,1776 3845,1758 3815,1741 3820,1702 3829,1698 3828,1679 3796,1639 3772,1643 3755,1627 3751,1581 3741,1565 3781,1491 3735,1501 3668,1450 3648,1460 3620,1442 3635,1427 3635,1394 3639,1386 3579,1351 3568,1318 3556,1306 3569,1279 3532,1270 3530,1261 3541,1259 3539,1223 3511,1207 3521,1203 3511,1115 3551,1102 3574,1073 3565,1061 3572,1052 3611,1026 3612,1000 3626,993 3578,936 3577,904 3569,894 3583,840 3566,796 3605,803 3650,766 3669,760 3680,764 3680,730 3692,731 3707,713 3881,793 3859,811 3850,811 3841,820 3851,833 3781,890 3765,979 3767,1042 3755,1243 3743,1312 3756,1312 3798,1283 3831,1327 3839,1319 3839,1308 3827,1303 3827,1292 3836,1283 3845,1297 3855,1300 3855,1324 3883,1294 3891,1300 3870,1252 3945,1234 3952,1242 3989,1234 3998,1243 3981,1265 4007,1265 4021,1285 4035,1284 4109,1426 4163,1503 4168,1589 4155,1600 4142,1591 4142,1573 4103,1559 4082,1593 4085,1603 4099,1604 4114,1613 4126,1604 4125,1646 4085,1711 4042,1709 4026,1741 4035,1749 4017,1760 4001,1726 4012,1714 3989,1667 "/>
   <polygon class="fil2" points="4082,1724 4034,1787 4040,1806 3991,1846 3952,1833 3952,1816 3922,1799 3919,1755 3932,1748 3924,1737 3903,1697 3878,1701 3861,1685 3857,1639 3847,1608 3886,1542 3873,1526 3878,1514 3911,1499 3922,1490 3904,1482 3890,1454 3878,1457 3857,1476 3844,1496 3792,1535 3774,1508 3754,1518 3727,1500 3741,1485 3741,1452 3758,1400 3688,1417 3674,1376 3662,1364 3675,1336 3638,1328 3636,1319 3648,1316 3648,1291 3618,1276 3628,1261 3617,1173 3657,1159 3680,1131 3672,1119 3679,1109 3718,1083 3718,1058 3730,1065 3685,1008 3683,962 3676,952 3689,909 3672,854 3711,861 3757,824 3776,818 3787,822 3786,788 3799,789 3813,771 3880,791 3892,819 3875,835 3886,856 3908,841 3929,847 3936,840 3945,840 3966,869 3956,869 3947,878 3955,900 3886,955 3871,1037 3874,1100 3861,1301 3850,1370 3862,1370 3904,1341 3937,1385 3945,1377 3945,1366 3934,1361 3934,1350 3943,1341 3952,1354 3961,1358 3961,1382 3989,1352 3997,1358 3977,1310 4052,1292 4059,1300 4095,1292 4104,1301 4087,1323 4113,1323 4128,1343 4141,1342 4215,1484 4270,1561 4274,1647 4262,1657 4245,1655 4236,1636 4208,1625 4188,1651 4191,1661 4205,1662 4221,1671 4232,1662 4231,1704 4191,1769 4148,1766 4132,1799 4125,1820 4110,1818 4101,1783 4109,1769 4088,1724 "/>
   <g style="clip-path:url(#id4)">
   </g>
   <polygon id="1" class="fil0" points="4082,1724 4034,1787 4040,1806 3991,1846 3952,1833 3952,1816 3922,1799 3919,1755 3932,1748 3924,1737 3903,1697 3878,1701 3861,1685 3857,1639 3847,1608 3886,1542 3873,1526 3878,1514 3911,1499 3922,1490 3904,1482 3890,1454 3878,1457 3857,1476 3844,1496 3792,1535 3774,1508 3754,1518 3727,1500 3741,1485 3741,1452 3758,1400 3688,1417 3674,1376 3662,1364 3675,1336 3638,1328 3636,1319 3648,1316 3648,1291 3618,1276 3628,1261 3617,1173 3657,1159 3680,1131 3672,1119 3679,1109 3718,1083 3718,1058 3730,1065 3685,1008 3683,962 3676,952 3689,909 3672,854 3711,861 3757,824 3776,818 3787,822 3786,788 3799,789 3813,771 3880,791 3892,819 3875,835 3886,856 3908,841 3929,847 3936,840 3945,840 3966,869 3956,869 3947,878 3955,900 3886,955 3871,1037 3874,1100 3861,1301 3850,1370 3862,1370 3904,1341 3937,1385 3945,1377 3945,1366 3934,1361 3934,1350 3943,1341 3952,1354 3961,1358 3961,1382 3989,1352 3997,1358 3977,1310 4052,1292 4059,1300 4095,1292 4104,1301 4087,1323 4113,1323 4128,1343 4141,1342 4215,1484 4270,1561 4274,1647 4262,1657 4245,1655 4236,1636 4208,1625 4188,1651 4191,1661 4205,1662 4221,1671 4232,1662 4231,1704 4191,1769 4148,1766 4132,1799 4125,1820 4110,1818 4101,1783 4109,1769 4088,1724 "/>
   <polygon class="fil3" points="4082,1724 4034,1787 4040,1806 3991,1846 3952,1833 3952,1816 3922,1799 3927,1760 3935,1756 3935,1737 3903,1697 3878,1701 3861,1685 3857,1639 3847,1623 3888,1549 3873,1526 3880,1516 3916,1509 3922,1490 3909,1482 3890,1446 3878,1445 3845,1471 3844,1496 3792,1535 3774,1508 3754,1518 3727,1500 3741,1485 3741,1452 3757,1392 3685,1409 3674,1376 3662,1364 3675,1336 3638,1328 3636,1319 3648,1316 3645,1281 3618,1265 3628,1261 3617,1173 3657,1159 3680,1131 3672,1119 3679,1109 3718,1083 3718,1058 3733,1051 3685,994 3683,962 3676,952 3690,898 3672,854 3711,861 3757,824 3776,818 3787,822 3786,788 3799,789 3813,771 3880,791 3892,819 3877,827 3886,856 3908,841 3929,847 3936,840 3945,840 3966,869 3956,869 3947,878 3958,891 3887,948 3871,1037 3874,1100 3861,1301 3850,1370 3862,1370 3904,1341 3937,1385 3945,1377 3945,1366 3934,1361 3934,1350 3943,1341 3952,1354 3961,1358 3961,1382 3989,1352 3997,1358 3977,1310 4052,1292 4059,1300 4095,1292 4104,1301 4087,1323 4113,1323 4128,1343 4141,1342 4215,1484 4270,1561 4274,1647 4262,1657 4248,1648 4248,1631 4210,1617 4188,1651 4191,1661 4205,1662 4221,1671 4232,1662 4231,1704 4191,1769 4148,1766 4132,1799 4141,1807 4123,1818 4107,1783 4119,1772 4095,1724 "/>
   <g style="clip-path:url(#id5)">
   </g>
   <polygon id="1" class="fil0" points="4082,1724 4034,1787 4040,1806 3991,1846 3952,1833 3952,1816 3922,1799 3927,1760 3935,1756 3935,1737 3903,1697 3878,1701 3861,1685 3857,1639 3847,1623 3888,1549 3873,1526 3880,1516 3916,1509 3922,1490 3909,1482 3890,1446 3878,1445 3845,1471 3844,1496 3792,1535 3774,1508 3754,1518 3727,1500 3741,1485 3741,1452 3757,1392 3685,1409 3674,1376 3662,1364 3675,1336 3638,1328 3636,1319 3648,1316 3645,1281 3618,1265 3628,1261 3617,1173 3657,1159 3680,1131 3672,1119 3679,1109 3718,1083 3718,1058 3733,1051 3685,994 3683,962 3676,952 3690,898 3672,854 3711,861 3757,824 3776,818 3787,822 3786,788 3799,789 3813,771 3880,791 3892,819 3877,827 3886,856 3908,841 3929,847 3936,840 3945,840 3966,869 3956,869 3947,878 3958,891 3887,948 3871,1037 3874,1100 3861,1301 3850,1370 3862,1370 3904,1341 3937,1385 3945,1377 3945,1366 3934,1361 3934,1350 3943,1341 3952,1354 3961,1358 3961,1382 3989,1352 3997,1358 3977,1310 4052,1292 4059,1300 4095,1292 4104,1301 4087,1323 4113,1323 4128,1343 4141,1342 4215,1484 4270,1561 4274,1647 4262,1657 4248,1648 4248,1631 4210,1617 4188,1651 4191,1661 4205,1662 4221,1671 4232,1662 4231,1704 4191,1769 4148,1766 4132,1799 4141,1807 4123,1818 4107,1783 4119,1772 4095,1724 "/>
   <g>
    <polygon class="fil4" points="3675,1137 3680,1131 3672,1119 3679,1109 3718,1083 3718,1058 3733,1051 3685,994 3683,962 3676,952 3690,898 3672,854 3711,861 3757,824 3776,818 3787,822 3786,788 3799,789 3813,771 3880,791 3892,819 3877,827 3886,856 3908,841 3929,847 3936,840 3945,840 3966,869 3956,869 3947,878 3958,891 3887,948 3871,1037 3874,1100 3871,1137 "/>
    <g style="clip-path:url(#id6)">
    </g>
    <polygon id="1" class="fil0" points="3675,1137 3680,1131 3672,1119 3679,1109 3718,1083 3718,1058 3733,1051 3685,994 3683,962 3676,952 3690,898 3672,854 3711,861 3757,824 3776,818 3787,822 3786,788 3799,789 3813,771 3880,791 3892,819 3877,827 3886,856 3908,841 3929,847 3936,840 3945,840 3966,869 3956,869 3947,878 3958,891 3887,948 3871,1037 3874,1100 3871,1137 "/>
    <polygon class="fil5" points="3918,1504 3922,1490 3909,1482 3890,1446 3878,1445 3845,1471 3844,1496 3834,1504 3732,1504 3727,1500 3741,1485 3741,1452 3757,1392 3685,1409 3674,1376 3662,1364 3675,1336 3638,1328 3636,1319 3648,1316 3645,1281 3618,1265 3628,1261 3617,1173 3657,1159 3675,1137 3871,1137 3861,1301 3850,1370 3862,1370 3904,1341 3937,1385 3945,1377 3945,1366 3934,1361 3934,1350 3943,1341 3952,1354 3961,1358 3961,1382 3989,1352 3997,1358 3977,1310 4052,1292 4059,1300 4095,1292 4104,1301 4087,1323 4113,1323 4128,1343 4141,1342 4215,1484 4229,1504 "/>
    <g style="clip-path:url(#id7)">
    </g>
    <polygon id="1" class="fil0" points="3918,1504 3922,1490 3909,1482 3890,1446 3878,1445 3845,1471 3844,1496 3834,1504 3732,1504 3727,1500 3741,1485 3741,1452 3757,1392 3685,1409 3674,1376 3662,1364 3675,1336 3638,1328 3636,1319 3648,1316 3645,1281 3618,1265 3628,1261 3617,1173 3657,1159 3675,1137 3871,1137 3861,1301 3850,1370 3862,1370 3904,1341 3937,1385 3945,1377 3945,1366 3934,1361 3934,1350 3943,1341 3952,1354 3961,1358 3961,1382 3989,1352 3997,1358 3977,1310 4052,1292 4059,1300 4095,1292 4104,1301 4087,1323 4113,1323 4128,1343 4141,1342 4215,1484 4229,1504 "/>
    <path class="fil6" d="M4082 1724l-48 63 6 19 -49 40 -39 -13 0 -17 -30 -17 5 -39 8 -4 0 -19 -32 -40 -25 4 -17 -16 -4 -46 -10 -16 41 -74 -15 -23 7 -10 36 -7 2 -5 311 0 41 57 4 86 -12 10 -14 -9 0 -17 -38 -14 -22 34 3 10 14 1 16 9 11 -9 -1 42 -40 65 -43 -3 -16 33 9 8 -18 11 -16 -35 12 -11 -24 -48 -13 0zm-248 -220l-42 31 -18 -27 -20 10 -22 -14 102 0z"/>
    <g style="clip-path:url(#id8)">
    </g>
    <path id="1" class="fil0" d="M4082 1724l-48 63 6 19 -49 40 -39 -13 0 -17 -30 -17 5 -39 8 -4 0 -19 -32 -40 -25 4 -17 -16 -4 -46 -10 -16 41 -74 -15 -23 7 -10 36 -7 2 -5 311 0 41 57 4 86 -12 10 -14 -9 0 -17 -38 -14 -22 34 3 10 14 1 16 9 11 -9 -1 42 -40 65 -43 -3 -16 33 9 8 -18 11 -16 -35 12 -11 -24 -48 -13 0zm-248 -220l-42 31 -18 -27 -20 10 -22 -14 102 0z"/>
   </g>
   <g>
    <polygon class="fil4" points="3675,1137 3680,1131 3672,1119 3679,1109 3718,1083 3718,1058 3733,1051 3685,994 3683,962 3676,952 3690,898 3672,854 3711,861 3757,824 3776,818 3787,822 3786,788 3799,789 3813,771 3880,791 3892,819 3877,827 3886,856 3908,841 3929,847 3936,840 3945,840 3966,869 3956,869 3947,878 3958,891 3887,948 3871,1037 3874,1100 3871,1137 "/>
    <g style="clip-path:url(#id9)">
    </g>
    <polygon id="1" class="fil0" points="3675,1137 3680,1131 3672,1119 3679,1109 3718,1083 3718,1058 3733,1051 3685,994 3683,962 3676,952 3690,898 3672,854 3711,861 3757,824 3776,818 3787,822 3786,788 3799,789 3813,771 3880,791 3892,819 3877,827 3886,856 3908,841 3929,847 3936,840 3945,840 3966,869 3956,869 3947,878 3958,891 3887,948 3871,1037 3874,1100 3871,1137 "/>
    <polygon class="fil5" points="3918,1504 3922,1490 3909,1482 3890,1446 3878,1445 3845,1471 3844,1496 3834,1504 3732,1504 3727,1500 3741,1485 3741,1452 3757,1392 3685,1409 3674,1376 3662,1364 3675,1336 3638,1328 3636,1319 3648,1316 3645,1281 3618,1265 3628,1261 3617,1173 3657,1159 3675,1137 3871,1137 3861,1301 3850,1370 3862,1370 3904,1341 3937,1385 3945,1377 3945,1366 3934,1361 3934,1350 3943,1341 3952,1354 3961,1358 3961,1382 3989,1352 3997,1358 3977,1310 4052,1292 4059,1300 4095,1292 4104,1301 4087,1323 4113,1323 4128,1343 4141,1342 4215,1484 4229,1504 "/>
    <g style="clip-path:url(#id10)">
    </g>
    <polygon id="1" class="fil0" points="3918,1504 3922,1490 3909,1482 3890,1446 3878,1445 3845,1471 3844,1496 3834,1504 3732,1504 3727,1500 3741,1485 3741,1452 3757,1392 3685,1409 3674,1376 3662,1364 3675,1336 3638,1328 3636,1319 3648,1316 3645,1281 3618,1265 3628,1261 3617,1173 3657,1159 3675,1137 3871,1137 3861,1301 3850,1370 3862,1370 3904,1341 3937,1385 3945,1377 3945,1366 3934,1361 3934,1350 3943,1341 3952,1354 3961,1358 3961,1382 3989,1352 3997,1358 3977,1310 4052,1292 4059,1300 4095,1292 4104,1301 4087,1323 4113,1323 4128,1343 4141,1342 4215,1484 4229,1504 "/>
    <path class="fil6" d="M4082 1724l-48 63 6 19 -49 40 -39 -13 0 -17 -30 -17 5 -39 8 -4 0 -19 -32 -40 -25 4 -17 -16 -4 -46 -10 -16 41 -74 -15 -23 7 -10 36 -7 2 -5 311 0 41 57 4 86 -12 10 -14 -9 0 -17 -38 -14 -22 34 3 10 14 1 16 9 11 -9 -1 42 -40 65 -43 -3 -16 33 9 8 -18 11 -16 -35 12 -11 -24 -48 -13 0zm-248 -220l-42 31 -18 -27 -20 10 -22 -14 102 0z"/>
    <g style="clip-path:url(#id11)">
    </g>
    <path id="1" class="fil0" d="M4082 1724l-48 63 6 19 -49 40 -39 -13 0 -17 -30 -17 5 -39 8 -4 0 -19 -32 -40 -25 4 -17 -16 -4 -46 -10 -16 41 -74 -15 -23 7 -10 36 -7 2 -5 311 0 41 57 4 86 -12 10 -14 -9 0 -17 -38 -14 -22 34 3 10 14 1 16 9 11 -9 -1 42 -40 65 -43 -3 -16 33 9 8 -18 11 -16 -35 12 -11 -24 -48 -13 0zm-248 -220l-42 31 -18 -27 -20 10 -22 -14 102 0z"/>
   </g>
   <polygon class="fil4" points="3675,1137 3680,1131 3672,1119 3679,1109 3718,1083 3718,1058 3733,1051 3685,994 3683,962 3676,952 3690,898 3672,854 3711,861 3757,824 3776,818 3787,822 3786,788 3799,789 3813,771 3880,791 3892,819 3877,827 3886,856 3908,841 3929,847 3936,840 3945,840 3966,869 3956,869 3947,878 3958,891 3887,948 3871,1037 3874,1100 3871,1137 "/>
   <g style="clip-path:url(#id12)">
   </g>
   <polygon id="1" class="fil0" points="3675,1137 3680,1131 3672,1119 3679,1109 3718,1083 3718,1058 3733,1051 3685,994 3683,962 3676,952 3690,898 3672,854 3711,861 3757,824 3776,818 3787,822 3786,788 3799,789 3813,771 3880,791 3892,819 3877,827 3886,856 3908,841 3929,847 3936,840 3945,840 3966,869 3956,869 3947,878 3958,891 3887,948 3871,1037 3874,1100 3871,1137 "/>
  </g>
 </g>
</svg>
